<svg xmlns="http://www.w3.org/2000/svg" width="45.77" height="63.464" viewBox="0 0 45.77 63.464">
  <g id="app" transform="translate(-10 -6)">
    <path id="Path_1385" data-name="Path 1385" d="M38.379,10.87H26.317A10.6,10.6,0,0,0,15.71,21.478V52.664a10.573,10.573,0,0,0,2.817,7.2H38.4a6.5,6.5,0,0,0,6.723-6.224v-40.2A10.122,10.122,0,0,0,38.379,10.87ZM26.772,56.912a5.906,5.906,0,1,1,5.905-5.906A5.923,5.923,0,0,1,26.772,56.912Zm0-9.245a3.339,3.339,0,1,0,3.339,3.339A3.344,3.344,0,0,0,26.772,47.667Z" transform="translate(7.26 6.192)" fill="#00cfde"/>
    <path id="Path_1386" data-name="Path 1386" d="M45.639,6H20.131A9.9,9.9,0,0,0,10,15.631v44.2a9.9,9.9,0,0,0,10.131,9.631H33.555a10.575,10.575,0,0,1-7.791-3.407H20.131a6.5,6.5,0,0,1-6.723-6.224v-44.2a6.5,6.5,0,0,1,6.723-6.224H45.639a6.5,6.5,0,0,1,6.723,6.224v4a10.127,10.127,0,0,1,3.407,7.587v32.1A10.15,10.15,0,0,1,45.616,69.464h.023a9.9,9.9,0,0,0,10.131-9.631v-44.2A9.9,9.9,0,0,0,45.639,6Z" transform="translate(0 0)" fill="#9654ff"/>
    <path id="Path_1387" data-name="Path 1387" d="M43.539,11.99v40.2a6.5,6.5,0,0,1-6.724,6.224H16.94a10.575,10.575,0,0,0,7.791,3.407H36.792A10.15,10.15,0,0,0,46.946,51.672v-32.1A10.084,10.084,0,0,0,43.539,11.99Z" transform="translate(8.824 7.616)" fill="#0045de"/>
    <path id="Path_1388" data-name="Path 1388" d="M23.886,25.94a5.906,5.906,0,1,0,5.905,5.906A5.923,5.923,0,0,0,23.886,25.94Zm0,9.245a3.339,3.339,0,1,1,3.339-3.339A3.344,3.344,0,0,1,23.886,35.184Z" transform="translate(10.146 25.352)" fill="#0045de"/>
  </g>
</svg>
