<svg xmlns="http://www.w3.org/2000/svg" xmlns:xlink="http://www.w3.org/1999/xlink" width="70.806" height="70.762" viewBox="0 0 70.806 70.762">
  <defs>
    <clipPath id="clip-path">
      <rect id="Rectangle_3073" data-name="Rectangle 3073" width="70.806" height="70.762" fill="#904fef"/>
    </clipPath>
  </defs>
  <g id="Group_3678" data-name="Group 3678" opacity="0.58">
    <g id="Group_3677" data-name="Group 3677" clip-path="url(#clip-path)">
      <path id="Path_1348" data-name="Path 1348" d="M55.6,6.47C69.229,15.353,75.945,35.6,66.176,52.853A35.387,35.387,0,1,1,7.191,14.018C19.867-2.589,41.832-3.376,55.105,6.089c-.251.148-.466.3-.7.408-3.064,1.466-6.119,2.951-9.208,4.364a2.505,2.505,0,0,1-1.652.1A25.741,25.741,0,0,0,9.832,32.327C8.051,45.745,17.885,58.8,31.253,60.762,45.786,62.9,58.7,53.48,60.872,38.988a25.032,25.032,0,0,0-5.589-19.939,2.369,2.369,0,0,1-.523-1.47c.236-3.666.548-7.327.845-11.109" transform="translate(0 0)" fill="#904fef"/>
      <path id="Path_1349" data-name="Path 1349" d="M102.227,86.226a15.823,15.823,0,1,1-15.85-15.78,15.769,15.769,0,0,1,15.85,15.78m-15.812,6.49a6.451,6.451,0,1,0-.026-12.9,6.451,6.451,0,1,0,.026,12.9" transform="translate(-50.999 -50.901)" fill="#904fef"/>
    </g>
  </g>
</svg>
