<svg xmlns="http://www.w3.org/2000/svg" xmlns:xlink="http://www.w3.org/1999/xlink" width="128" height="127.92" viewBox="0 0 128 127.92">
  <defs>
    <clipPath id="clip-path">
      <rect id="Rectangle_3072" data-name="Rectangle 3072" width="128" height="127.92" fill="#5dccda"/>
    </clipPath>
  </defs>
  <g id="Group_3694" data-name="Group 3694" opacity="0.36">
    <g id="Group_3675" data-name="Group 3675" clip-path="url(#clip-path)">
      <path id="Path_1346" data-name="Path 1346" d="M100.52,11.7c24.628,16.059,36.77,52.666,19.11,83.849a63.992,63.992,0,0,1-90.975,21.734C-2.078,96.983-9.351,54.625,13,25.341,35.914-4.68,75.622-6.1,99.616,11.008c-.454.267-.843.535-1.264.737-5.539,2.651-11.062,5.335-16.646,7.889a4.529,4.529,0,0,1-2.986.185C50.311,10.773,21.7,28.882,17.773,58.439,14.554,82.7,32.331,106.294,56.5,109.843,82.77,113.7,106.111,96.679,110.041,70.48c2.011-13.4-1.675-25.436-10.1-36.045a4.282,4.282,0,0,1-.945-2.657c.426-6.627.99-13.246,1.528-20.083" transform="translate(0 0)" fill="#5dccda"/>
      <path id="Path_1347" data-name="Path 1347" d="M127.789,98.972A28.6,28.6,0,1,1,99.137,70.446a28.506,28.506,0,0,1,28.652,28.526M99.205,110.7a11.661,11.661,0,1,0-.048-23.322,11.661,11.661,0,1,0,.048,23.322" transform="translate(-35.182 -35.114)" fill="#5228c8"/>
    </g>
  </g>
</svg>
