<svg xmlns="http://www.w3.org/2000/svg" width="56.154" height="60" viewBox="0 0 56.154 60">
  <g id="emision" transform="translate(-6 -5)">
    <path id="Path_1389" data-name="Path 1389" d="M33.279,7.97a3.433,3.433,0,0,0-1.632.418L13.578,18.4a2.568,2.568,0,0,0,0,4.5l16.856,9.333L52.2,20.129a1.21,1.21,0,0,0,0-2.109L34.811,8.348A3.177,3.177,0,0,0,33.279,7.97ZM52.941,22.855,34.692,33c.06-.04.119-.06.179-.1l18.05-10.03Z" transform="translate(6.187 2.94)" fill="#00cfde"/>
    <path id="Path_1390" data-name="Path 1390" d="M33.928,5a4.911,4.911,0,0,0-2.388.617L8.2,18.552a3.95,3.95,0,0,0,0,6.925L31.6,38.452a4.885,4.885,0,0,0,2.328.6,4.636,4.636,0,0,0,2.328-.617l4.458-2.488a3.225,3.225,0,0,1-2.985-.1l-1.254-.7L34.923,36a2.008,2.008,0,0,1-1,.259,1.956,1.956,0,0,1-1-.259L9.53,23.03a1.185,1.185,0,0,1-.617-1.055A1.167,1.167,0,0,1,9.53,20.92L32.873,7.985a2.258,2.258,0,0,1,1.055-.279,2.2,2.2,0,0,1,1.055.279l5.871,3.264c.04.02.06.04.1.06l17.99,9.99a2.565,2.565,0,0,1,.02,4.478l.617-.338a3.968,3.968,0,0,0,0-6.925L36.3,5.577A5.2,5.2,0,0,0,33.928,5Z" transform="translate(0.146 0)" fill="#9654ff"/>
    <path id="Path_1391" data-name="Path 1391" d="M25.765,8.16l17.393,9.672a1.21,1.21,0,0,1,0,2.109l-21.771,12.1,1.254.7a3.185,3.185,0,0,0,1.572.4,3.249,3.249,0,0,0,1.413-.318L43.874,22.668a2.572,2.572,0,0,0-.02-4.478L25.865,8.2C25.845,8.18,25.8,8.18,25.765,8.16Z" transform="translate(15.234 3.129)" fill="#0045de"/>
    <path id="Path_1392" data-name="Path 1392" d="M10.511,17.55a4.334,4.334,0,0,0-3.224,1.413,4.5,4.5,0,0,0,1.035,7.085l23.4,12.975a4.839,4.839,0,0,0,4.657,0l23.4-12.975a.416.416,0,0,0,.119-.08.151.151,0,0,1-.08.04L45.675,33.828a4.338,4.338,0,0,1-2.07.537,4.481,4.481,0,0,1-2.786-.975l-5.771,3.2a2.043,2.043,0,0,1-1.99,0L9.656,23.639a1.7,1.7,0,0,1-.876-1.254A1.767,1.767,0,0,1,9.3,20.873a1.647,1.647,0,0,1,1.274-.557,6.078,6.078,0,0,1,2.667.955L31.745,31.52a4.771,4.771,0,0,0,2.328.6,5,5,0,0,0,2.328-.6l2.587-1.433a4.463,4.463,0,0,1,1.97-4.239l-5.89,3.264a2.043,2.043,0,0,1-1.99,0L14.571,18.863A8.762,8.762,0,0,0,10.511,17.55Zm43.761.935c-.279.139-.5.259-.7.378l-6.647,3.682Z" transform="translate(0 12.425)" fill="#9654ff"/>
    <path id="Path_1393" data-name="Path 1393" d="M10.511,24.07a4.334,4.334,0,0,0-3.224,1.413,4.544,4.544,0,0,0-1.234,3.841,4.439,4.439,0,0,0,2.269,3.224l23.4,12.975a4.771,4.771,0,0,0,2.328.6,5,5,0,0,0,2.328-.6l23.4-12.975a.416.416,0,0,0,.119-.08c-.04.02-.06.04-.1.04L45.675,40.329a4.338,4.338,0,0,1-2.07.537,4.522,4.522,0,0,1-2.786-.975l-5.771,3.2a2.043,2.043,0,0,1-1.99,0L9.656,30.12a1.773,1.773,0,0,1-.9-1.254,1.826,1.826,0,0,1,.517-1.532,1.647,1.647,0,0,1,1.274-.557,6.078,6.078,0,0,1,2.667.955L31.725,37.981a4.771,4.771,0,0,0,2.328.6h.02a4.771,4.771,0,0,0,2.328-.6l2.587-1.433a4.463,4.463,0,0,1,1.97-4.239l-5.89,3.264a1.956,1.956,0,0,1-1,.259,2.178,2.178,0,0,1-1-.259L14.571,25.324A9.576,9.576,0,0,0,10.511,24.07Zm43.761.935c-.279.139-.517.279-.7.378l-6.667,3.682Z" transform="translate(0 18.88)" fill="#9654ff"/>
    <path id="Path_1394" data-name="Path 1394" d="M41.184,17.53a6.61,6.61,0,0,0-3.085.836l-.239.139A7.594,7.594,0,0,1,41.2,17.57a4.333,4.333,0,0,1,3.224,1.413,4.543,4.543,0,0,1,1.234,3.841,4.407,4.407,0,0,1-2.149,3.164,4.328,4.328,0,0,0,1.532-6.169A4.268,4.268,0,0,0,41.184,17.53Zm-.02,2.786a6.078,6.078,0,0,0-2.667.955l-15.92,8.816a5,5,0,0,0,.577,1.851,4.84,4.84,0,0,0,1.274,1.473L42.059,23.64a1.7,1.7,0,0,0,.876-1.254,1.767,1.767,0,0,0-.517-1.512A1.578,1.578,0,0,0,41.164,20.316ZM30.517,22.565l-5.711,3.164c-.08.04-.159.1-.239.139Z" transform="translate(16.412 12.405)" fill="#00cfde"/>
    <path id="Path_1395" data-name="Path 1395" d="M41.207,17.55a7.516,7.516,0,0,0-3.343.935l-7.343,4.06-5.95,3.3a4.463,4.463,0,0,0-1.97,4.239l15.92-8.816a6.16,6.16,0,0,1,2.667-.955,1.647,1.647,0,0,1,1.273.557,1.806,1.806,0,0,1,.517,1.532,1.741,1.741,0,0,1-.9,1.254L24.451,33.43a4.523,4.523,0,0,0,2.786.975,4.337,4.337,0,0,0,2.069-.537l14.129-7.821c.04-.02.06-.04.08-.04a4.464,4.464,0,0,0,2.149-3.164A4.544,4.544,0,0,0,44.431,19,4.186,4.186,0,0,0,41.207,17.55Z" transform="translate(16.409 12.425)" fill="#0045de"/>
    <path id="Path_1396" data-name="Path 1396" d="M41.184,24.05a6.61,6.61,0,0,0-3.085.836l-.239.139A7.594,7.594,0,0,1,41.2,24.09,4.333,4.333,0,0,1,44.427,25.5a4.544,4.544,0,0,1,1.234,3.841,4.407,4.407,0,0,1-2.149,3.164,4.328,4.328,0,0,0,1.532-6.169A4.291,4.291,0,0,0,41.184,24.05Zm-.02,2.786a6.078,6.078,0,0,0-2.667.955l-15.92,8.816a4.763,4.763,0,0,0,1.851,3.323l17.632-9.771a1.7,1.7,0,0,0,.876-1.254,1.806,1.806,0,0,0-.517-1.532A1.7,1.7,0,0,0,41.164,26.836ZM30.5,29.085l-5.711,3.164c-.08.04-.159.1-.239.139Z" transform="translate(16.412 18.86)" fill="#00cfde"/>
    <path id="Path_1397" data-name="Path 1397" d="M41.217,24.07a7.594,7.594,0,0,0-3.343.935l-7.363,4.06-5.95,3.3a4.463,4.463,0,0,0-1.97,4.239l15.92-8.816a6.161,6.161,0,0,1,2.667-.955,1.647,1.647,0,0,1,1.274.557,1.806,1.806,0,0,1,.517,1.532,1.741,1.741,0,0,1-.9,1.254L24.441,39.951a4.523,4.523,0,0,0,2.786.975,4.337,4.337,0,0,0,2.069-.537l14.129-7.821c.04-.02.06-.04.1-.04a4.483,4.483,0,0,0,.915-7A4.186,4.186,0,0,0,41.217,24.07Z" transform="translate(16.399 18.88)" fill="#0045de"/>
  </g>
</svg>
