<svg xmlns="http://www.w3.org/2000/svg" xmlns:xlink="http://www.w3.org/1999/xlink" width="1920" height="718.887" viewBox="0 0 1920 718.887">
  <defs>
    <linearGradient id="linear-gradient" x1="1.023" y1="0.916" x2="0.112" y2="0.648" gradientUnits="objectBoundingBox">
      <stop offset="0" stop-color="#dabcfa"/>
      <stop offset="1" stop-color="#acd6f4"/>
    </linearGradient>
    <linearGradient id="linear-gradient-2" y1="0.138" x2="1" y2="0.937" gradientUnits="objectBoundingBox">
      <stop offset="0" stop-color="#4e26c6"/>
      <stop offset="1" stop-color="#8636e8"/>
    </linearGradient>
    <clipPath id="clip-path">
      <rect id="Rectangle_3067" data-name="Rectangle 3067" width="1258.692" height="314" fill="url(#linear-gradient)"/>
    </clipPath>
    <clipPath id="clip-path-2">
      <rect id="Rectangle_3066" data-name="Rectangle 3066" width="1920" height="718.887" fill="url(#linear-gradient-2)"/>
    </clipPath>
  </defs>
  <g id="Group_3669" data-name="Group 3669" transform="translate(0 -5142.113)">
    <g id="Group_3668" data-name="Group 3668" transform="translate(299.308 5225)">
      <g id="Group_3667" data-name="Group 3667" clip-path="url(#clip-path)">
        <path id="Path_1342" data-name="Path 1342" d="M1256.616,97.156S1165.906-51.8,972.056,23.68c0,0-61.5,19.714-82,34.051,0,0-175.961,103.941-317.754,10.752,0,0-231.414-165.291-462.5,17.711L0,215.434,857.6,314h387.8l13.3-13.952Z" transform="translate(0 0)" fill="url(#linear-gradient)"/>
      </g>
    </g>
    <g id="Group_3666" data-name="Group 3666" transform="translate(0 5142.113)">
      <g id="Group_3665" data-name="Group 3665" clip-path="url(#clip-path-2)">
        <path id="Path_1341" data-name="Path 1341" d="M1920,199.366V168.776s-70.158-50.221-207.667-37.294q-2.26.213-4.545.449c-.53.055-1.064.113-1.595.169q-1.583.168-3.176.346-.9.1-1.814.208-1.6.185-3.213.383c-.544.067-1.086.131-1.632.2q-2.351.3-4.725.613c-.362.048-.727.1-1.09.151q-1.9.26-3.817.535c-.6.086-1.2.175-1.808.265q-1.621.239-3.256.49c-.613.094-1.225.187-1.84.284q-1.886.295-3.786.608c-.417.069-.832.134-1.25.2q-2.468.411-4.96.848c-.537.094-1.077.193-1.615.289q-1.776.316-3.564.646-.946.175-1.9.354-1.77.333-3.552.681c-.569.11-1.136.219-1.706.332q-2.571.509-5.164,1.043c-.3.062-.6.127-.9.19q-2.2.458-4.417.938c-.611.132-1.224.268-1.838.4q-1.82.4-3.653.814-.937.211-1.877.426-2.1.481-4.207.981c-.415.1-.827.193-1.242.292q-2.7.645-5.427,1.322c-.505.125-1.014.256-1.521.383q-2.031.509-4.074,1.034l-1.5.389A280.958,280.958,0,0,0,1587.3,159.1l-.406.164-1.733.7-.566.228c-.753.3-1.533.612-2.33.928l-.743.293q-.99.392-2.024.8l-.674.265q-1.3.51-2.673,1.041l-.725.28q-1.128.435-2.3.883l-.78.3q-1.458.557-2.972,1.127l-.694.261q-1.265.476-2.566.96l-.859.32q-1.6.593-3.25,1.2l-.585.213q-1.427.521-2.889,1.048l-.909.327c-1.154.414-2.318.831-3.5,1.249l-.381.134q-1.6.567-3.245,1.137l-.987.342q-3.668,1.27-7.475,2.542l-1,.332q-1.735.577-3.493,1.15l-.405.133q-1.926.627-3.879,1.247l-.995.315q-1.711.541-3.437,1.077l-.613.191q-1.977.61-3.97,1.21l-.976.291q-1.689.5-3.387,1l-.8.233q-2.01.582-4.028,1.15l-.9.252q-1.7.474-3.394.934l-.91.247q-2.026.545-4.054,1.072l-.8.2q-1.718.442-3.432.867l-.977.242q-2.036.5-4.064.975l-.609.14q-1.768.411-3.529.8l-1.015.223q-2.023.442-4.033.856l-.361.073q-1.845.375-3.674.722l-1.013.191q-3.987.744-7.883,1.346l-.988.15q-1.776.265-3.529.5c-.119.016-.238.034-.357.049q-1.9.248-3.758.453c-.312.035-.622.067-.932.1q-1.614.171-3.2.311c-.191.017-.384.036-.573.052q-1.811.15-3.577.253c-.113.007-.229.018-.342.025-5.049.289-10.086.632-15.1,1.16l-.075.008-.475.049-1.211.124-.656.066-1.2.118-.72.069c-.5.048-1.02.1-1.55.144l-.463.043c-.68.062-1.385.124-2.108.187l-.746.063c-.516.044-1.038.088-1.575.132l-.883.072q-.807.065-1.645.129l-.874.067c-.786.06-1.588.119-2.411.177l-.217.015c-.868.061-1.761.122-2.668.182l-.964.062c-.637.041-1.281.082-1.937.122l-1.081.065q-1.027.06-2.085.119l-.979.054q-1.523.083-3.1.16l-.612.029c-.873.042-1.756.083-2.654.122l-1.156.049q-1.134.048-2.292.092l-1.234.046q-1.273.046-2.577.088l-.969.033q-1.77.054-3.589.1l-.963.023q-1.379.033-2.782.061l-1.358.025q-1.291.023-2.6.041l-1.348.018q-1.554.018-3.14.029l-.856.008q-1.8.01-3.633.011h-.708c-.295,0-.6,0-.895,0q-1.473,0-2.965-.012l-1.509-.012q-1.445-.012-2.911-.032l-1.435-.019q-2-.031-4.038-.073l-.328-.006q-2.18-.048-4.4-.112l-1.452-.044q-1.554-.048-3.126-.1l-1.643-.06q-1.606-.06-3.235-.131l-1.44-.06q-2.31-.1-4.651-.225l-.832-.045q-1.963-.105-3.95-.222c-.541-.032-1.086-.067-1.629-.1q-1.647-.1-3.307-.213-.858-.058-1.719-.116-1.8-.126-3.621-.264c-.448-.033-.892-.065-1.342-.1q-2.453-.189-4.936-.4l-1.234-.109q-1.908-.167-3.831-.346-.881-.083-1.766-.169-1.737-.167-3.486-.346c-.584-.06-1.166-.119-1.752-.181q-2.076-.218-4.171-.453c-.341-.038-.679-.073-1.019-.112q-2.577-.294-5.177-.612c-.507-.062-1.016-.129-1.525-.192q-1.883-.235-3.778-.483-.934-.124-1.872-.25-1.824-.245-3.66-.505c-.583-.082-1.165-.163-1.75-.248q-2.487-.36-4.992-.742l-.376-.056q-2.672-.412-5.361-.854c-.569-.093-1.14-.19-1.71-.285q-1.893-.315-3.8-.646-.954-.166-1.909-.335-1.944-.346-3.9-.708c-.549-.1-1.1-.2-1.645-.3q-2.727-.514-5.467-1.057c-.29-.057-.58-.119-.869-.177q-2.328-.467-4.664-.957c-.614-.129-1.228-.262-1.843-.393q-1.906-.408-3.817-.832-.964-.213-1.928-.43-2.076-.468-4.157-.959c-.485-.113-.97-.224-1.455-.339q-2.773-.66-5.552-1.353c-.44-.11-.882-.225-1.323-.337q-2.147-.542-4.3-1.106c-.641-.168-1.284-.34-1.926-.512q-1.924-.514-3.85-1.045c-.631-.175-1.261-.348-1.893-.525q-2.278-.638-4.558-1.3c-.36-.105-.721-.206-1.082-.312q-2.793-.822-5.587-1.683c-.526-.163-1.052-.33-1.578-.494q-2.046-.638-4.09-1.3-.972-.314-1.943-.633c-.543-.178-1.087-.35-1.63-.53-.4-.132-.791-.274-1.188-.408q-13.491-4.519-26.87-10.013a108.667,108.667,0,0,0-10.9-6.163l-.147-.076c-.567-.287-1.162-.584-1.773-.886l-.5-.243q-.69-.339-1.418-.689l-.646-.309c-.49-.233-.994-.47-1.507-.711-.2-.092-.391-.184-.593-.277-.721-.334-1.46-.674-2.227-1.019l-.11-.049c-.722-.324-1.468-.655-2.229-.988l-.735-.319q-.875-.38-1.786-.767c-.279-.119-.561-.238-.845-.358-.66-.277-1.336-.558-2.023-.841l-.654-.27q-1.371-.558-2.809-1.128c-.179-.071-.367-.143-.548-.214q-1.176-.462-2.394-.929c-.321-.122-.646-.246-.972-.368q-1.077-.409-2.192-.821c-.336-.124-.671-.249-1.012-.373q-1.328-.485-2.705-.975l-.563-.2q-1.664-.589-3.4-1.181l-.908-.305q-1.308-.442-2.654-.885l-1.208-.394c-.865-.28-1.745-.562-2.634-.843-.384-.121-.765-.243-1.153-.364-1.256-.392-2.529-.784-3.831-1.175l-.031-.009c-1.31-.392-2.651-.785-4.008-1.175-.408-.117-.823-.234-1.234-.351q-1.47-.417-2.974-.832l-1.427-.391q-1.567-.425-3.175-.846c-.4-.105-.8-.212-1.2-.317q-2.2-.572-4.479-1.135c-.24-.06-.487-.118-.728-.177q-1.927-.473-3.906-.939c-.5-.118-1.012-.235-1.518-.352q-1.664-.384-3.362-.764c-.535-.12-1.07-.239-1.61-.358q-1.923-.422-3.894-.835c-.365-.076-.723-.154-1.09-.231q-2.516-.522-5.1-1.027c-.417-.082-.843-.161-1.263-.241q-1.989-.383-4.02-.758l-1.783-.324q-1.895-.34-3.825-.671c-.577-.1-1.153-.2-1.735-.3q-2.468-.414-4.99-.813l-.618-.1q-2.83-.442-5.739-.861c-.558-.081-1.127-.159-1.69-.238q-2.117-.3-4.272-.587-1.008-.135-2.025-.265-2.16-.279-4.359-.544c-.6-.073-1.2-.148-1.812-.219q-3.082-.363-6.234-.7l-.627-.064q-2.852-.3-5.766-.575c-.681-.064-1.37-.126-2.056-.187q-2.29-.209-4.618-.4-1.11-.092-2.227-.181-2.517-.2-5.082-.38c-.572-.04-1.136-.084-1.711-.122q-3.4-.231-6.881-.429c-.5-.028-1.005-.052-1.5-.079q-2.764-.15-5.573-.279c-.786-.036-1.579-.068-2.37-.1q-2.506-.1-5.049-.191c-.794-.027-1.587-.055-2.386-.079q-3.036-.092-6.126-.156c-.436-.01-.866-.023-1.3-.031q-3.73-.071-7.541-.1c-.7-.006-1.406-.006-2.108-.01q-2.817-.014-5.674-.007-1.323,0-2.656.013-2.773.019-5.586.06c-.819.011-1.634.021-2.459.036q-8,.142-16.309.469c-.849.034-1.707.073-2.561.11q-2.964.127-5.965.278-1.434.073-2.877.15-3.13.169-6.3.368c-.794.049-1.581.095-2.378.146q-4.336.282-8.747.615c-.509.039-1.028.084-1.539.123q-3.673.286-7.4.607c-.98.085-1.967.175-2.952.264q-3.16.284-6.358.6c-1.016.1-2.032.2-3.054.3q-3.627.366-7.307.77c-.679.075-1.35.143-2.031.218q-4.674.523-9.429,1.1c-.8.1-1.613.2-2.416.3q-3.219.4-6.476.833a297.4,297.4,0,0,0-38.038,7.643c-.658.179-1.345.363-2.047.549l-.418.11c-.7.184-1.414.372-2.154.563l-.331.085q-1.032.265-2.116.539l-.376.1c-.783.2-1.589.4-2.412.6l-.522.127c-.835.2-1.685.41-2.56.618l-.072.017c-.887.212-1.8.426-2.729.641l-.588.136c-.927.214-1.87.429-2.836.646l-.405.091q-1.344.3-2.74.606l-.514.112q-1.515.33-3.087.661l-.63.132c-1.044.218-2.1.438-3.184.658l-.144.029c-1.108.225-2.241.451-3.387.677l-.73.144q-1.719.336-3.489.671l-.442.083q-1.648.31-3.344.619l-.66.12q-1.822.33-3.7.658l-.76.131c-1.232.214-2.476.426-3.741.637l-.225.038c-1.314.219-2.652.435-4,.651l-.865.138q-2.023.321-4.1.635l-.477.071q-1.937.291-3.92.577l-.778.113q-2.123.3-4.295.6l-.835.113q-2.1.282-4.236.556l-.368.048c-1.507.192-3.035.38-4.575.565l-.96.114c-1.548.184-3.108.364-4.689.54l-.452.05q-2.224.245-4.493.48l-.9.094q-2.393.245-4.832.476l-.929.087q-2.322.217-4.684.422l-.5.043q-2.52.217-5.089.416l-1.087.083q-2.585.2-5.211.38l-.437.029q-2.488.169-5.016.321l-1.025.062q-2.649.157-5.341.295l-.982.048q-2.539.127-5.116.237l-.619.027q-2.763.115-5.57.206l-1.184.038q-2.838.09-5.715.159l-.36.008q-2.751.062-5.542.1l-1.15.017q-2.879.037-5.8.051c-.344,0-.689,0-1.034,0q-2.729.009-5.49,0l-.763,0q-2.982-.017-6-.063l-1.276-.02q-3.072-.05-6.179-.125l-.229-.006q-3.023-.077-6.084-.184l-1.251-.043q-3.094-.111-6.225-.251l-1.05-.05q-2.909-.135-5.846-.3l-.9-.048q-3.18-.179-6.394-.391l-1.349-.09q-3.287-.222-6.6-.473l-.08-.007q-3.283-.253-6.6-.544l-1.344-.117q-3.288-.291-6.608-.616l-1.065-.107q-3.075-.306-6.175-.643l-1.016-.11q-3.361-.371-6.754-.779l-1.4-.17q-6.944-.849-14.007-1.857l-1.428-.2q-3.467-.5-6.959-1.043l-1.04-.164q-3.231-.508-6.484-1.049l-1.134-.187q-3.518-.592-7.063-1.228l-1.452-.262q-3.586-.65-7.2-1.338l-.1-.02q-3.649-.7-7.327-1.453l-1.514-.308q-3.621-.745-7.264-1.532c-.332-.072-.665-.147-1-.219q-3.375-.737-6.771-1.515c-.413-.094-.826-.187-1.239-.282q-3.657-.844-7.338-1.736-.74-.179-1.48-.362-3.643-.89-7.3-1.824l-.316-.079q-3.77-.967-7.565-1.991-.789-.211-1.577-.425-3.758-1.017-7.532-2.084c-.313-.088-.627-.181-.941-.269q-3.509-1-7.035-2.044c-.444-.132-.887-.261-1.331-.393q-3.774-1.125-7.568-2.3l-1.5-.47q-3.691-1.157-7.4-2.359c-.163-.054-.326-.105-.49-.158q-3.87-1.262-7.759-2.585l-1.645-.559q-3.869-1.322-7.754-2.7c-.077-.027-.153-.052-.23-.08-.112-.039-.222-.082-.335-.122q-16.023-5.7-32.312-12.393s-6.619-3.975-18.343-10.342l-.09-.049-1.523-.824-.233-.126-1.519-.818-.275-.147q-.744-.4-1.512-.809l-.372-.2c-.5-.267-1.009-.538-1.522-.81l-.407-.216-1.543-.816-.466-.245c-.51-.269-1.03-.542-1.552-.816l-.512-.268-1.577-.823-.56-.292-1.559-.809-.652-.337c-.515-.266-1.037-.535-1.562-.8l-.692-.356-1.6-.819-.713-.364-1.63-.828-.757-.385c-.533-.27-1.073-.541-1.614-.814l-.833-.42-1.618-.81-.892-.445-1.613-.8-.944-.468-1.634-.807-.972-.478-1.665-.816-1-.49-1.669-.811-1.057-.513-1.7-.819c-.355-.171-.709-.342-1.067-.513q-.854-.411-1.718-.823l-1.11-.528q-.869-.414-1.749-.83l-1.128-.534-1.758-.826q-.582-.273-1.169-.547-.886-.415-1.782-.832l-1.2-.559-1.783-.823-1.242-.572q-.9-.413-1.8-.826l-1.277-.582q-.906-.413-1.819-.826l-1.283-.579-1.854-.833q-.658-.3-1.324-.592-.924-.413-1.857-.826l-1.351-.6q-.926-.409-1.86-.82l-1.4-.614-1.877-.819-1.411-.612q-.945-.409-1.9-.819l-1.445-.62-1.9-.81-1.488-.631-1.9-.8-1.522-.639-1.909-.8q-.765-.319-1.534-.636-.972-.4-1.948-.8l-1.534-.628q-.981-.4-1.966-.8-.785-.32-1.574-.637l-1.963-.79-1.589-.634q-1-.4-2-.795l-1.6-.63q-1-.392-2-.784-.817-.32-1.64-.638-1-.389-2.006-.776-.826-.319-1.657-.636-1-.384-2.012-.768l-1.679-.634q-1.016-.383-2.034-.765c-.563-.211-1.129-.421-1.694-.631l-2.032-.753-1.723-.631q-1.023-.375-2.05-.748l-1.723-.622q-1.032-.372-2.067-.742l-1.745-.621q-1.035-.366-2.074-.732-.878-.31-1.761-.615-1.041-.363-2.085-.724-.884-.306-1.773-.609-1.048-.358-2.1-.717l-1.787-.6q-1.047-.353-2.1-.7-.914-.3-1.831-.606-1.039-.344-2.083-.686-.918-.3-1.839-.6-1.052-.34-2.1-.68-.924-.3-1.851-.588-1.05-.333-2.1-.665c-.622-.2-1.247-.389-1.87-.582q-1.058-.329-2.116-.655-.929-.285-1.861-.567-1.068-.324-2.137-.647-.936-.281-1.874-.559-1.069-.318-2.141-.634-.948-.279-1.9-.552-1.063-.31-2.127-.615c-.638-.184-1.278-.364-1.917-.544q-1.068-.3-2.139-.6c-.638-.178-1.278-.354-1.918-.531-.712-.2-1.424-.394-2.137-.587q-.974-.264-1.948-.524-1.065-.287-2.133-.571c-.646-.171-1.294-.339-1.941-.508q-1.075-.281-2.151-.559c-.651-.167-1.3-.331-1.955-.5-.714-.181-1.426-.362-2.14-.54-.656-.164-1.312-.324-1.969-.485-.717-.176-1.434-.354-2.152-.527q-.979-.236-1.96-.466c-.718-.171-1.436-.342-2.156-.51-.664-.155-1.33-.306-1.994-.459-.713-.163-1.425-.328-2.138-.489-.664-.149-1.329-.294-1.994-.442C112.963-2.9,50.824-5.791,0,15.9V718.887H1920Z" transform="translate(0 0)" fill="url(#linear-gradient-2)"/>
      </g>
    </g>
  </g>
</svg>
