<svg xmlns="http://www.w3.org/2000/svg" viewBox="0 0 28.48 24.77"><defs><style>.cls-1{opacity:0.14;}.cls-2{fill:#ed4824;}.cls-3{fill:#1b4e9c;}</style></defs><g id="Layer_2" data-name="Layer 2"><g id="Layer_1-2" data-name="Layer 1"><g class="cls-1"><path class="cls-2" d="M19.47,2.24a12.29,12.29,0,1,1-1-.64c.28.16.56.33.83.51l-.25.14c-1.07.52-2.14,1-3.23,1.53a.86.86,0,0,1-.57,0,9,9,0,1,0,6.06,9.8,8.75,8.75,0,0,0-1.95-7,.84.84,0,0,1-.19-.51C19.25,4.85,19.37,3.56,19.47,2.24Z"/><path class="cls-2" d="M17.94,12.34a5.54,5.54,0,1,1-5.55-5.52h0a5.52,5.52,0,0,1,5.55,5.49ZM12.4,14.61a2.26,2.26,0,0,0,.21-4.51H12.4a2.26,2.26,0,1,0-.21,4.51Z"/></g><path class="cls-3" d="M25.93,9.26a.31.31,0,1,0,.32.31A.31.31,0,0,0,25.93,9.26Z"/><circle class="cls-3" cx="7.08" cy="3.07" r="0.31"/><path class="cls-3" d="M14,23.52a.15.15,0,1,0,.15.15A.15.15,0,0,0,14,23.52Z"/><path class="cls-3" d="M7.74,3.07a.66.66,0,1,0-.66.66A.66.66,0,0,0,7.74,3.07Zm-.66.31a.31.31,0,1,1,0-.62.31.31,0,0,1,0,.62Z"/><path class="cls-3" d="M25.93,8.91a.66.66,0,1,0,.66.66A.66.66,0,0,0,25.93,8.91Zm0,1a.31.31,0,1,1,.32-.31A.31.31,0,0,1,25.93,9.88Z"/><path class="cls-3" d="M14,23.17a.5.5,0,0,0-.5.5.51.51,0,0,0,.5.5.5.5,0,0,0,.5-.5A.5.5,0,0,0,14,23.17Zm0,.65a.15.15,0,1,1,.15-.15A.15.15,0,0,1,14,23.82Z"/><path class="cls-3" d="M6.07,17.66a.18.18,0,0,0-.25,0l-.26.26.25.25.26-.26A.18.18,0,0,0,6.07,17.66Z"/><path class="cls-3" d="M5.06,18.43a.16.16,0,0,0,0,.24.13.13,0,0,0,.12,0,.15.15,0,0,0,.12,0l.26-.26-.24-.24Z"/><path class="cls-3" d="M5.3,17.66a.16.16,0,0,0-.24,0,.18.18,0,0,0,0,.25l.26.26.24.24.26.26a.16.16,0,0,0,.12,0,.17.17,0,0,0,.13,0,.16.16,0,0,0,0-.24l-.26-.26-.25-.25Z"/><path class="cls-3" d="M24,1.5a.18.18,0,0,0,0,.25.21.21,0,0,0,.13.05.21.21,0,0,0,.12-.05l.26-.26-.25-.25Z"/><path class="cls-3" d="M25,1a.16.16,0,0,0,0-.24.16.16,0,0,0-.24,0L24.54,1l.24.24Z"/><path class="cls-3" d="M25,1.5l-.26-.26L24.54,1,24.28.74a.18.18,0,0,0-.25,0A.16.16,0,0,0,24,1l.26.26.25.25.26.26a.18.18,0,0,0,.12.05A.17.17,0,0,0,25,1.75.18.18,0,0,0,25,1.5Z"/><path class="cls-3" d="M25.05,22.51a.16.16,0,0,0,0,.24.13.13,0,0,0,.12.05.15.15,0,0,0,.12-.05l.26-.26-.24-.24Z"/><path class="cls-3" d="M26.06,21.74a.18.18,0,0,0-.25,0l-.26.26.25.25.26-.26A.2.2,0,0,0,26.06,21.74Z"/><path class="cls-3" d="M25.29,21.74a.16.16,0,0,0-.24,0,.18.18,0,0,0,0,.25l.26.26.24.24.26.26a.16.16,0,0,0,.12.05.17.17,0,0,0,.13-.05.18.18,0,0,0,0-.24l-.26-.26L25.55,22Z"/><path class="cls-3" d="M27.64,16.48a.18.18,0,0,0,0,.25.18.18,0,0,0,.12.05.17.17,0,0,0,.12-.05l.16-.15-.25-.25Z"/><path class="cls-3" d="M28.43,16.18a.18.18,0,0,0,0-.25.18.18,0,0,0-.24,0l-.15.16.24.24Z"/><path class="cls-3" d="M28.28,16.33,28,16.09l-.16-.16a.18.18,0,0,0-.24,0,.18.18,0,0,0,0,.25l.15.15.25.25.15.15a.17.17,0,0,0,.24,0,.18.18,0,0,0,0-.25Z"/><path class="cls-3" d="M8.35,11.13a.16.16,0,0,0-.24,0L8,11.28l.24.25.15-.16A.16.16,0,0,0,8.35,11.13Z"/><path class="cls-3" d="M7.56,11.68a.16.16,0,0,0,0,.24.15.15,0,0,0,.12.05.17.17,0,0,0,.13-.05L8,11.77l-.25-.24Z"/><path class="cls-3" d="M7.81,11.13a.18.18,0,0,0-.25,0,.16.16,0,0,0,0,.24l.15.16.25.24.15.15a.15.15,0,0,0,.12.05.13.13,0,0,0,.12-.05.16.16,0,0,0,0-.24l-.15-.15L8,11.28Z"/><rect class="cls-3" x="11.55" y="20.17" width="0.12" height="0.24"/><rect class="cls-3" x="15.14" y="18.89" width="0.12" height="1.51"/><rect class="cls-3" x="12.74" y="19.82" width="0.12" height="0.58"/><rect class="cls-3" x="13.94" y="19.36" width="0.12" height="1.05"/><rect class="cls-3" x="16.33" y="17.82" width="0.12" height="2.58"/><path class="cls-3" d="M18.88,21.69H9.66v-18H13V3.38H9.49a.18.18,0,0,0-.18.17V21.86a.19.19,0,0,0,0,.13.21.21,0,0,0,.13.05h9.86A3.19,3.19,0,0,1,18.88,21.69Z"/><path class="cls-3" d="M19.85,3.73H23.2V16.59c.12.1.23.21.34.32V3.55a.17.17,0,0,0-.17-.17H19.85Z"/><path class="cls-3" d="M21.48,11.22H11.37a.17.17,0,0,0-.17.17v.82a.18.18,0,0,0,.17.18H21.48a.17.17,0,0,0,.17-.18v-.82A.16.16,0,0,0,21.48,11.22Zm-.17.82H11.55v-.48h9.76Z"/><path class="cls-3" d="M21.48,13H11.37a.18.18,0,0,0-.17.18V14a.18.18,0,0,0,.17.17H21.48a.17.17,0,0,0,.17-.17v-.82A.17.17,0,0,0,21.48,13Zm-.17.83H11.55v-.48h9.76Z"/><path class="cls-3" d="M23.2,16.59a3.34,3.34,0,0,0-4.32,5.1,3.19,3.19,0,0,0,.47.35,3.35,3.35,0,0,0,5.09-2.85,3.33,3.33,0,0,0-.9-2.28C23.43,16.8,23.32,16.69,23.2,16.59Zm-5.1,2.6a3,3,0,1,1,3,3A3,3,0,0,1,18.1,19.19Z"/><path class="cls-3" d="M20.35,20.54a.56.56,0,0,0,.8,0l2-2a.17.17,0,0,0,0-.24l-.55-.55a.16.16,0,0,0-.24,0l-1.64,1.64-.94-.95a.18.18,0,0,0-.25,0L19,19a.17.17,0,0,0-.05.12.18.18,0,0,0,.05.12Zm-.67-1.76.95.94a.16.16,0,0,0,.24,0l1.64-1.63.3.3L20.9,20.3a.22.22,0,0,1-.3,0l-1.22-1.22Z"/><path class="cls-3" d="M13,3.73v.42a.17.17,0,0,0,.17.17h6.49a.17.17,0,0,0,.18-.17V3a.18.18,0,0,0-.18-.18H13.18A.18.18,0,0,0,13,3v.77Zm6.49-.6V4H13.36V3.13Z"/><path class="cls-3" d="M13.17,10.23a2.15,2.15,0,0,0,2.14-2H15a1.81,1.81,0,0,1-3.61-.17,1.83,1.83,0,0,1,.41-1.15l-.13-.13a.18.18,0,0,1,0-.24,2.15,2.15,0,0,0,1.53,3.67Z"/><path class="cls-3" d="M11.89,6.55l.13.14a1.73,1.73,0,0,1,1-.41V5.93a2.13,2.13,0,0,0-1.34.62A.18.18,0,0,1,11.89,6.55Z"/><path class="cls-3" d="M13,6.28V7.66l.3.3a.16.16,0,0,1,0,.24.15.15,0,0,1-.12.05h2.6a.17.17,0,0,0,.17-.17A2.78,2.78,0,0,0,13.17,5.3a.18.18,0,0,0-.18.17v.81Zm2.16,1.63H13.34V5.65a2.44,2.44,0,0,1,2.25,2.26Z"/><path class="cls-3" d="M13.1,8.24,13,8.2h0Z"/><path class="cls-3" d="M13.1,8.24h0Z"/><path class="cls-3" d="M11.64,6.8l.13.13L13,8.2h0l.06,0h.07a.15.15,0,0,0,.12-.05.16.16,0,0,0,0-.24l-.3-.3-1-1-.13-.14a.18.18,0,0,0-.24,0h0A.18.18,0,0,0,11.64,6.8Z"/><path class="cls-3" d="M21.48,6.27H16.85a.18.18,0,0,0-.17.18v.82a.17.17,0,0,0,.17.17h4.63a.16.16,0,0,0,.17-.17V6.45A.17.17,0,0,0,21.48,6.27Zm-.17.83H17V6.62h4.28Z"/><path class="cls-3" d="M21.48,8.09H16.85a.18.18,0,0,0-.17.17v.83a.18.18,0,0,0,.17.17h4.63a.17.17,0,0,0,.17-.17V8.26A.17.17,0,0,0,21.48,8.09Zm-.17.82H17V8.44h4.28Z"/><path class="cls-3" d="M11.84,19.82h-.47a.18.18,0,0,0-.17.17v.59a.18.18,0,0,0,.17.17h.47a.18.18,0,0,0,.18-.17V20A.18.18,0,0,0,11.84,19.82Zm-.17.58h-.12v-.23h.12Z"/><path class="cls-3" d="M13,19.47h-.47a.17.17,0,0,0-.17.17v.94a.17.17,0,0,0,.17.17H13a.18.18,0,0,0,.17-.17v-.94A.18.18,0,0,0,13,19.47Zm-.17.93h-.13v-.58h.13Z"/><path class="cls-3" d="M14.24,19h-.47a.18.18,0,0,0-.18.17v1.4a.18.18,0,0,0,.18.17h.47a.18.18,0,0,0,.17-.17v-1.4A.18.18,0,0,0,14.24,19Zm-.18,1.39h-.12v-1h.12Z"/><path class="cls-3" d="M15.43,18.55H15a.17.17,0,0,0-.17.17v1.86a.18.18,0,0,0,.17.17h.47a.18.18,0,0,0,.18-.17V18.72A.17.17,0,0,0,15.43,18.55Zm-.17,1.85h-.12V18.89h.12Z"/><path class="cls-3" d="M16.63,17.48h-.47a.16.16,0,0,0-.17.17v2.93a.17.17,0,0,0,.17.17h.47a.18.18,0,0,0,.17-.17V17.65A.17.17,0,0,0,16.63,17.48Zm-.18,2.92h-.12V17.82h.12Z"/><path class="cls-3" d="M16.63,16.16Z"/><path class="cls-3" d="M16.18,16.51a8.91,8.91,0,0,1-4.82,2.31.18.18,0,0,0-.16.18.18.18,0,0,0,.17.17h0a9.14,9.14,0,0,0,5.07-2.44v-.22Z"/><polygon class="cls-3" points="16.75 16.21 16.75 16.21 16.75 16.21 16.75 16.21"/><path class="cls-3" d="M16.7,16.17Z"/><path class="cls-3" d="M16.79,16.27Z"/><path class="cls-3" d="M16.79,16.27a.21.21,0,0,0,0-.06h0l-.05,0H16a.18.18,0,0,0-.17.17.18.18,0,0,0,.17.18h.48V17a.18.18,0,0,0,.18.17A.18.18,0,0,0,16.8,17v-.66a.13.13,0,0,0,0-.06Z"/><path class="cls-3" d="M15.14,15.23a.18.18,0,0,0-.18-.17H11.37a.18.18,0,0,0-.17.17.18.18,0,0,0,.17.18H15A.18.18,0,0,0,15.14,15.23Z"/><path class="cls-3" d="M11.37,16.26h1.52a.18.18,0,0,0,.17-.17.17.17,0,0,0-.17-.17H11.37a.17.17,0,0,0-.17.17A.18.18,0,0,0,11.37,16.26Z"/><path class="cls-3" d="M11.37,17.12H13.7a.18.18,0,0,0,.17-.18.18.18,0,0,0-.17-.17H11.37a.18.18,0,0,0-.17.17A.18.18,0,0,0,11.37,17.12Z"/><path class="cls-3" d="M19.17,15.06H16a.18.18,0,0,0-.17.17.18.18,0,0,0,.17.18h3.2a.18.18,0,0,0,.17-.18A.18.18,0,0,0,19.17,15.06Z"/></g></g></svg>