<svg xmlns="http://www.w3.org/2000/svg" viewBox="0 0 26.99 24.77"><defs><style>.cls-1{opacity:0.14;}.cls-2{fill:#ed4824;}.cls-3{fill:#1b4e9c;}</style></defs><g id="Layer_2" data-name="Layer 2"><g id="Layer_1-2" data-name="Layer 1"><g class="cls-1"><path class="cls-2" d="M19.47,2.24a12.29,12.29,0,1,1-1-.64c.28.16.56.33.83.51l-.25.14c-1.07.52-2.14,1-3.23,1.53a.86.86,0,0,1-.57,0,9,9,0,1,0,6.06,9.8,8.75,8.75,0,0,0-1.95-7,.84.84,0,0,1-.19-.51C19.25,4.85,19.37,3.56,19.47,2.24Z"/><path class="cls-2" d="M17.94,12.34a5.54,5.54,0,1,1-5.55-5.52h0a5.52,5.52,0,0,1,5.55,5.49ZM12.4,14.61a2.26,2.26,0,0,0,.21-4.51H12.4a2.26,2.26,0,1,0-.21,4.51Z"/></g><path class="cls-3" d="M9.64,6.69a3,3,0,0,1,3.08,2.84A3,3,0,0,1,9.8,12.64a2.92,2.92,0,0,1-3-2.71A3,3,0,0,1,9.64,6.69Zm-1.95,3a2.06,2.06,0,1,0,2-2.08A2,2,0,0,0,7.69,9.69Z"/><path class="cls-3" d="M24.25,15c-.1.13-.18.32-.3.36a.67.67,0,0,1-.52-.09c-.35-.26-.65-.59-1-.87a7.78,7.78,0,0,0-10.78.46l-.42.4a.46.46,0,0,1-.69,0,.44.44,0,0,1,.06-.68,16.92,16.92,0,0,1,1.57-1.37,8.42,8.42,0,0,1,8.66-1A10.09,10.09,0,0,1,24,14.6,2.47,2.47,0,0,1,24.25,15Z"/><path class="cls-3" d="M18,7.38a12.3,12.3,0,0,1,5.52,1.48A13.53,13.53,0,0,1,26.8,11.4c.2.21.28.45,0,.68s-.47.15-.71-.05a27.85,27.85,0,0,0-2.39-1.95,10,10,0,0,0-4.67-1.67,12.08,12.08,0,0,0-4.75.29c-.27.08-.55.09-.66-.26s.05-.51.41-.62A13.53,13.53,0,0,1,18,7.38Z"/><path class="cls-3" d="M17.22,15.66a5.83,5.83,0,0,1,4.3,1.94.45.45,0,0,1,0,.69c-.23.21-.48.11-.68-.09a5.76,5.76,0,0,0-2.08-1.37A4.47,4.47,0,0,0,14.06,18l-.29.26c-.21.19-.45.28-.68,0s-.15-.5.07-.71.47-.44.72-.64A5.29,5.29,0,0,1,17.22,15.66Z"/><path class="cls-3" d="M17.33,20a1.84,1.84,0,0,1,0,3.67,1.84,1.84,0,0,1,0-3.67Zm.9,1.84a.89.89,0,0,0-.9-.91.91.91,0,1,0,0,1.81A.91.91,0,0,0,18.23,21.86Z"/><path class="cls-3" d="M9.73,9c.61-.52.8-.6,1-.34.4.48-.13.72-.33,1,.49.56.56.76.33,1s-.44.18-1-.33c-.32.15-.55.82-1,.3s.11-.68.35-1c-.22-.32-.74-.61-.31-1S9.43,8.76,9.73,9Z"/></g></g></svg>