<svg xmlns="http://www.w3.org/2000/svg" viewBox="0 0 25.69 24.77"><defs><style>.cls-1{opacity:0.14;}.cls-2{fill:#ed4824;}.cls-3{fill:#fff;}.cls-4{fill:#1c4f9c;}</style></defs><g id="Layer_2" data-name="Layer 2"><g id="Layer_1-2" data-name="Layer 1"><g class="cls-1"><path class="cls-2" d="M19.47,2.24a12.29,12.29,0,1,1-1-.64c.28.16.56.33.83.51l-.25.14c-1.07.52-2.14,1-3.23,1.53a.86.86,0,0,1-.57,0,9,9,0,1,0,6.06,9.8,8.75,8.75,0,0,0-1.95-7,.84.84,0,0,1-.19-.51C19.25,4.85,19.37,3.56,19.47,2.24Z"/><path class="cls-2" d="M17.94,12.34a5.54,5.54,0,1,1-5.55-5.52h0a5.52,5.52,0,0,1,5.55,5.49ZM12.4,14.61a2.26,2.26,0,0,0,.21-4.51H12.4a2.26,2.26,0,1,0-.21,4.51Z"/></g><path class="cls-3" d="M25.31,14.51V4.13a.49.49,0,0,0-.49-.49H8a.49.49,0,0,0-.49.49V14.51Z"/><path class="cls-4" d="M25.68,14.89H7.18V4.13A.86.86,0,0,1,8,3.26H24.82a.86.86,0,0,1,.86.87ZM7.93,14.13h17v-10A.11.11,0,0,0,24.82,4H8a.11.11,0,0,0-.11.11Z"/><rect class="cls-4" x="8.94" y="5.05" width="14.96" height="8.04"/><path class="cls-3" d="M7.55,14.5V16a.66.66,0,0,0,.59.6H24.85a.52.52,0,0,0,.46-.58V14.5Z"/><path class="cls-4" d="M24.85,17H8.14a1,1,0,0,1-1-1V14.12H25.69V16A.9.9,0,0,1,24.85,17ZM7.93,14.88V16a.31.31,0,0,0,.21.23H24.85s.08-.09.08-.21V14.88Z"/><path class="cls-3" d="M14.46,16.62c0,.37,0,1.2-.05,1.6s-.12.38-.32.49l-.45.22h0"/><path class="cls-4" d="M13.79,19.27l-.3-.69a3.46,3.46,0,0,0,.42-.2h0l.06,0a1.7,1.7,0,0,0,0-.19,5.25,5.25,0,0,0,0-.93c0-.24,0-.47,0-.63l.75.06c0,.13,0,.33,0,.56a6,6,0,0,1-.05,1.08.87.87,0,0,1-.48.74h0C14.14,19.11,13.94,19.21,13.79,19.27Z"/><path class="cls-3" d="M19.21,18.93l-.46-.22c-.2-.11-.24-.12-.31-.49s0-1.21,0-1.58"/><path class="cls-4" d="M19.06,19.27c-.15-.06-.36-.16-.49-.23h0c-.31-.17-.39-.3-.48-.74a5.94,5.94,0,0,1,0-1.07c0-.22,0-.43,0-.55l.75-.06a6,6,0,0,1,0,.62,6.44,6.44,0,0,0,0,.92.86.86,0,0,0,.05.19l.06,0,.44.2Z"/><line class="cls-3" x1="13.15" y1="18.9" x2="19.72" y2="18.9"/><rect class="cls-4" x="13.15" y="18.52" width="6.57" height="0.75"/><rect class="cls-3" x="16.61" y="11.51" width="6.92" height="9.75" rx="0.37"/><path class="cls-4" d="M23.17,21.64H17a.74.74,0,0,1-.74-.74v-9a.74.74,0,0,1,.74-.74h6.19a.74.74,0,0,1,.74.74v9A.74.74,0,0,1,23.17,21.64Zm0-.75v0Zm0-9H17v9h6.17Z"/><rect class="cls-3" x="21.6" y="14.01" width="3.71" height="7.3" rx="0.23"/><path class="cls-4" d="M25.08,21.69H21.83a.62.62,0,0,1-.61-.61V14.24a.61.61,0,0,1,.61-.61h3.25a.61.61,0,0,1,.61.61v6.84A.62.62,0,0,1,25.08,21.69ZM22,20.93h2.95V14.38H22Z"/><rect class="cls-4" x="21.87" y="19.55" width="3.42" height="0.75"/><polygon class="cls-3" points="18.72 8.26 18.72 6.84 17.3 6.84 17.3 6.09 19.47 6.09 19.47 8.26 18.72 8.26"/><rect class="cls-3" x="16.66" y="7.28" width="2.49" height="0.75" transform="translate(-0.17 14.9) rotate(-45)"/><polygon class="cls-3" points="15.83 11.89 13.66 11.89 13.66 9.72 14.41 9.72 14.41 11.14 15.83 11.14 15.83 11.89"/><rect class="cls-3" x="13.98" y="9.95" width="2.49" height="0.75" transform="translate(-2.84 13.79) rotate(-45)"/></g></g></svg>