<svg xmlns="http://www.w3.org/2000/svg" viewBox="0 0 26.49 24.77"><defs><style>.cls-1{opacity:0.14;}.cls-2{fill:#ed4824;}.cls-3{fill:none;stroke:#4070b7;stroke-miterlimit:10;}</style></defs><g id="Layer_2" data-name="Layer 2"><g id="Layer_1-2" data-name="Layer 1"><g class="cls-1"><path class="cls-2" d="M19.47,2.24a12.29,12.29,0,1,1-1-.64c.28.16.56.33.83.51l-.25.14c-1.07.52-2.14,1-3.23,1.53a.86.86,0,0,1-.57,0,9,9,0,1,0,6.06,9.8,8.75,8.75,0,0,0-1.95-7,.84.84,0,0,1-.19-.51C19.25,4.85,19.37,3.56,19.47,2.24Z"/><path class="cls-2" d="M17.94,12.34a5.54,5.54,0,1,1-5.55-5.52h0a5.52,5.52,0,0,1,5.55,5.49ZM12.4,14.61a2.26,2.26,0,0,0,.21-4.51H12.4a2.26,2.26,0,1,0-.21,4.51Z"/></g><path class="cls-3" d="M20.94,8.59a5.3,5.3,0,0,0-1.39.2c0-.06,0-.13,0-.2a4.58,4.58,0,0,0-9.09-.84,5.5,5.5,0,0,0,.83,10.94h9.63a5.05,5.05,0,0,0,0-10.1Z"/></g></g></svg>