<svg xmlns="http://www.w3.org/2000/svg" viewBox="0 0 24.58 24.58"><defs><style>.cls-1{opacity:0.14;}.cls-2{fill:#ed4824;}.cls-3{fill:#1b4e9c;}</style></defs><g id="Layer_2" data-name="Layer 2"><g id="Layer_1-2" data-name="Layer 1"><g class="cls-1"><path class="cls-2" d="M19.41,2.27a12.29,12.29,0,1,1-1-.64c.28.16.56.33.83.51L19,2.28c-1.07.52-2.14,1-3.23,1.53a.8.8,0,0,1-.57,0A9,9,0,1,0,20.87,15.2,9,9,0,0,0,19.3,6.61a.78.78,0,0,1-.19-.51C19.19,4.88,19.31,3.59,19.41,2.27Z"/><path class="cls-2" d="M17.88,12.37a5.54,5.54,0,1,1-5.56-5.52h0a5.52,5.52,0,0,1,5.55,5.49h0Zm-5.54,2.27a2.26,2.26,0,0,0,.21-4.51h-.21a2.26,2.26,0,0,0-.43,4.5h.43Z"/></g><path class="cls-3" d="M4.54,11.36a6.49,6.49,0,0,1-.86-4.63A6.33,6.33,0,0,1,5.43,3.37a6.39,6.39,0,0,1,4-1.94,6.48,6.48,0,0,1,4.33,1.06c0-.16,0-.3,0-.44a1.17,1.17,0,0,1,1.15-1c2.83,0,5.65,0,8.48,0A1.16,1.16,0,0,1,24.58,2.2V14.47a1.16,1.16,0,0,1-1.15,1.16h-3a.27.27,0,0,0-.21.09c-.68.69-1.37,1.37-2.05,2a.46.46,0,0,1-.44.15.41.41,0,0,1-.31-.42c0-.58,0-1.15,0-1.73,0-.11,0-.14-.14-.14h-.63c-.11,0-.15,0-.14.14v3.61a1.18,1.18,0,0,1-1.23,1.23H12.06c-.11,0-.14,0-.14.14,0,.56,0,1.12,0,1.68a.43.43,0,0,1-.27.45.42.42,0,0,1-.5-.16c-.6-.67-1.19-1.35-1.78-2a.27.27,0,0,0-.2-.09H4.59a1.18,1.18,0,0,1-1.19-1,1.48,1.48,0,0,1,0-.21V12.61a1.18,1.18,0,0,1,1.07-1.24Zm1.79,3.1.13-.08c.46-.32.93-.63,1.38-1a.52.52,0,0,1,.51-.08,5.37,5.37,0,0,0,2.89.17,5.62,5.62,0,0,0,4.44-4.23c0-.07,0-.12.13-.11-.09,0-.09,0-.08-.12a5.66,5.66,0,0,0,0-2.39A5.72,5.72,0,1,0,5,10.5,5.93,5.93,0,0,0,6.5,12.35a.42.42,0,0,1,.18.47c-.07.31-.13.61-.19.92Zm11.89,2.06.11-.1L19.75,15a.6.6,0,0,1,.47-.2H23.3c.34,0,.46-.11.46-.46q0-6,0-12a.66.66,0,0,0,0-.14.33.33,0,0,0-.3-.32H15a.34.34,0,0,0-.35.37c0,.27,0,.53,0,.8a.31.31,0,0,0,.09.22,6.4,6.4,0,0,1,1.86,5.92,6.29,6.29,0,0,1-1.86,3.43.3.3,0,0,0-.09.21q0,.93,0,1.86c0,.13,0,.15.16.15h3c.33,0,.48.15.48.49Zm-4.44-3.15s-.07,0-.1,0a6.46,6.46,0,0,1-5.36.79.21.21,0,0,0-.2,0l-.7.48c-.06,0-.17,0-.18.07s-.13.13-.2.18l-1,.72a.43.43,0,0,1-.52,0,.45.45,0,0,1-.16-.5c.16-.72.31-1.45.47-2.18a.26.26,0,0,0-.11-.33.9.9,0,0,1-.2-.19.78.78,0,0,0-.82-.34c-.32,0-.44.12-.44.45v6.83a.34.34,0,0,0,.27.3.65.65,0,0,0,.2,0H9.41a.54.54,0,0,1,.44.2L11,21.33s0,.05.07,0V20.3c0-.36.14-.51.5-.51h3.71a.35.35,0,0,0,.36-.38V15.74c0-.09,0-.11-.11-.11h-1.3a.42.42,0,0,1-.48-.48V13.37Z"/><path class="cls-3" d="M9.1,10.22A4.2,4.2,0,0,1,7.63,10,1.67,1.67,0,0,1,6.49,8.64a2.64,2.64,0,0,1,.25-1.56c0-.08.09-.06.14,0s.14,0,.1.13a2,2,0,0,0-.11,1A1.22,1.22,0,0,0,7.45,9a2.56,2.56,0,0,0,1.22.4,7.48,7.48,0,0,0,3-.34c.3-.1.3-.11.2-.41a7.16,7.16,0,0,0-.44-1,.17.17,0,0,1,0-.18,5.27,5.27,0,0,1,.31-.46c0-.06.08-.09.12,0a4,4,0,0,1,.5,1.43,1.54,1.54,0,0,1-.26,1,.24.24,0,0,1-.13.09,6.3,6.3,0,0,1-1.46.44A7.27,7.27,0,0,1,9.1,10.22Z"/><path class="cls-3" d="M10,11.09a.13.13,0,0,1,0,.06,2.37,2.37,0,0,1-.35.42s-.07,0-.12,0l-.53-.46s0-.06,0-.11l.35-.44s.06-.05.1,0a5.39,5.39,0,0,1,.56.5Z"/><path class="cls-3" d="M21.78,11.08H21c-.08,0-.08-.05-.1-.09l-.51-1.32a.14.14,0,0,0-.16-.11H18.09a.15.15,0,0,0-.17.12c-.16.43-.33.86-.49,1.3a.13.13,0,0,1-.16.1h-.69c.09-.23.17-.44.26-.65L18.7,5.76a.15.15,0,0,1,.18-.12c.2,0,.41,0,.62,0s.13,0,.16.11c.65,1.64,1.31,3.29,2,4.93ZM19.17,6.44l0,0c-.29.77-.58,1.53-.88,2.3,0,.08,0,.08.07.08H20c.1,0,.1,0,.07-.1-.19-.48-.37-1-.56-1.42Z"/><path class="cls-3" d="M11.11,17.17H9.85c-.07,0-.09,0-.11.09a5.5,5.5,0,0,1-.52,1,5,5,0,0,1-.49.65c-.05.05-.09.08-.16,0a.42.42,0,0,0-.14-.09c-.17-.08-.17-.08,0-.21a5,5,0,0,0,1.13-1.74c.06-.17.11-.34.16-.52s0-.11-.1-.11c-.33,0-.65,0-1,0-.08,0-.12,0-.11-.09s0-.05,0-.08c0-.28,0-.28.29-.27s.58,0,.86,0c.1,0,.14,0,.14-.13s0-.33,0-.5,0-.12.12-.11l.36,0c.05,0,.1,0,.06.08a.64.64,0,0,0-.11.4.08.08,0,0,1,0,0c0,.21,0,.21.19.21.58,0,1.16,0,1.74-.05.09,0,.13,0,.12.12s0,.25,0,.32-.2,0-.3,0c-.59,0-1.17,0-1.76,0-.06,0-.08,0-.1.08s-.08.29-.13.44,0,.06.07.06h.59a8.69,8.69,0,0,0,1,0,4.26,4.26,0,0,1-.69,1.69c-.06.08,0,.1,0,.14a3,3,0,0,0,1.31.33,1.57,1.57,0,0,0-.23.49c0,.06-.08,0-.11,0a4.19,4.19,0,0,1-1.26-.56.1.1,0,0,0-.16,0,3.33,3.33,0,0,1-1.16.65c-.11,0-.2,0-.24-.1a.6.6,0,0,0-.06-.11c-.09-.15-.08-.16.1-.2a3.1,3.1,0,0,0,1.1-.52c.08-.06.08-.09,0-.16a3.07,3.07,0,0,1-.47-.85c0-.07,0-.11,0-.12h0c.23-.1.22-.1.31.14a2.08,2.08,0,0,0,.33.6c0,.06.06.07.1,0A3.12,3.12,0,0,0,11.11,17.17Z"/></g></g></svg>