<svg xmlns="http://www.w3.org/2000/svg" viewBox="0 0 25.48 24.77"><defs><style>.cls-1{opacity:0.14;}.cls-2{fill:#ed4824;}.cls-3{fill:#1b4e9c;}</style></defs><g id="Layer_2" data-name="Layer 2"><g id="Layer_1-2" data-name="Layer 1"><g class="cls-1"><path class="cls-2" d="M19.47,2.24a12.29,12.29,0,1,1-1-.64c.28.16.56.33.83.51l-.25.14c-1.07.52-2.14,1-3.23,1.53a.86.86,0,0,1-.57,0,9,9,0,1,0,6.06,9.8,8.75,8.75,0,0,0-1.95-7,.84.84,0,0,1-.19-.51C19.25,4.85,19.37,3.56,19.47,2.24Z"/><path class="cls-2" d="M17.94,12.34a5.54,5.54,0,1,1-5.55-5.52h0a5.52,5.52,0,0,1,5.55,5.49ZM12.4,14.61a2.26,2.26,0,0,0,.21-4.51H12.4a2.26,2.26,0,1,0-.21,4.51Z"/></g><path class="cls-3" d="M13.86,4.3a5.9,5.9,0,0,0-1,.1,5.22,5.22,0,0,0-2,.76.4.4,0,0,0-.16.24L9.44,11a.41.41,0,0,0,.31.49.31.31,0,0,0,.19,0,7.69,7.69,0,0,1,5.68.71.42.42,0,0,0,.56-.15l0-.1,1.55-6.09a.42.42,0,0,0-.18-.45A6.76,6.76,0,0,0,13.86,4.3Zm0,.82a4.27,4.27,0,0,1,1,.08,6.35,6.35,0,0,1,2,.8l-1.36,5.32a8.37,8.37,0,0,0-5.16-.7l1.14-4.86A3.79,3.79,0,0,1,13,5.2,4.36,4.36,0,0,1,13.87,5.12ZM18.79,6.4a.41.41,0,0,0-.39.31l-1.54,6.05a.41.41,0,0,0,.16.43,7,7,0,0,0,6.67.82.41.41,0,0,0,.26-.28l1.52-6.5a.4.4,0,0,0-.3-.49.41.41,0,0,0-.34.07,4.48,4.48,0,0,1-1.64.63,5.64,5.64,0,0,1-4.17-1A.37.37,0,0,0,18.79,6.4Zm.28,1a6.44,6.44,0,0,0,4.27.83,5.45,5.45,0,0,0,1.14-.37L23.2,13.31a6.16,6.16,0,0,1-5.47-.66Zm-7.2,4.69a7.49,7.49,0,0,0-2.61.49.37.37,0,0,0-.25.28L7.49,19.32s0,.06,0,.09v0a.42.42,0,0,0,.41.41.41.41,0,0,0,.24-.08,4.35,4.35,0,0,1,1.55-.61,5.53,5.53,0,0,1,4,.78.41.41,0,0,0,.56-.15.42.42,0,0,0,0-.1l1.54-6a.38.38,0,0,0-.17-.44A6.7,6.7,0,0,0,11.87,12.1Zm0,.81a6.06,6.06,0,0,1,3.07.85L13.58,19a6.33,6.33,0,0,0-4.06-.65,4.84,4.84,0,0,0-1,.35l1.27-5.41A6.63,6.63,0,0,1,11.85,12.91Zm5,1.22a.41.41,0,0,0-.38.3l-1.54,6.05a.41.41,0,0,0,.16.44A6.65,6.65,0,0,0,20,22.19,5.27,5.27,0,0,0,22,21.41a.41.41,0,0,0,.17-.32h0l1.3-5.52a.4.4,0,0,0-.3-.49.34.34,0,0,0-.2,0,8.24,8.24,0,0,1-2,.25,7.51,7.51,0,0,1-4-1.14A.32.32,0,0,0,16.81,14.13Zm.3,1a8.51,8.51,0,0,0,3.91,1,8.09,8.09,0,0,0,1.56-.2l-1.14,4.86a4,4,0,0,1-1.59.57,5.6,5.6,0,0,1-4.09-1Z"/></g></g></svg>