<svg xmlns="http://www.w3.org/2000/svg" viewBox="0 0 24.78 24.77"><defs><style>.cls-1{opacity:0.14;}.cls-2{fill:#ed4824;}.cls-3{fill:#1b4e9c;}</style></defs><g id="Layer_2" data-name="Layer 2"><g id="Layer_1-2" data-name="Layer 1"><g class="cls-1"><path class="cls-2" d="M19.47,2.24a12.29,12.29,0,1,1-1-.64c.28.16.56.33.83.51l-.25.14c-1.07.52-2.14,1-3.23,1.53a.86.86,0,0,1-.57,0,9,9,0,1,0,6.06,9.8,8.75,8.75,0,0,0-1.95-7,.84.84,0,0,1-.19-.51C19.25,4.85,19.37,3.56,19.47,2.24Z"/><path class="cls-2" d="M17.94,12.34a5.54,5.54,0,1,1-5.55-5.52h0a5.52,5.52,0,0,1,5.55,5.49ZM12.4,14.61a2.26,2.26,0,0,0,.21-4.51H12.4a2.26,2.26,0,1,0-.21,4.51Z"/></g><path class="cls-3" d="M8.46,15.72H12.1v4.64a.33.33,0,0,0,.53.26l1.12-.84,1.13.84a.32.32,0,0,0,.39,0l1.13-.84,1.12.84a.33.33,0,0,0,.4,0L19,19.78l1.13.84a.33.33,0,0,0,.4,0l1.12-.84,1.13.84a.32.32,0,0,0,.19.07.24.24,0,0,0,.15,0,.33.33,0,0,0,.19-.29V7.45A1.66,1.66,0,0,0,21.69,5.8H18.05V1.17a.34.34,0,0,0-.18-.3.36.36,0,0,0-.35,0l-1.12.85L15.27.9a.32.32,0,0,0-.39,0l-1.13.85L12.63.9a.33.33,0,0,0-.4,0l-1.13.85L10,.9a.33.33,0,0,0-.4,0l-1.12.85L7.33.9A.32.32,0,0,0,7,.87a.33.33,0,0,0-.19.3v12.9A1.66,1.66,0,0,0,8.46,15.72Zm1.31-.66a1.62,1.62,0,0,0,.34-1V7.45a1,1,0,0,1,2,0v7.61ZM22.68,7.45V19.69l-.79-.59a.33.33,0,0,0-.4,0l-1.12.84-1.13-.84a.32.32,0,0,0-.39,0l-1.13.84L16.6,19.1a.33.33,0,0,0-.4,0l-1.13.84L14,19.1a.33.33,0,0,0-.4,0l-.79.59V7.45a1.65,1.65,0,0,0-.34-1h9.27A1,1,0,0,1,22.68,7.45ZM7.46,1.83l.8.59a.33.33,0,0,0,.4,0l1.12-.84,1.13.84a.32.32,0,0,0,.39,0l1.13-.84,1.12.84a.33.33,0,0,0,.4,0l1.12-.84,1.13.84a.33.33,0,0,0,.4,0l.79-.59v4H8.79v.66h1a1.65,1.65,0,0,0-.34,1v.33H8.79v.67h.66V9.77H8.79v.66h.66v1.32H8.79v.67h.66v1.65a1,1,0,0,1-2,0Z"/><rect class="cls-3" x="14.08" y="12.09" width="3.97" height="0.66"/><rect class="cls-3" x="20.04" y="12.09" width="1.32" height="0.66"/><rect class="cls-3" x="14.08" y="14.07" width="2.65" height="0.66"/><rect class="cls-3" x="20.04" y="14.07" width="1.32" height="0.66"/><rect class="cls-3" x="14.08" y="16.06" width="3.97" height="0.66"/><rect class="cls-3" x="20.04" y="16.06" width="1.32" height="0.66"/><rect class="cls-3" x="14.08" y="8.11" width="3.97" height="0.66"/><rect class="cls-3" x="20.04" y="8.11" width="1.32" height="0.66"/><rect class="cls-3" x="14.08" y="10.1" width="2.65" height="0.66"/><rect class="cls-3" x="20.04" y="10.1" width="1.32" height="0.66"/><rect class="cls-3" x="8.79" y="3.81" width="3.97" height="0.66"/><rect class="cls-3" x="14.74" y="3.81" width="1.32" height="0.66"/></g></g></svg>