<svg xmlns="http://www.w3.org/2000/svg" viewBox="0 0 27.24 24.77"><defs><style>.cls-1{opacity:0.14;}.cls-2{fill:#ed4824;}.cls-3{fill:#1b4e9c;}</style></defs><g id="Layer_2" data-name="Layer 2"><g id="Layer_1-2" data-name="Layer 1"><g class="cls-1"><path class="cls-2" d="M19.47,2.24a12.29,12.29,0,1,1-1-.64c.28.16.56.33.83.51l-.25.14c-1.07.52-2.14,1-3.23,1.53a.86.86,0,0,1-.57,0,9,9,0,1,0,6.06,9.8,8.75,8.75,0,0,0-1.95-7,.84.84,0,0,1-.19-.51C19.25,4.85,19.37,3.56,19.47,2.24Z"/><path class="cls-2" d="M17.94,12.34a5.54,5.54,0,1,1-5.55-5.52h0a5.52,5.52,0,0,1,5.55,5.49ZM12.4,14.61a2.26,2.26,0,0,0,.21-4.51H12.4a2.26,2.26,0,1,0-.21,4.51Z"/></g><path class="cls-3" d="M11.14,23.38H4.46c-.66,0-.69,0-.69-.67,0-2.55,0-5.09,0-7.63a.65.65,0,0,0-.29-.6,2,2,0,0,1-.88-1.76,5.16,5.16,0,0,1,.64-3.07,12.1,12.1,0,0,0,1-2.06.58.58,0,0,1,.62-.41H17.4a.56.56,0,0,1,.62.4c.2.48.42.95.64,1.41s.39.73.58,1.09a2.72,2.72,0,0,1,.41,1.55,7,7,0,0,0,0,1.12,1.77,1.77,0,0,1-.85,1.72.59.59,0,0,0-.29.6c0,2.54,0,5.08,0,7.63,0,.62-.06.68-.69.68ZM6.21,14.11a2,2,0,0,1-1.73.77v7.77H7.91V17.06c0-.54.06-.62.58-.62h5.26c.49,0,.57.08.57.58V22.2c0,.15,0,.3,0,.45h3.45V14.86A2,2,0,0,1,16,14.12a2.23,2.23,0,0,1-1.65.74,2,2,0,0,1-1.6-.74,2.2,2.2,0,0,1-3.3,0A2.17,2.17,0,0,1,6.21,14.11Zm-2.65-3.5H18.61c-.4-.88-.77-1.73-1.17-2.57,0-.09-.23-.15-.35-.15H5.21a.48.48,0,0,0-.37.2C4.41,8.9,4,9.73,3.56,10.61Zm5.16,6.57v5.47h2V17.18Zm4.79,5.48V17.19h-2v5.47ZM9.82,11.35v.47c0,.41,0,.81,0,1.21A1.26,1.26,0,0,0,11,14.17a1.23,1.23,0,0,0,1.36-1,16.1,16.1,0,0,0,0-1.84Zm5.8,0H13.09c0,.59,0,1.15,0,1.71a1.17,1.17,0,0,0,1.25,1.09,1.28,1.28,0,0,0,1.26-1.05C15.65,12.55,15.62,12,15.62,11.37Zm-9,0c0,.59,0,1.14,0,1.68a1.13,1.13,0,0,0,1.12,1.13,1.16,1.16,0,0,0,1.32-1c.06-.59,0-1.19,0-1.83h-2Zm-3.19,0a1.15,1.15,0,0,0,0,.2c0,.51,0,1,0,1.51a1.14,1.14,0,0,0,1,1.11,1.17,1.17,0,0,0,1.39-.86,16,16,0,0,0,0-2Zm12.92,0c0,.14,0,.27,0,.4a14.26,14.26,0,0,0,0,1.46,1.13,1.13,0,0,0,1.19.95,1.11,1.11,0,0,0,1.21-.92c0-.62,0-1.25,0-1.89Z"/><path class="cls-3" d="M10,19.28c.23.29.45.44.48.62a.39.39,0,0,1-.5.43.65.65,0,0,1-.42-.42C9.55,19.74,9.77,19.57,10,19.28Z"/><path class="cls-3" d="M12.41,19.45c.07.13.29.32.26.47a.6.6,0,0,1-.43.4.41.41,0,0,1-.5-.41C11.74,19.58,12,19.51,12.41,19.45Z"/><path class="cls-3" d="M26.81,7.3c-.18-.36-.39-.72-.57-1.08s-.44-.94-.64-1.41A.59.59,0,0,0,25,4.4H12.39a.58.58,0,0,0-.61.41,17.35,17.35,0,0,1-.86,1.91l.72.1c.26-.51.51-1,.78-1.51a.49.49,0,0,1,.36-.2c4,0,7.93,0,11.89,0a.46.46,0,0,1,.35.15c.39.84.77,1.69,1.16,2.57H18.39l.42.74H20a16.26,16.26,0,0,1,0,1.85.89.89,0,0,1-.07.28,7.86,7.86,0,0,1,.27.82l.22-.18a2,2,0,0,0,1.61.74,2.23,2.23,0,0,0,1.65-.74,2,2,0,0,0,1.74.75v7.79H21.92c0-.16,0-.31,0-.46,0-1.72,0-3.45,0-5.17,0-.5-.07-.59-.56-.59h-1a5.37,5.37,0,0,1-.15.76h.9v5.46H19.61c0,.25-.07.49-.12.73h5.9c.63,0,.7-.07.7-.69V12.29a.57.57,0,0,1,.29-.6A1.77,1.77,0,0,0,27.22,10a8.37,8.37,0,0,1,0-1.12A2.75,2.75,0,0,0,26.81,7.3Zm-3.62,3a1.29,1.29,0,0,1-1.26,1.06,1.2,1.2,0,0,1-1.26-1.1c0-.56,0-1.11,0-1.71H23.2C23.2,9.2,23.22,9.77,23.19,10.34Zm3.17.13a1.23,1.23,0,0,1-2.4,0,14.22,14.22,0,0,1,0-1.46,2.82,2.82,0,0,1,0-.4h2.41C26.37,9.22,26.41,9.85,26.36,10.47Z"/></g></g></svg>