<svg xmlns="http://www.w3.org/2000/svg" viewBox="0 0 27.74 24.77"><defs><style>.cls-1{opacity:0.14;}.cls-2{fill:#ed4824;}.cls-3{fill:#1b4e9c;}</style></defs><g id="Layer_2" data-name="Layer 2"><g id="Layer_1-2" data-name="Layer 1"><g class="cls-1"><path class="cls-2" d="M19.47,2.24a12.29,12.29,0,1,1-1-.64c.28.16.56.33.83.51l-.25.14c-1.07.52-2.14,1-3.23,1.53a.86.86,0,0,1-.57,0,9,9,0,1,0,6.06,9.8,8.75,8.75,0,0,0-1.95-7,.84.84,0,0,1-.19-.51C19.25,4.85,19.37,3.56,19.47,2.24Z"/><path class="cls-2" d="M17.94,12.34a5.54,5.54,0,1,1-5.55-5.52h0a5.52,5.52,0,0,1,5.55,5.49ZM12.4,14.61a2.26,2.26,0,0,0,.21-4.51H12.4a2.26,2.26,0,1,0-.21,4.51Z"/></g><path class="cls-3" d="M25.69,5.69H7.9A2.05,2.05,0,0,0,5.85,7.74v8.89A2.05,2.05,0,0,0,7.9,18.69H25.69a2.05,2.05,0,0,0,2-2.06V7.74A2.05,2.05,0,0,0,25.69,5.69Zm1.37,10.94A1.37,1.37,0,0,1,25.69,18H7.9a1.37,1.37,0,0,1-1.37-1.37V7.74A1.37,1.37,0,0,1,7.9,6.37H25.69a1.38,1.38,0,0,1,1.37,1.37Z"/><path class="cls-3" d="M25,7.4H23a1,1,0,0,0-1,1V9.79a1,1,0,0,0,1,1H25a1,1,0,0,0,1-1V8.42A1,1,0,0,0,25,7.4Zm0,2.73H23a.34.34,0,0,1-.34-.34V9.45h.68a.34.34,0,0,0,0-.68h-.68V8.42A.34.34,0,0,1,23,8.08H25a.35.35,0,0,1,.35.34v.35h-.69a.34.34,0,0,0,0,.68h.69v.34A.35.35,0,0,1,25,10.13Z"/><path class="cls-3" d="M9.27,10.82A1.71,1.71,0,1,0,7.56,9.11,1.72,1.72,0,0,0,9.27,10.82Zm0-2.74a1,1,0,1,1-1,1A1,1,0,0,1,9.27,8.08Z"/><path class="cls-3" d="M25.69,13.56H7.9a.34.34,0,1,0,0,.68H25.69a.34.34,0,0,0,0-.68Z"/><path class="cls-3" d="M7.9,12.87h9.58a.34.34,0,0,0,0-.68H7.9a.34.34,0,1,0,0,.68Z"/><path class="cls-3" d="M7.9,15.61H9.27a.34.34,0,0,0,.34-.34.35.35,0,0,0-.34-.35H7.9a.35.35,0,0,0-.34.35A.34.34,0,0,0,7.9,15.61Z"/><path class="cls-3" d="M12,14.92H10.63a.35.35,0,0,0-.34.35.34.34,0,0,0,.34.34H12a.35.35,0,0,0,.35-.34A.35.35,0,0,0,12,14.92Z"/><path class="cls-3" d="M14.74,14.92H13.37a.35.35,0,0,0-.34.35.34.34,0,0,0,.34.34h1.37a.34.34,0,0,0,.34-.34A.35.35,0,0,0,14.74,14.92Z"/><path class="cls-3" d="M17.48,14.92H16.11a.35.35,0,0,0-.34.35.34.34,0,0,0,.34.34h1.37a.34.34,0,0,0,.34-.34A.35.35,0,0,0,17.48,14.92Z"/><path class="cls-3" d="M20.21,14.92H18.85a.35.35,0,0,0-.35.35.35.35,0,0,0,.35.34h1.36a.35.35,0,0,0,.35-.34A.35.35,0,0,0,20.21,14.92Z"/><path class="cls-3" d="M23,15.61a.34.34,0,0,0,.34-.34.35.35,0,0,0-.34-.35H21.58a.35.35,0,0,0-.34.35.34.34,0,0,0,.34.34Z"/><path class="cls-3" d="M25.69,14.92H24.32a.35.35,0,0,0-.34.35.34.34,0,0,0,.34.34h1.37a.34.34,0,0,0,.34-.34A.35.35,0,0,0,25.69,14.92Z"/><path class="cls-3" d="M12,16.29H7.9a.35.35,0,0,0,0,.69H12a.35.35,0,1,0,0-.69Z"/><path class="cls-3" d="M25.69,16.29H21.24a.35.35,0,0,0,0,.69h4.45a.35.35,0,0,0,0-.69Z"/></g></g></svg>