<svg xmlns="http://www.w3.org/2000/svg" viewBox="0 0 330.32 71.93"><defs><style>.a{fill:#ee4524;}.b{isolation:isolate;}.c{fill:#ff4014;}.d{fill:#4267f1;}</style></defs><title>logo</title><path class="a" d="M271.11,5.33c10.08,6.58,15,21.56,7.82,34.33A26.19,26.19,0,1,1,269,4c.59.33,1.17.69,1.74,1.07-.19.11-.35.22-.52.3-2.27,1.09-4.53,2.19-6.82,3.23a1.9,1.9,0,0,1-1.22.08,19,19,0,1,0,12.05,24A19.53,19.53,0,0,0,275,29.4a18.52,18.52,0,0,0-4.13-14.76,1.79,1.79,0,0,1-.39-1.08C270.65,10.84,270.89,8.12,271.11,5.33Z"></path><path class="a" d="M267.87,26.69A11.71,11.71,0,1,1,256.13,15h0a11.67,11.67,0,0,1,11.73,11.61Zm-11.71,4.8a4.78,4.78,0,0,0,.44-9.55,3.23,3.23,0,0,0-.44,0,4.78,4.78,0,0,0-.44,9.55A3.23,3.23,0,0,0,256.16,31.49Z"></path><g class="b"><path class="c" d="M329,32.52a12.69,12.69,0,0,1,1.32,6.2v1.05a7,7,0,0,1-.05,1,10.79,10.79,0,0,1-.85,3.21,13.86,13.86,0,0,1-1.89,3.15A18.87,18.87,0,0,1,319.86,53a28.27,28.27,0,0,1-11,1.94,23.61,23.61,0,0,1-16.88-6.62,19.52,19.52,0,0,1-3.62-4.73h.05a3.6,3.6,0,0,1-.63-2V41a1.7,1.7,0,0,1,.16-.63,4.38,4.38,0,0,1,.63-1.26,3.24,3.24,0,0,1,1.21-1l-.06.06a3.42,3.42,0,0,1,1.9-.63,3.15,3.15,0,0,1,1.26.26v-.05a3.78,3.78,0,0,1,1.26.73,5.07,5.07,0,0,1,.95,1.11,18.75,18.75,0,0,0,2.36,3,13.12,13.12,0,0,0,3.15,2.42,18.77,18.77,0,0,0,3.9,1.58,15.5,15.5,0,0,0,4.2.52A19.89,19.89,0,0,0,316.07,46a12.12,12.12,0,0,0,5-3.47,5.53,5.53,0,0,0,1.15-2.2V40a4.18,4.18,0,0,0,.11-.79v-.63a8.18,8.18,0,0,0-.06-1.26,2.48,2.48,0,0,0-.31-.95,8.74,8.74,0,0,0-2.63-2.62,11,11,0,0,0-4.1-1.48,30.87,30.87,0,0,0-6.2-.52,35.45,35.45,0,0,1-8.68-.95,17.3,17.3,0,0,1-6-2.68,23,23,0,0,1-3.15-2.79,11.72,11.72,0,0,1-2.05-2.83,11.72,11.72,0,0,1-1-5.68l.05-1.37a9,9,0,0,1,.79-3.15,15.16,15.16,0,0,1,1.89-3.21,18.82,18.82,0,0,1,7.68-5.83,28,28,0,0,1,11-2,23.93,23.93,0,0,1,8.2,1.42,25.42,25.42,0,0,1,7.15,3.94A5.46,5.46,0,0,1,326,7.71a3.28,3.28,0,0,1,.48,1.73,5.66,5.66,0,0,1-.16,1.42,2.82,2.82,0,0,1-.63,1.16,3.4,3.4,0,0,1-1.16,1,3.82,3.82,0,0,1-1.73.42,3.89,3.89,0,0,1-2.47-.73.26.26,0,0,1-.16-.11,15.71,15.71,0,0,0-10.41-3.78,19.53,19.53,0,0,0-7.41,1.26,12.7,12.7,0,0,0-4.94,3.47v0a4.86,4.86,0,0,0-1.11,2.21v.63a10.13,10.13,0,0,0,.21,2.68V18.9a8.59,8.59,0,0,0,2.69,2.63,12.37,12.37,0,0,0,4.1,1.52,29.42,29.42,0,0,0,6.09.58,38,38,0,0,1,8.62.9,18.11,18.11,0,0,1,6.15,2.52,22.71,22.71,0,0,1,2.9,2.47,13.21,13.21,0,0,1,2.05,2.63H329Z"></path></g><g class="b"><g class="b"><path class="d" d="M52.35,48.81a3.77,3.77,0,0,1-3.75,3.8,3.55,3.55,0,0,1-3.85-3.8v-4c-.72.67-1.54,1.39-2.47,2.11s-1.74,1.28-2.46,1.75a26.5,26.5,0,0,1-6.48,2.92,24.89,24.89,0,0,1-7.14,1A25.23,25.23,0,0,1,7.66,44.9,25.33,25.33,0,0,1,0,26.41,25.35,25.35,0,0,1,7.66,7.91,25,25,0,0,1,26.2.21a25.08,25.08,0,0,1,18.6,7.7,25.35,25.35,0,0,1,7.66,18.5v22.5ZM39.41,39.56a17.89,17.89,0,0,0,5.44-13.1A18.39,18.39,0,0,0,39.41,13.2,18,18,0,0,0,26.2,7.81,17.78,17.78,0,0,0,13.05,13.2,18.21,18.21,0,0,0,7.6,26.41a18,18,0,0,0,5.45,13.15A17.87,17.87,0,0,0,26.2,45,17.85,17.85,0,0,0,39.41,39.56Z"></path><path class="d" d="M82.45.26A20.59,20.59,0,0,1,97.56,6.58a20.56,20.56,0,0,1,6.27,15.05V48.86a4.47,4.47,0,0,1-.21,1.49,2.75,2.75,0,0,1-.82,1.13,3.91,3.91,0,0,1-5.55,0,3.89,3.89,0,0,1-1-2.57V21.63a13.19,13.19,0,0,0-4.06-9.81,13.71,13.71,0,0,0-23.42,9.81V48.86a3.27,3.27,0,0,1-1.08,2.62,3.62,3.62,0,0,1-2.78,1.13,3.78,3.78,0,0,1-1.38-.21,2.71,2.71,0,0,1-1.19-.92,3.16,3.16,0,0,1-1.07-2.62V21.32A20.16,20.16,0,0,1,67.61,6.47a20.36,20.36,0,0,1,15-6.21Z"></path><path class="d" d="M164.09,2.72a3.52,3.52,0,0,1,.25,1.34,2,2,0,0,1-.05.67,2.18,2.18,0,0,0-.15.36,1,1,0,0,0-.16.3.8.8,0,0,1-.15.31L132,69.77a4.07,4.07,0,0,1-1.44,1.54,3.62,3.62,0,0,1-2.06.62,3.73,3.73,0,0,1-1.64-.36,3.26,3.26,0,0,1-1.28-1,6,6,0,0,1-.78-1.39,8.74,8.74,0,0,1-.1-1.23,4.24,4.24,0,0,1,.41-1.7l7.25-14.54-8.17-18.44-6.27-14-6.22-14V4.93a4.06,4.06,0,0,1-.1-.77V3.54a.18.18,0,0,1,.05-.15A4.23,4.23,0,0,1,113.94.51a4.69,4.69,0,0,1,1.54-.3.56.56,0,0,1,.26.05,3.68,3.68,0,0,0,.41.15c0,.05.21.05.46.05a4.5,4.5,0,0,1,1.34.93,6,6,0,0,1,.93,1.18l4.21,9.4,4,8.84,2.42,5.34,2.31,5.24,2.42,5.45,2.67,5.91,6.73-13.62,6.83-13.72,3.19-6.47,3.28-6.68A4,4,0,0,1,157.82,1a4.27,4.27,0,0,1,1.39-.77h-.06a2.39,2.39,0,0,1,.67-.21,3.26,3.26,0,0,1,.67,0,5.32,5.32,0,0,1,.87.05,3.39,3.39,0,0,1,.93.31,4.5,4.5,0,0,1,1.9,2.21l-.05,0Z"></path></g><g class="b"><path class="c" d="M197.79,0a25.07,25.07,0,0,1,10.07,2,26.72,26.72,0,0,1,8.32,5.76,26.72,26.72,0,0,1,5.76,8.32,25,25,0,0,1,2,10,25.12,25.12,0,0,1-7.71,18.44,25,25,0,0,1-18.34,7.66,25.26,25.26,0,0,1-13.56-3.75c-1-.62-1.85-1.24-2.57-1.8a21,21,0,0,1-2.31-2.16V67.77a3.84,3.84,0,0,1-1,2.72,3.91,3.91,0,0,1-5.55,0,3.89,3.89,0,0,1-.77-1.24,4.05,4.05,0,0,1-.26-1.43V26.1a24.84,24.84,0,0,1,2-10,25.85,25.85,0,0,1,5.75-8.32,27.38,27.38,0,0,1,8.48-5.71,25.36,25.36,0,0,1,10-2Zm.31,44.59a17.8,17.8,0,0,0,13.05-5.39,17.82,17.82,0,0,0,5.39-13.05,18,18,0,0,0-5.39-13,18.43,18.43,0,0,0-26.15,0,17.86,17.86,0,0,0-5.45,13.1A17.82,17.82,0,0,0,185,39.3a17.77,17.77,0,0,0,13,5.4Z"></path></g></g></svg>