<svg id="Group_3734" data-name="Group 3734" xmlns="http://www.w3.org/2000/svg" xmlns:xlink="http://www.w3.org/1999/xlink" width="99.189" height="121.7" viewBox="0 0 99.189 121.7">
  <defs>
    <clipPath id="clip-path">
      <rect id="Rectangle_3113" data-name="Rectangle 3113" width="99.189" height="121.7" fill="none"/>
    </clipPath>
  </defs>
  <g id="Group_3721" data-name="Group 3721">
    <g id="Group_3720" data-name="Group 3720" clip-path="url(#clip-path)">
      <path id="Path_1412" data-name="Path 1412" d="M45.873,289.275c-.145-.095-.288-.19-.431-.286a6.332,6.332,0,0,0-3.555-1.428,6.494,6.494,0,0,0-4.291,1.8.66.66,0,0,1-.853-1.009,7.792,7.792,0,0,1,5.166-2.116,6.53,6.53,0,0,1,3.408,1.092c-.307-1.132-.577-2.267-.774-3.4H36.174a2.635,2.635,0,0,0-2.635,2.635v3.067a2.635,2.635,0,0,0,2.635,2.635H46.779c-.3-.992-.607-1.99-.906-2.991" transform="translate(-24.679 -208.922)" fill="#fff"/>
      <path id="Path_1413" data-name="Path 1413" d="M45.174,233.682a2.238,2.238,0,0,1-.88.255q-.1.008-.19.007a3.942,3.942,0,0,1-2.669-1.548c-.683-.69-1.273-1.288-2.01-1.223a2.618,2.618,0,0,0-1.727,1.239.66.66,0,1,1-1.061-.787,3.836,3.836,0,0,1,2.676-1.769c1.353-.112,2.259.8,3.06,1.61.639.645,1.189,1.2,1.816,1.153.516-.041.853-.475,1.36-1.179a4.739,4.739,0,0,1,2.175-1.92,16.7,16.7,0,0,1,1.831-1.8H36.173a2.635,2.635,0,0,0-2.635,2.635v3.067a2.635,2.635,0,0,0,2.635,2.635h8.305A13.532,13.532,0,0,1,45.174,233.682Z" transform="translate(-24.678 -167.567)" fill="#fff"/>
      <path id="Path_1414" data-name="Path 1414" d="M48.263,340.133H36.174a2.635,2.635,0,0,0-2.635,2.635v3.067a2.635,2.635,0,0,0,2.635,2.635h10.4a11.34,11.34,0,0,0,.731-1.332,12.871,12.871,0,0,0,.964-7m-7.65,4.308-1.183.208.835.975a.489.489,0,0,1,.111.306.553.553,0,0,1-.174.388.591.591,0,0,1-.279.157.457.457,0,0,1-.1.012.354.354,0,0,1-.049,0,.467.467,0,0,1-.227-.1.722.722,0,0,1-.169-.2l-.585-1.072-.612,1.072a.635.635,0,0,1-.282.272.4.4,0,0,1-.1.031.3.3,0,0,1-.045,0,.589.589,0,0,1-.57-.556.462.462,0,0,1,.125-.306l.821-.975-1.183-.208a.5.5,0,0,1-.33-.207.536.536,0,0,1-.045-.078.577.577,0,0,1-.056-.244.536.536,0,0,1,.311-.486.5.5,0,0,1,.2-.044.618.618,0,0,1,.25.042l1.1.46-.125-1.211a.582.582,0,0,1,.04-.245.492.492,0,0,1,.052-.1.569.569,0,0,1,.639-.181.521.521,0,0,1,.17.1.547.547,0,0,1,.17.419l-.139,1.211,1.1-.46a.616.616,0,0,1,.25-.042.534.534,0,0,1,.084,1.058m6.394,0-1.183.208.835.975a.488.488,0,0,1,.111.306.553.553,0,0,1-.174.388.591.591,0,0,1-.278.157.461.461,0,0,1-.1.012.536.536,0,0,1-.445-.306l-.585-1.072-.612,1.072a.783.783,0,0,1-.11.148.575.575,0,0,1-.116.094.4.4,0,0,1-.205.064.589.589,0,0,1-.57-.556.462.462,0,0,1,.125-.306l.821-.975-1.183-.208a.5.5,0,0,1-.33-.207.572.572,0,0,1-.1-.322.54.54,0,0,1,.148-.369.52.52,0,0,1,.163-.116.493.493,0,0,1,.2-.044.618.618,0,0,1,.25.042l1.1.46-.125-1.211a.5.5,0,0,1,.245-.48.582.582,0,0,1,.194-.068.625.625,0,0,1,.1-.008.535.535,0,0,1,.358.137.5.5,0,0,1,.069.078.575.575,0,0,1,.1.341l-.139,1.211,1.1-.46a.617.617,0,0,1,.25-.042.534.534,0,0,1,.084,1.058" transform="translate(-24.679 -250.279)" fill="#fff"/>
      <path id="Path_1415" data-name="Path 1415" d="M291.65,83.609a.9.9,0,0,0,.039.2.875.875,0,0,0,.206.348.864.864,0,0,0,.164.133h0l0,0,1.118.694.3.185.3.185.951.59a.914.914,0,0,0,.932-1.5l-.389-.241-.562-.349-.6-.371-1.119-.694,0,0a.882.882,0,0,0-1.213.287.851.851,0,0,0-.066.128.837.837,0,0,0-.042.133.9.9,0,0,0-.019.273" transform="translate(-214.601 -60.821)" fill="#fff"/>
      <path id="Path_1416" data-name="Path 1416" d="M308.042,71.493a3.179,3.179,0,0,0,.451-2.267L305.9,67.615l-1.141,1.839-1.142,1.839,2.595,1.61a3.18,3.18,0,0,0,1.832-1.41m-1.72-1.068a.658.658,0,0,1,.38-.287.681.681,0,0,1,.156-.025.659.659,0,0,1,.373.1.659.659,0,0,1,.213.91.66.66,0,1,1-1.122-.7" transform="translate(-223.408 -49.753)" fill="#fff"/>
      <path id="Path_1417" data-name="Path 1417" d="M176.759,86.583q.477-1.337.865-2.624.26-.857.483-1.688a.385.385,0,0,0-.051-.284.392.392,0,0,0-.043-.055.326.326,0,0,0-.175-.1l-.029,0-.029,0a.345.345,0,0,0-.183.055.384.384,0,0,0-.137.151c-.131.256-.252.492-.361.708-.218.432-.388.779-.5,1.022-.056.122-.1.218-.122.286,0,.008-.01.025-.021.048s-.026.053-.046.087a1.356,1.356,0,0,1-.124.173c-.017.021-.031.041-.051.062a.487.487,0,0,1-.248.148.433.433,0,0,1-.095.01.492.492,0,0,1-.093-.009.586.586,0,0,1-.1-.029.447.447,0,0,1-.127-.075.516.516,0,0,1-.18-.39,1.606,1.606,0,0,1,.032-.336q.045-.218.082-.437c.075-.437.128-.878.174-1.319.062-.588.112-1.178.185-1.764a1.524,1.524,0,0,0,.012-.314.838.838,0,0,0-.027-.155.723.723,0,0,0-.061-.151.34.34,0,0,0-.164-.171.214.214,0,0,0-.079-.014l-.026,0-.025,0a.235.235,0,0,0-.089.035.209.209,0,0,0-.053.051.279.279,0,0,0-.047.106.253.253,0,0,0-.005.029c-.035.195-.073.392-.109.588s-.071.39-.109.588q-.134.7-.273,1.387t-.286,1.361a.361.361,0,0,1-.022.03.366.366,0,0,1-.122.1.213.213,0,0,1-.093.022h-.011a.168.168,0,0,1-.033-.007.281.281,0,0,1-.076-.03.324.324,0,0,1-.085-.073.489.489,0,0,1-.1-.218l.039-.231.04-.231c.048-.284.092-.565.139-.848q.208-1.271.4-2.53a.4.4,0,0,0,.006-.186.286.286,0,0,0-.03-.078.227.227,0,0,0-.051-.062l-.016-.013a.214.214,0,0,0-.029-.018.18.18,0,0,0-.085-.023l-.028,0a.215.215,0,0,0-.157.188q-.222.684-.438,1.381t-.426,1.408c-.037.125-.073.25-.109.375s-.073.25-.109.375a.484.484,0,0,1-.063.111.456.456,0,0,1-.086.087.4.4,0,0,1-.22.084h-.017a.405.405,0,0,1-.048,0,.456.456,0,0,1-.068-.013.375.375,0,0,1-.156-.086.364.364,0,0,1-.07-.09.451.451,0,0,1-.04-.095.666.666,0,0,1-.024-.141c-.011-.133-.049-.459-.108-.936s-.138-1.106-.231-1.842l-.083-.656a.449.449,0,0,0-.015-.049.551.551,0,0,0-.083-.15.4.4,0,0,0-.11-.1.353.353,0,0,0-.074-.033.387.387,0,0,0-.114-.018.323.323,0,0,0-.066.006.305.305,0,0,0-.071.023.32.32,0,0,0-.086.059.393.393,0,0,0-.106.189.465.465,0,0,0-.013.118q0,.142-.008.278c0,.091-.006.179-.008.265-.006.173-.011.336-.017.49-.011.309-.022.579-.032.805-.012.267-.023.508-.035.733s-.024.433-.037.635c-.019.3-.04.592-.063.9-.008.1-.016.207-.024.314-.024.313-.069.8-.164,1.4.024.029.052.061.083.1s.067.072.106.112a3.683,3.683,0,0,0,.279.255c.076.063.148.116.217.162a2.773,2.773,0,0,0,.385.215,3.707,3.707,0,0,1,.742.4,2.727,2.727,0,0,1,.213.177,2.6,2.6,0,0,1,.361.4,2,2,0,0,1,.142.226,1.769,1.769,0,0,1,.109.249.637.637,0,0,1,.032.128.348.348,0,0,1-.042.232.379.379,0,0,1-.089.1.291.291,0,0,1-.085.048.247.247,0,0,1-.085.015.326.326,0,0,1-.125-.027.479.479,0,0,1-.059-.029c-.019-.011-.038-.023-.056-.036a4.949,4.949,0,0,1-.591-.475,3.754,3.754,0,0,0-1.252-.843,2.185,2.185,0,0,1-.575-.32,2.21,2.21,0,0,1-.26-.243c-.077-.083-.148-.169-.22-.254q-.054-.064-.111-.128l-.091-.1c-.065-.075-.137-.16-.216-.249a4.232,4.232,0,0,0-.726-.67l-.049-.032a.957.957,0,0,0-.189-.1.759.759,0,0,0-.086-.027c-.02,0-.041-.005-.062-.008a.384.384,0,0,0-.062-.008h-.017c-.051,0-.216.007-.284.1a.149.149,0,0,0-.015.04.184.184,0,0,0-.015.04c0,.01,0,.022,0,.032a.354.354,0,0,0,.005.069c0,.014.007.029.011.044s.008.025.012.037.007.025.012.038l.02.049.02.041c.007.014.012.027.02.041l.013.026.013.025.026.045.026.045.029.049c.021.034.043.069.065.1l.1.153.053.079.053.079a8.755,8.755,0,0,1,.46.779c.082.157.167.329.251.515q.063.14.125.291c.042.1.083.2.124.313q.065.233.139.476c.147.485.321,1,.526,1.528q.094.245.191.48.193.469.393.9.1.214.2.417.114,1.742.229,3.484t.229,3.484q.225-.157.434-.31c.418-.306.792-.6,1.131-.889.271-.23.52-.455.752-.676.155-.148.3-.294.441-.439.211-.218.407-.434.594-.649q.187-.215.363-.43l.175-.216-.743-2.566a1.069,1.069,0,0,1-.008-.565,1.1,1.1,0,0,1,.064-.181c.185-.407.557-1.021.832-1.544.046-.087.089-.172.128-.252s.074-.157.1-.229q.575-1.38,1.051-2.719m-1.588-.616a.552.552,0,0,1-.12-.035c-.039-.015-.078-.033-.118-.048a21.76,21.76,0,0,0-2.477-.767c-.082-.021-.164-.043-.243-.071-.214-.076-.4-.2-.351-.453a.429.429,0,0,1,.024-.084.336.336,0,0,1,.088-.127.386.386,0,0,1,.063-.045.6.6,0,0,1,.157-.061c.029-.007.06-.013.092-.019l.1-.013q.189.029.378.064t.376.079a5.932,5.932,0,0,1,1.451.529q.174.092.341.2t.329.234a.621.621,0,0,1,.071.065.472.472,0,0,1,.1.159.432.432,0,0,1,.023.094c.026.207-.055.333-.283.3" transform="translate(-123.69 -58.115)" fill="#fff"/>
      <path id="Path_1418" data-name="Path 1418" d="M121.364,110.847c-.008.013-.017.025-.028.038a.712.712,0,0,1-.081.083c-.035.03-.078.064-.133.1l-.092.065-.113.076-.121.078c-.086.055-.185.115-.294.179l-.173.1c.033.033.082.082.147.142a5.556,5.556,0,0,0,1.808,1.109,5.194,5.194,0,0,0,.636.192,5.163,5.163,0,0,0,3.583-.467,5.717,5.717,0,0,0,1.211-.849c.062-.057.115-.108.157-.151s.074-.076.095-.1c-.143-.078-.275-.153-.4-.224s-.248-.139-.368-.2c-.08-.041-.16-.081-.241-.118a1.321,1.321,0,0,1-.269-.159.877.877,0,0,1-.192-.2.973.973,0,0,1-.15-.569c0-.125,0-.251,0-.377-.006-.253-.02-.509-.032-.776-.006-.134-.013-.27-.018-.41a6.465,6.465,0,0,1-1.514.3c-.1.007-.2.012-.3.015s-.2,0-.3,0q-.3-.007-.594-.043a6.988,6.988,0,0,1-1.474-.347q-.294-.1-.589-.231c0,.122,0,.239,0,.348,0,.219,0,.412,0,.574,0,.081,0,.155,0,.22,0,.09,0,.179-.006.269-.01.179-.027.358-.033.537,0,.089,0,.179,0,.268a.893.893,0,0,1-.1.487c-.007.013-.015.026-.023.038" transform="translate(-88.541 -79.546)" fill="#fff"/>
      <path id="Path_1419" data-name="Path 1419" d="M100.4,79.476c-.016-.026-.038-.058-.066-.094a1.149,1.149,0,0,0-.1-.114,1.052,1.052,0,0,0-.325-.219,1.19,1.19,0,0,0-.114-.041,1.144,1.144,0,0,0-.523-.039.623.623,0,0,0-.263.11.478.478,0,0,0-.071.064.562.562,0,0,0-.133.29.992.992,0,0,0-.012.143c0,.023,0,.044,0,.065s0,.039,0,.057a1.518,1.518,0,0,0,.043.283,1.946,1.946,0,0,0,.33.686,2.012,2.012,0,0,0,.208.237,1.6,1.6,0,0,0,.814.441,1.341,1.341,0,0,0,.157.02,1.241,1.241,0,0,0,.131,0,1.4,1.4,0,0,0,.335-.053,1.608,1.608,0,0,0,.2-.071,3.406,3.406,0,0,1-.253-.54c-.031-.084-.057-.165-.078-.242s-.04-.151-.054-.22c-.17.007-.315.007-.43.006-.042,0-.08,0-.114,0a1.228,1.228,0,0,1-.177-.025l-.083-.02c-.241-.063-.283-.217-.132-.417.169-.222.431-.232.714-.305" transform="translate(-72.695 -58.096)" fill="#fff"/>
      <path id="Path_1420" data-name="Path 1420" d="M163.107,70a.959.959,0,0,0-.239.29.855.855,0,0,0-.053.123.926.926,0,0,0-.045.223c0,.033,0,.063,0,.091a3.661,3.661,0,0,1,.462-.105,2.1,2.1,0,0,1,.251-.025.774.774,0,0,1,.265.027l.048.018a.385.385,0,0,1,.122.077.235.235,0,0,1,.048.065.258.258,0,0,1,.012.049.222.222,0,0,1,.012.049.259.259,0,0,1-.012.1.241.241,0,0,1-.163.146.372.372,0,0,1-.047.017l-.048.013-.041.013a.484.484,0,0,1-.1.021,3.484,3.484,0,0,0-.825.3q0,.378-.017.778c0,.077-.008.151-.012.226s-.007.152-.012.226c.038.006.081.011.128.015s.1.006.155.005a1.53,1.53,0,0,0,.367-.05,1.621,1.621,0,0,0,.388-.167,1.792,1.792,0,0,0,.923-1.55,2.02,2.02,0,0,0-.1-.557c-.011-.032-.023-.064-.036-.1a1.213,1.213,0,0,0-.1-.187.91.91,0,0,0-.136-.166.744.744,0,0,0-.29-.172.84.84,0,0,0-.329-.034,1,1,0,0,0-.247.054,1.1,1.1,0,0,0-.333.188" transform="translate(-119.731 -51.329)" fill="#fff"/>
      <path id="Path_1421" data-name="Path 1421" d="M110.945,51.711c-.3.28-.6.559-.918.824q-.236.2-.484.385c-.069.052-.136.108-.2.161s-.137.106-.2.161c-.322.266-.631.547-.939.828a2.15,2.15,0,0,0-.669,1.9,11.641,11.641,0,0,0,.257,1.457,11.083,11.083,0,0,0,.436,1.391,10.952,10.952,0,0,0,1,1.955q.2.312.423.615.143.194.294.379a7.69,7.69,0,0,0,1.733,1.593,6.459,6.459,0,0,0,.836.465,5.714,5.714,0,0,0,2.256.563,4.666,4.666,0,0,0,.544-.018,4.6,4.6,0,0,0,.537-.081,4.788,4.788,0,0,0,.7-.206,5.735,5.735,0,0,0,1.36-.748q.166-.121.33-.257a5.479,5.479,0,0,0,.41-.375,6.728,6.728,0,0,0,.785-.962q.117-.172.226-.351.147-.241.278-.487a9.74,9.74,0,0,0,.924-2.587q.113-.541.175-1.1a14.848,14.848,0,0,0,.051-2.466c-.015-.274-.035-.548-.059-.822a4.451,4.451,0,0,0-.071-.492c-.011-.054-.019-.109-.034-.161a1.709,1.709,0,0,0-.062-.184,1.221,1.221,0,0,0-.346-.484,4.192,4.192,0,0,0-.749-.511,3.322,3.322,0,0,0-1.649-.393,3.915,3.915,0,0,0-.9.13,2.815,2.815,0,0,0-.333.109,3.47,3.47,0,0,0-.609.318q-.145.094-.286.2a1.053,1.053,0,0,1-.111.072.6.6,0,0,1-.306.087.443.443,0,0,1-.325-.155.553.553,0,0,1-.064-.086.5.5,0,0,1,0-.5.838.838,0,0,1,.154-.2l.026-.027a2.154,2.154,0,0,1,.426-.343q.066-.044.147-.094c.089-.055.2-.123.34-.2l.116-.061c.039-.02.074-.04.117-.061-.2-.02-.435-.05-.692-.1-.172-.034-.355-.075-.546-.128a7.231,7.231,0,0,1-2.113-.97c-.225-.151-.42-.3-.582-.432-.049.149-.1.292-.154.432a4.341,4.341,0,0,1-.751,1.321,3.176,3.176,0,0,1-.262.273c-.152.139-.3.279-.452.419m5.516,3.193a1.742,1.742,0,0,1,.79-1.1,1.638,1.638,0,0,1,.338-.157,1.857,1.857,0,0,1,.462-.089c.046,0,.09,0,.131-.005.081,0,.151,0,.207.006l.033,0,.093.013a2.324,2.324,0,0,1,.329.082,2.583,2.583,0,0,1,.454.2,2.641,2.641,0,0,1,.249.157,2.533,2.533,0,0,1,.252.2.649.649,0,0,1,.164.214.319.319,0,0,1,.015.04.285.285,0,0,1,.011.064c0,.008,0,.016,0,.022a.3.3,0,0,1-.006.04.337.337,0,0,1-.024.081.4.4,0,0,1-.018.041.322.322,0,0,1-.1.114.367.367,0,0,1-.324,0l-.071-.026-.115-.046-.117-.047a2.159,2.159,0,0,0-.511-.15c-.047-.007-.1-.011-.148-.014s-.1,0-.159,0c.007.011.026.044.052.1.008.017.017.036.027.058.019.043.039.092.058.148a1.718,1.718,0,0,1,.054.185,1.625,1.625,0,0,1,.036.215c0,.038.006.077.007.116a1.313,1.313,0,0,1-.139.628c-.007.013-.026.049-.053.093a1.144,1.144,0,0,1-.878.607.844.844,0,0,1-.29-.049,1.193,1.193,0,0,1-.541-.392,1.423,1.423,0,0,1-.189-.31,1.061,1.061,0,0,1-.054-.152,1.873,1.873,0,0,1-.062-.6,1.75,1.75,0,0,1,.041-.285m-2.283,2.515a.885.885,0,0,1,.174-.134,1.471,1.471,0,0,1,1.368.006,1.077,1.077,0,0,1,.186.128l.025.022.043.041c.1.1.266.292.211.442a.225.225,0,0,1-.106.115.358.358,0,0,1-.219.05c-.169-.013-.351-.116-.585-.161a1.117,1.117,0,0,0-.253-.021,2.11,2.11,0,0,0-.721.219.58.58,0,0,1-.1.029.249.249,0,0,1-.091,0,.183.183,0,0,1-.08-.038.274.274,0,0,1-.086-.133c-.078-.248.2-.526.236-.565m.2,2.488q.235.04.487.063c.128.011.253.018.375.021a6.117,6.117,0,0,0,.69-.021q.162-.014.312-.035c.2-.028.384-.063.549-.1.083-.019.161-.039.235-.059s.142-.04.206-.06a.354.354,0,0,1,.1-.011.3.3,0,0,1,.187.071.265.265,0,0,1,.045.049.329.329,0,0,1,.058.2.384.384,0,0,1-.008.074.325.325,0,0,1-.041.094.367.367,0,0,1-.139.126c-.061.029-.129.06-.2.091-.15.064-.326.131-.526.194a5.694,5.694,0,0,1-1.908.263,5.636,5.636,0,0,1-1.445-.239,5.951,5.951,0,0,1-1.564-.74c-.132-.088-.239-.167-.319-.229a.636.636,0,0,1-.159.014.469.469,0,0,1-.291-.105.325.325,0,0,1-.062-.072.316.316,0,0,1-.032-.07.532.532,0,0,1,.085-.4c.009-.017.019-.032.027-.045l.025-.038a1.03,1.03,0,0,1,.484-.365.851.851,0,0,1,.134-.037.606.606,0,0,1,.124-.011A.286.286,0,0,1,112,58.6a.262.262,0,0,1,.074.162.543.543,0,0,1,.005.066.836.836,0,0,1-.018.178,6.269,6.269,0,0,0,1.079.555,6.14,6.14,0,0,0,1.238.348m-1.4-3.895a.622.622,0,0,1,.073.1c.009.017.018.033.026.05a.432.432,0,0,1,.047.155.227.227,0,0,1-.015.1.27.27,0,0,1-.069.1.265.265,0,0,1-.174.075.329.329,0,0,1-.179-.05,3,3,0,0,0-1.122-.406,2.69,2.69,0,0,0-.47-.033,1.451,1.451,0,0,0-.3.04,1.247,1.247,0,0,0-.292.113,1.362,1.362,0,0,0-.145.09.793.793,0,0,1-.246.12.608.608,0,0,1-.119.021.525.525,0,0,1-.22-.029.5.5,0,0,1-.182-.115.554.554,0,0,1-.072-.086.524.524,0,0,1-.083-.2.676.676,0,0,1,.3-.626,1.459,1.459,0,0,1,.5-.261c.044-.013.089-.025.133-.034a2.174,2.174,0,0,1,.409-.045,3.24,3.24,0,0,1,.86.161,3.722,3.722,0,0,1,.522.219q.126.064.249.137a5.7,5.7,0,0,1,.477.319.553.553,0,0,1,.092.086m-.808-2.978a1.15,1.15,0,0,1,.162.1c.017.012.035.023.051.036s.029.028.043.043.03.028.043.043a.436.436,0,0,1,.12.34.49.49,0,0,1-.036.134.339.339,0,0,1-.2.2.864.864,0,0,1-.287.045l-.147-.027c-.05-.01-.1-.02-.153-.031a2.7,2.7,0,0,0-.685-.066,2.727,2.727,0,0,0-.446.052q-.111.022-.22.053a3.4,3.4,0,0,0-.436.156q-.173.075-.352.139c-.119.043-.239.083-.359.12l-.063.017a.475.475,0,0,1-.124.011.309.309,0,0,1-.115-.027.319.319,0,0,1-.141-.135.292.292,0,0,1,.014-.315c.009-.016.019-.031.029-.047l.033-.045a1.287,1.287,0,0,1,.148-.165c.042-.04.087-.078.136-.115a2.72,2.72,0,0,1,.507-.3c.1-.046.2-.088.309-.126s.216-.073.328-.1a4.161,4.161,0,0,1,.673-.123c.111-.011.221-.016.328-.016a1.953,1.953,0,0,1,.837.159" transform="translate(-79.109 -36.25)" fill="#fff"/>
      <path id="Path_1422" data-name="Path 1422" d="M74.7,50.418A22.7,22.7,0,0,0,96.319,20.761q-.191-.594-.415-1.172t-.476-1.142q-.3-.672-.643-1.321a22.681,22.681,0,0,0-32.6-8.355q-.317.21-.626.431a22.88,22.88,0,0,0-2.891,2.446q-.268.268-.527.544-.518.553-1,1.14-.241.293-.471.594a22.789,22.789,0,0,0-2.052,3.2q-.172.324-.332.655t-.311.666a22.63,22.63,0,0,0-1.983,9.262A22.735,22.735,0,0,0,74.7,50.418M54.255,24.4c0-.018,0-.036,0-.054a.416.416,0,0,1,0-.054q.159-.948.4-1.865.122-.458.264-.908t.3-.891q.167-.456.355-.9c.016-.039.034-.077.051-.116l.051-.116c.045-.1.093-.206.139-.309s.091-.207.139-.308c.055-.118.114-.234.171-.351l.04-.081q.1-.2.2-.39.113-.212.23-.422.1-.186.212-.369c.027-.046.053-.094.08-.14.068-.114.138-.226.207-.338.057-.091.116-.181.174-.272s.119-.179.178-.269.117-.18.178-.269l.052-.073.052-.072a20.833,20.833,0,0,1,3.487-3.839l.031-.026q.317-.271.645-.528l.067-.053q.32-.25.65-.487l.083-.059c.22-.156.442-.309.668-.457l.076-.049c.116-.075.235-.146.352-.219s.233-.149.352-.22l.01-.006.01-.006c.387-.229.785-.442,1.187-.646.595-.3,1.2-.577,1.83-.821.087-.034.172-.069.259-.1.177-.066.357-.127.536-.189.129-.044.258-.09.389-.132.162-.052.325-.1.489-.148s.3-.089.458-.13.3-.079.458-.117q.255-.062.512-.118c.144-.031.288-.062.432-.09.187-.036.374-.069.562-.1l.2-.032c.067-.011.134-.023.2-.032.1-.015.207-.027.311-.04s.207-.027.311-.039l.183-.021c.061-.007.121-.015.182-.021.119-.012.239-.018.358-.027s.238-.02.358-.027c.1-.006.192-.015.289-.02.337-.016.675-.026,1.016-.026h.007l.065,0q.47,0,.936.024c.147.007.293.02.44.03.182.012.364.024.545.041.09.008.178.02.267.03l.268.031.213.027c.071.009.142.017.213.027.2.029.4.062.6.1.111.019.222.038.333.059q.332.063.66.137l.117.027.117.027q.37.087.734.187l.053.015.053.015h0a20.762,20.762,0,0,1,12.189,9.341q.386.645.722,1.321a20.709,20.709,0,0,1-3.39,23.433h0a18.827,18.827,0,0,1-5.4,4.221q-.58.306-1.218.594-.319.143-.654.282c-.122.05-.343.139-.653.25A22.305,22.305,0,0,1,72.752,48.4q-.669-.057-1.362-.162t-1.4-.267q-.712-.162-1.439-.384a19.788,19.788,0,0,1-2.2-.825q-.252-.112-.5-.228c-.487-.232-.948-.476-1.385-.728q-.436-.251-.84-.511t-.774-.523q-.371-.263-.709-.526c-.338-.263-.652-.523-.943-.777s-.557-.5-.8-.738a1.281,1.281,0,0,1-.092-.105A20.7,20.7,0,0,1,54.255,24.4" transform="translate(-38.258 -3.679)" fill="#fff"/>
      <path id="Path_1423" data-name="Path 1423" d="M213.724,61.092h0L212.4,63.221l-3.545,5.712L194.016,92.842,192.4,95.447c-.025.041-.048.083-.069.126a1.962,1.962,0,0,0-.118.275c-.015.043-.028.087-.041.137a1.97,1.97,0,0,0-.051.264,1.358,1.358,0,0,0-.016.163l-.047,1.167-.067,1.669-.077,1.93-.26,6.511-.18,4.493c0,.02,0,.04,0,.06a1.957,1.957,0,0,0,.03.359,1.979,1.979,0,0,0,.451.951,1.958,1.958,0,0,0,.452.392A1.986,1.986,0,0,0,194.4,114l6.926-3.781,2.952-1.612,2.313-1.263,1.664-.908c.041-.023.081-.048.12-.075a2.022,2.022,0,0,0,.245-.187c.033-.029.064-.059.1-.091a1.939,1.939,0,0,0,.126-.148c.017-.021.036-.039.052-.06a1.327,1.327,0,0,0,.093-.131l3.417-5.5,1.321-2.128,7.465-12.026,9.745-15.7,1.618-2.607a3.69,3.69,0,0,0,2.6-.57,3.608,3.608,0,0,0,1.49-2.4A3.685,3.685,0,0,0,236,62.22l1.934-3.116,1.53-2.464a4.075,4.075,0,0,0,.225-3.887,14.49,14.49,0,0,0-5.206-6.026c-.084-.055-.168-.108-.252-.16a14.518,14.518,0,0,0-8.015-2.146,4.042,4.042,0,0,0-3.341,1.925l-1.528,2.462-1.936,3.119a3.685,3.685,0,0,0-2.6.571,3.442,3.442,0,0,0-1.5,3.27,3.546,3.546,0,0,0,.645,1.71Zm3.656-4.018a2.182,2.182,0,0,1-.231-.23A2.128,2.128,0,0,1,216.7,56a2.462,2.462,0,0,1-.062-.312c-.007-.049-.011-.1-.015-.14a2.406,2.406,0,0,1,0-.408c0-.025,0-.041.006-.048a2.015,2.015,0,0,1,.044-.216,2.365,2.365,0,0,1,.256-.611,2.148,2.148,0,0,1,.632-.676,2.421,2.421,0,0,1,1.286-.385,2.059,2.059,0,0,1,.517.066,2.2,2.2,0,0,1,.605.259h0l2.5-4.021.764-1.231L224,47.043a2.777,2.777,0,0,1,.427-.53,2.744,2.744,0,0,1,1.071-.644,2.678,2.678,0,0,1,.752-.127q.164,0,.341,0l.124,0c.079,0,.158,0,.24,0l.151.006c.078,0,.156.006.236.01l.17.012.118.008.118.008.1.01.1.01c.078.008.155.015.235.024l.2.027c.079.011.158.02.239.033s.142.023.214.035.162.027.245.042.148.03.222.045.166.034.251.053l.115.027.115.028.128.032.128.032c.078.021.157.044.236.066l.131.038.13.038.12.039.12.039.133.045.133.045.122.045.122.045.135.052.135.052.124.052.124.052c.09.039.181.077.272.119s.167.078.25.118.182.088.274.135.168.088.252.133.184.1.275.152.168.1.252.149h0c.054.032.107.061.16.094.076.047.152.1.229.145h0a13.152,13.152,0,0,1,4.729,5.477,2.794,2.794,0,0,1,.257,1,2.752,2.752,0,0,1-.407,1.636l-1.53,2.464-2.5,4.022,0,0a2.217,2.217,0,0,1,.5.426,2.11,2.11,0,0,1,.411.727,2.415,2.415,0,0,1,.1.409,2.333,2.333,0,0,1,.011.625,2.135,2.135,0,0,1-.1.392,2.383,2.383,0,0,1-.138.319,2.263,2.263,0,0,1-.119.2,2.153,2.153,0,0,1-.577.588l-.019.013c-.018.012-.047.03-.086.053s-.088.049-.145.076-.124.057-.2.085a2.4,2.4,0,0,1-.68.153q-.079.006-.161.006a2.075,2.075,0,0,1-.519-.067,2.187,2.187,0,0,1-.308-.106,2.216,2.216,0,0,1-.3-.155l0,0-1.18,1.9-5.586,9-5.587,9-2.958,4.765-2.958,4.765L212.4,97.734l-3.56,5.735-.979,1.577c-.005.008-.012.014-.017.021a.643.643,0,0,1-.074.091l-.032.031a.677.677,0,0,1-.1.075c-.006,0-.011.009-.017.013l-1.049.573-3.559,1.943-4.622,2.523-4.622,2.523a.5.5,0,0,1-.054.022.718.718,0,0,1-.165.047.734.734,0,0,1-.115.008.64.64,0,0,1-.33-.095.66.66,0,0,1-.312-.588c0-.022,0-.044,0-.066l.09-2.24.09-2.239q.13-3.256.26-6.511l.094-2.356.094-2.356c0-.01,0-.019,0-.029s.007-.038.01-.057,0-.038.01-.057.008-.03.013-.044.017-.038.026-.058.016-.039.026-.058a.067.067,0,0,0,0-.01l0-.01,1.025-1.651,1.025-1.651,6.643-10.7,6.643-10.7,1.773-2.857,1.773-2.857,1.321-2.128,1.963-3.162,1.963-3.162h0a2.207,2.207,0,0,1-.269-.2" transform="translate(-140.89 -32.683)" fill="#fff"/>
      <path id="Path_1424" data-name="Path 1424" d="M234.189,354.635a6.87,6.87,0,0,0-6.865-6.865h-.977a.759.759,0,0,1-.758-.758v-.977a6.867,6.867,0,0,0-6.866-6.866h-1.168a6.938,6.938,0,0,0-.907.062,6.814,6.814,0,0,0-2.018.592,6.88,6.88,0,0,0-3.94,6.212v.977a.756.756,0,0,1-.665.749.732.732,0,0,1-.094.01h-.977a6.865,6.865,0,0,0-6.866,6.865V355.8a6.836,6.836,0,0,0,1.5,4.284,6.894,6.894,0,0,0,1.4,1.321,6.832,6.832,0,0,0,3.962,1.26h.976a.759.759,0,0,1,.758.758v.977a6.865,6.865,0,0,0,6.865,6.865h1.168a6.866,6.866,0,0,0,6.866-6.866v-.977a.759.759,0,0,1,.758-.758h.977a6.859,6.859,0,0,0,6.866-6.866Zm-1.321,1.168a5.556,5.556,0,0,1-5.545,5.545h-3.056V364.4a5.551,5.551,0,0,1-5.545,5.545h-1.168a5.551,5.551,0,0,1-5.544-5.545v-3.056h-3.056a5.552,5.552,0,0,1-5.545-5.545v-1.168a5.551,5.551,0,0,1,5.545-5.544h3.056v-3.056a5.506,5.506,0,0,1,.72-2.723,5.58,5.58,0,0,1,1.921-1.992,5.506,5.506,0,0,1,1.464-.634q.261-.07.532-.115c.074-.012.15-.02.224-.03a5.2,5.2,0,0,1,.683-.052h1.168a5.583,5.583,0,0,1,2.813.775,5.606,5.606,0,0,1,1.788,1.686,5.492,5.492,0,0,1,.943,3.084v3.056h3.056a5.5,5.5,0,0,1,2.946.853q.116.074.229.153a5.643,5.643,0,0,1,1.472,1.525q.141.217.263.448a5.491,5.491,0,0,1,.634,2.566Z" transform="translate(-148.701 -249.569)" fill="#fff"/>
    </g>
  </g>
  <g id="Group_3723" data-name="Group 3723">
    <g id="Group_3722" data-name="Group 3722" clip-path="url(#clip-path)">
      <path id="Path_1425" data-name="Path 1425" d="M100.837,139.691a24.338,24.338,0,0,1-10.813-5.746l-.092.058-.092.058c-.155.1-.3.19-.442.281s-.274.178-.4.265a5.41,5.41,0,0,0-1.746,1.722l-.032.054-.032.054a.5.5,0,0,0,.1.606,19.736,19.736,0,0,0,1.634,1.377,19.057,19.057,0,0,0,2.906,1.807q.416.21.861.406a18.6,18.6,0,0,0,4.136,1.274q.334.062.664.11a19.516,19.516,0,0,0,2.391.2q.384.01.757,0a21.522,21.522,0,0,0,5.432-.782c.5-.137.921-.275,1.267-.4l.244-.088c.306-.112.529-.2.66-.259.317-.133.621-.275.919-.421.1-.048.2-.1.3-.145a24.134,24.134,0,0,1-8.613-.442" transform="translate(-64.107 -98.56)" fill="#efefff"/>
      <path id="Path_1426" data-name="Path 1426" d="M232.442,58.252c-.045-.045-.092-.088-.138-.132s-.091-.089-.139-.132h0q-.141-.128-.288-.25h0c-.049-.041-.1-.079-.15-.118a8,8,0,0,0-1.119-.741l-.007,0q-.169-.092-.343-.176h0q-.172-.083-.348-.158l-.006,0c-.055-.024-.112-.044-.168-.066s-.111-.045-.168-.066l-.014-.006-.014-.006c-.1-.038-.206-.072-.309-.105l-.063-.021c-.1-.032-.208-.061-.313-.089l-.067-.019c-.1-.026-.206-.049-.31-.072l-.077-.018c-.051-.011-.1-.018-.154-.028l-.154-.027L228.046,56,228,55.994c-.054-.008-.109-.014-.163-.021l-.163-.021-.037,0-.037,0c-.113-.012-.227-.02-.342-.026l-.064-.005q-.2-.01-.411-.01h-4.9q.237.565.445,1.145t.388,1.173l9.725.032h0" transform="translate(-163.269 -41.134)" fill="#efefff"/>
      <path id="Path_1427" data-name="Path 1427" d="M304.355,90.533a1.1,1.1,0,0,1-1.044.392l8.305,5.155,1.654,1.027.3.183.3.183.561.348.561.348h0l0,0a.879.879,0,0,0,.5.132.894.894,0,0,0,.329-.077.884.884,0,0,0,.389-.34.885.885,0,0,0-.285-1.217l0,0h0l-1.122-.7-.3-.183-.3-.183-2.732-1.7-2.732-1.7-4.5-2.791a1.1,1.1,0,0,1,.112,1.11" transform="translate(-223.184 -65.8)" fill="#efefff"/>
      <path id="Path_1428" data-name="Path 1428" d="M315.269,75.979a3.18,3.18,0,0,1-1.831,1.41l9.5,5.9,1.141-1.839,1.141-1.839-9.5-5.9a3.18,3.18,0,0,1-.451,2.267m6.127,3.8a.654.654,0,0,1,.233-.225.664.664,0,0,1,.3-.086.661.661,0,1,1-.514,1.041.641.641,0,0,1-.063-.111.664.664,0,0,1-.047-.151.657.657,0,0,1,.089-.468m-3.923-2.435a.659.659,0,0,1,.291-.254.661.661,0,0,1,.652,1.142.665.665,0,0,1-.357.121.66.66,0,0,1-.627-.389.669.669,0,0,1-.058-.246.659.659,0,0,1,.1-.373" transform="translate(-230.636 -54.239)" fill="#efefff"/>
      <path id="Path_1429" data-name="Path 1429" d="M213.908,250.128q-.079-.078-.168-.153c-.059-.05-.122-.1-.188-.146a3.053,3.053,0,0,0-.953-.46,3.36,3.36,0,0,0-.7-.119c-.106-.007-.206-.009-.3-.007a3.194,3.194,0,0,0-.507.048.67.67,0,0,1-.125.011.661.661,0,0,1-.632-.492c-.013-.05-.031-.11-.054-.178a3.319,3.319,0,0,0-.215-.491c-.049-.092-.106-.187-.171-.284a3.162,3.162,0,0,0-.376-.46,2.963,2.963,0,0,0-.244-.221,3.024,3.024,0,0,0-.287-.205q-.114-.073-.229-.133a2.919,2.919,0,0,0-.454-.191q-.112-.036-.221-.063a3.265,3.265,0,0,0-.791-.09,3.139,3.139,0,0,0-.595.059.669.669,0,0,1-.129.013.661.661,0,0,1-.643-.5c-.011-.045-.026-.1-.045-.157s-.042-.126-.07-.2a3.27,3.27,0,0,0-.236-.477,3.093,3.093,0,0,0-.392-.521,3.028,3.028,0,0,0-.586-.487,2.983,2.983,0,0,0-.495-.253c-.082-.033-.163-.061-.243-.085a3.107,3.107,0,0,0-.464-.1c-.074-.011-.146-.018-.215-.024s-.136-.008-.2-.009-.125,0-.183,0l-.082,2.05-.082,2.05-.182,4.544q.168.017.334.043a6.016,6.016,0,0,1,1.948.659q.155.084.308.179a6.028,6.028,0,0,1,1.01.787q.151.146.291.3c.059.066.113.136.169.2a5.993,5.993,0,0,1,.468.638l.772-.421.772-.422,3.02-1.648,3.02-1.649c-.034-.073-.072-.15-.116-.227a3.152,3.152,0,0,0-.545-.715" transform="translate(-148.974 -179.361)" fill="#efefff"/>
      <path id="Path_1430" data-name="Path 1430" d="M7.283,143.554a6.581,6.581,0,0,1-.045-.736V64.276a6.217,6.217,0,0,1,6.217-6.217l3.707.012q.343-1.109.789-2.17H13a8,8,0,0,0-8,8v79.759a8,8,0,0,0,8,8H33.624l-20.53-2.288a6.583,6.583,0,0,1-5.811-5.809" transform="translate(-3.679 -41.133)" fill="#efefff"/>
      <path id="Path_1431" data-name="Path 1431" d="M75.967,287.332c.3.184.585.375.861.56a4.956,4.956,0,0,0,2.668,1.158,2.728,2.728,0,0,0,.418-.03,2.858,2.858,0,0,0,1.912-1.353,4.447,4.447,0,0,1,2.68-1.892,4.391,4.391,0,0,1,.754-.1c1.721-.065,3.178.911,4.481,1.786a5.716,5.716,0,0,0,2.784,1.3,1.573,1.573,0,0,0,.572-.11c.555-.22.765-.632,1.061-1.286a3,3,0,0,1,1.827-1.918,2.752,2.752,0,0,1,.737-.132,5.708,5.708,0,0,1,3.033,1.165,11.95,11.95,0,0,0,4.658,1.889,10.306,10.306,0,0,0,1.5.113c0-.02,0-.04,0-.06l.18-4.493h-30.9c.2,1.136.467,2.271.774,3.4" transform="translate(-55.329 -208.922)" fill="#efefff"/>
      <path id="Path_1432" data-name="Path 1432" d="M107.921,292.23a13.236,13.236,0,0,1-5.143-2.064,5.553,5.553,0,0,0-2.129-.971,1.428,1.428,0,0,0-.556.065c-.535.171-.729.55-1.026,1.206a3.27,3.27,0,0,1-1.777,1.968,2.884,2.884,0,0,1-1.207.206,7.078,7.078,0,0,1-3.374-1.522c-.146-.1-.292-.2-.439-.293-.294-.194-.591-.383-.891-.553-.15-.085-.3-.165-.453-.239a4.093,4.093,0,0,0-1.878-.477,2.962,2.962,0,0,0-.56.065,3.229,3.229,0,0,0-1.927,1.426,3.911,3.911,0,0,1-3.349,1.878,4,4,0,0,1-1.223-.194,7.309,7.309,0,0,1-1.762-.9c.3,1,.609,2,.906,2.991h39.293a2.635,2.635,0,0,0,2.635-2.635v-3.067a2.623,2.623,0,0,0-.639-1.717l-2.952,1.611-6.926,3.781a1.965,1.965,0,0,1-2.447-.447q-.275.01-.549.008a11.346,11.346,0,0,1-1.628-.125" transform="translate(-59.034 -211.478)" fill="#efefff"/>
      <path id="Path_1433" data-name="Path 1433" d="M78.2,229.521c.036-.013.069-.03.106-.042a3.261,3.261,0,0,1,.961-.154c1.432-.015,3.052.867,4.83,2.63a.661.661,0,0,1-.93.938c-1.472-1.46-2.738-2.212-3.777-2.247a2.011,2.011,0,0,0-.683.091,3.432,3.432,0,0,0-1.61,1.475l-.149.206a4.034,4.034,0,0,1-1.3,1.264,13.532,13.532,0,0,0-.7,2.381h31.222l.077-1.93c-.013-.01-.028-.018-.04-.029-.435-.377-.841-.714-1.22-1.017s-.73-.57-1.057-.806q-.245-.177-.471-.331c-.3-.206-.579-.382-.833-.533a5.066,5.066,0,0,0-2.1-.823c-.052,0-.1,0-.146,0a.915.915,0,0,0-.365.076c-.355.165-.5.64-.681,1.345-.2.779-.449,1.749-1.423,2.025a1.674,1.674,0,0,1-.422.063,1.847,1.847,0,0,1-.541-.072,2.688,2.688,0,0,1-.529-.217,4.892,4.892,0,0,1-.688-.455c-.227-.175-.451-.369-.673-.569-.111-.1-.222-.2-.332-.3-.8-.733-1.707-1.554-2.486-1.568a1.1,1.1,0,0,0-.154.008c-.762.1-1.479,1.061-2.074,2.773a.66.66,0,0,1-1.248-.433c.781-2.247,1.839-3.474,3.147-3.649a2.433,2.433,0,0,1,.264-.021c1.308-.031,2.438,1,3.441,1.915.629.575,1.4,1.279,1.849,1.267a.354.354,0,0,0,.085-.012c.227-.064.346-.47.5-1.082a2.957,2.957,0,0,1,1.4-2.214,2.2,2.2,0,0,1,.877-.2c1.39-.038,3.331,1,5.976,3.193l.047-1.167a1.369,1.369,0,0,1,.016-.163,1.983,1.983,0,0,1,.051-.264c.014-.05.027-.094.041-.137a1.961,1.961,0,0,1,.118-.275,1.388,1.388,0,0,1,.069-.126l1.617-2.605H80.029a16.7,16.7,0,0,0-1.831,1.8" transform="translate(-55.151 -167.567)" fill="#efefff"/>
      <path id="Path_1434" data-name="Path 1434" d="M122.366,340.133H84.556a12.877,12.877,0,0,1-.964,7,11.418,11.418,0,0,1-.731,1.332h39.432a.756.756,0,0,0,.665-.749v-.977a6.841,6.841,0,0,1,1.922-4.762,2.636,2.636,0,0,0-2.515-1.849M89.7,344.441l-1.183.208.835.975a.7.7,0,0,1,.053.081.472.472,0,0,1,.053.152.46.46,0,0,1,.006.073.526.526,0,0,1-.1.3.623.623,0,0,1-.155.153.484.484,0,0,1-.743-.207l-.585-1.072-.612,1.072a.568.568,0,0,1-.386.3.3.3,0,0,1-.045,0,.514.514,0,0,1-.109-.012.613.613,0,0,1-.358-.24.522.522,0,0,1-.1-.3.4.4,0,0,1,.006-.071.418.418,0,0,1,.059-.148.87.87,0,0,1,.061-.087l.411-.487.411-.487-1.183-.208a.534.534,0,0,1,.084-1.058h.049a.623.623,0,0,1,.129.017.475.475,0,0,1,.072.024l1.1.46-.125-1.211a.645.645,0,0,1,.008-.132.5.5,0,0,1,.084-.209.483.483,0,0,1,.153-.138.6.6,0,0,1,.3-.077.525.525,0,0,1,.529.556l-.139,1.211,1.1-.46a.488.488,0,0,1,.073-.024.715.715,0,0,1,.178-.018.534.534,0,0,1,.084,1.058m6.77-.285a.557.557,0,0,1-.045.077.5.5,0,0,1-.33.207l-1.183.208.835.975a.489.489,0,0,1,.111.306.587.587,0,0,1-.556.556.409.409,0,0,1-.159-.034.548.548,0,0,1-.175-.124.78.78,0,0,1-.11-.148l-.292-.536-.292-.536-.612,1.072a.47.47,0,0,1-.644.26.6.6,0,0,1-.1-.053.615.615,0,0,1-.213-.247.5.5,0,0,1-.048-.21.462.462,0,0,1,.125-.306l.821-.975-1.183-.208a.534.534,0,0,1,.084-1.058.715.715,0,0,1,.178.018.475.475,0,0,1,.072.024l1.1.46-.062-.606-.063-.605a.514.514,0,0,1,.543-.556.525.525,0,0,1,.529.556l-.139,1.211,1.1-.46a.512.512,0,0,1,.141-.037c.022,0,.042,0,.061,0h.049a.49.49,0,0,1,.2.043.516.516,0,0,1,.127.082.544.544,0,0,1,.161.252.526.526,0,0,1,.023.152.579.579,0,0,1-.056.245m6.349.077a.512.512,0,0,1-.059.07.506.506,0,0,1-.271.137l-1.183.208.418.487.417.487a.49.49,0,0,1,.111.306.589.589,0,0,1-.352.51.54.54,0,0,1-.1.034.472.472,0,0,1-.1.012.43.43,0,0,1-.218-.064.558.558,0,0,1-.059-.041.658.658,0,0,1-.115-.12.861.861,0,0,1-.054-.081l-.585-1.072-.612,1.072a.638.638,0,0,1-.282.272.408.408,0,0,1-.1.031.3.3,0,0,1-.045,0,.532.532,0,0,1-.212-.046.6.6,0,0,1-.1-.053.613.613,0,0,1-.213-.247.5.5,0,0,1-.048-.21.462.462,0,0,1,.125-.306l.821-.975-1.183-.208a.534.534,0,0,1,.084-1.058.621.621,0,0,1,.25.042l1.1.46-.063-.606-.063-.605a.583.583,0,0,1,.04-.246.488.488,0,0,1,.3-.277.622.622,0,0,1,.2-.034.544.544,0,0,1,.188.034.522.522,0,0,1,.17.1.547.547,0,0,1,.17.419l-.139,1.211,1.1-.46a.561.561,0,0,1,.2-.041h.049a.5.5,0,0,1,.2.043.524.524,0,0,1,.088.05.539.539,0,0,1,.223.435.572.572,0,0,1-.1.322" transform="translate(-60.972 -250.279)" fill="#efefff"/>
    </g>
  </g>
  <g id="Group_3725" data-name="Group 3725">
    <g id="Group_3724" data-name="Group 3724" clip-path="url(#clip-path)">
      <path id="Path_1435" data-name="Path 1435" d="M81.425,126.374V114.7l-3.417,5.5a1.367,1.367,0,0,1-.092.131c-.016.021-.035.04-.052.061-.041.051-.081.1-.126.148s-.063.062-.1.091a2.005,2.005,0,0,1-.245.187,1.41,1.41,0,0,1-.12.075l-1.664.908L73.3,123.069a2.622,2.622,0,0,1,.639,1.718v3.067a2.635,2.635,0,0,1-2.635,2.635h-49.9a2.635,2.635,0,0,1-2.635-2.635v-3.067a2.635,2.635,0,0,1,2.635-2.635H60.673l.26-6.511H21.406a2.635,2.635,0,0,1-2.635-2.635v-3.067a2.635,2.635,0,0,1,2.635-2.635H63.038L77.879,83.395l3.546-5.712h0V69.908q0-.206-.011-.411c0-.072-.011-.143-.016-.215,0-.032-.005-.063-.007-.095s0-.064-.007-.1-.01-.08-.015-.119-.01-.08-.015-.119-.012-.108-.02-.161c-.015-.1-.034-.2-.053-.294,0-.016-.006-.033-.009-.049s-.006-.033-.009-.049c-.019-.09-.04-.179-.062-.268-.01-.039-.017-.079-.027-.118-.025-.1-.053-.189-.081-.283l-.013-.048c0-.016-.009-.032-.014-.048-.031-.1-.066-.2-.1-.3,0-.012-.008-.024-.012-.036s-.008-.024-.012-.036c-.018-.05-.039-.1-.058-.147s-.038-.1-.058-.148c-.009-.022-.017-.045-.027-.067-.021-.05-.044-.1-.067-.148s-.044-.1-.067-.147l-.013-.029-.013-.029c-.052-.107-.106-.213-.162-.317l-.007-.013L80.46,66.1c-.03-.055-.063-.109-.094-.163s-.062-.11-.094-.163l0-.008q-.1-.163-.205-.32l0,0q-.107-.159-.221-.311h0q-.111-.148-.229-.291l0-.006,0-.006q-.122-.148-.251-.29h0c-.041-.046-.085-.09-.128-.135s-.085-.091-.128-.134l-.008-.009-9.725-.032q.125.413.235.831a23.931,23.931,0,0,1,.723,4.319q.066.888.067,1.794a24.03,24.03,0,1,1-46.991-7.092l-3.707-.012a6.217,6.217,0,0,0-6.217,6.217V148.83a6.627,6.627,0,0,0,5.856,6.545l20.53,2.288H64.8a6.835,6.835,0,0,1-1.5-4.284v-1.168a6.865,6.865,0,0,1,6.866-6.865h.977a.78.78,0,0,0,.094-.01H21.406a2.635,2.635,0,0,1-2.635-2.635v-3.067A2.635,2.635,0,0,1,21.406,137h49.9a2.635,2.635,0,0,1,2.515,1.849,6.887,6.887,0,0,1,4.943-2.1h1.168a6.879,6.879,0,0,1,1.493.165V126.374ZM33.275,99.812a1.854,1.854,0,0,1,1.854-1.854H57.582a1.854,1.854,0,0,1,1.855,1.854v1.337A1.855,1.855,0,0,1,57.582,103H35.129a1.854,1.854,0,0,1-1.854-1.854Z" transform="translate(-9.912 -47.145)" fill="#d7d7ff"/>
    </g>
  </g>
  <g id="Group_3727" data-name="Group 3727">
    <g id="Group_3726" data-name="Group 3726" clip-path="url(#clip-path)">
      <path id="Path_1436" data-name="Path 1436" d="M65.719,48.98q.07-.129.153-.262c.062-.1.124-.19.188-.277a4.95,4.95,0,0,1,.373-.453c.06-.064.118-.123.173-.177q-.265-.313-.483-.614a7.979,7.979,0,0,1-1.054-1.939,6.487,6.487,0,0,1-.216-.709c-.018-.074-.034-.147-.048-.218-.043-.213-.072-.411-.091-.592a7.715,7.715,0,0,1,.633-3.681q.059-.149.12-.3c.287-.7.623-1.4.954-2.147a19.79,19.79,0,0,0,1.137-3.1c.1-.377.183-.767.249-1.172.015-.092.029-.185.043-.278.067-.464.112-.924.142-1.332.012-.163.022-.318.029-.461s.014-.275.018-.392c.013-.351.013-.569.013-.569a16.917,16.917,0,0,0-.027-1.9c-.012-.16-.023-.3-.031-.438a5.184,5.184,0,0,1,0-.593c0-.057.007-.116.012-.179a6.654,6.654,0,0,1,.11-.751c.016-.081.03-.164.048-.244q.079-.351.185-.682t.237-.639a9.95,9.95,0,0,1,2.848-3.719q.138-.109.272-.2c.178-.127.35-.238.514-.335a5.424,5.424,0,0,1,1.061-.488,3.73,3.73,0,0,1,.6-.147c.055-.008.1-.014.132-.017a4.273,4.273,0,0,1,.558-.024,4.425,4.425,0,0,1,.723.077,4.612,4.612,0,0,1,.555.142c.036-.055.076-.111.118-.168a4.23,4.23,0,0,1,1.073-1.04c.079-.052.161-.1.248-.151A3.868,3.868,0,0,1,78,18.5a4.3,4.3,0,0,1,.753-.165,5.2,5.2,0,0,1,1.049-.023c.178.013.356.035.535.064a7.323,7.323,0,0,1,.8.179,9.98,9.98,0,0,1,3.989,2.283q.244.232.462.476a10.465,10.465,0,0,1,2.017,3.566c.167.476.3.923.412,1.321.026.09.05.178.074.262.109.388.2.753.264,1.091.034.168.064.33.09.483s.049.3.068.435c.022.152.04.3.055.425a2.512,2.512,0,0,1,.255.169,2.228,2.228,0,0,1,.365.346c.047.056.087.11.122.161a2.115,2.115,0,0,1,.153.26,2.221,2.221,0,0,1,.178.507c.018.081.031.16.041.236.008.061.013.12.017.176.008.113.01.216.011.306a3.4,3.4,0,0,1-.072.726,3.818,3.818,0,0,1-.313.9,4.393,4.393,0,0,1-.382.632l.006,0,.006,0c.04.609.057,1.279.033,2q-.013.41-.041.8t-.067.746h0a2.659,2.659,0,0,1,1.067.662l.235-2.417.235-2.416a1.554,1.554,0,0,1,.084-.392,1.4,1.4,0,0,1,.294-.488,1.206,1.206,0,0,1,.457-.309l.061-.021c.027-.008.06-.018.1-.026a1.281,1.281,0,0,1,.283-.032,1.181,1.181,0,0,1,.131.007,1.133,1.133,0,0,1,.139.024,1.106,1.106,0,0,1,.579.353,1.243,1.243,0,0,1,.222.382,1.178,1.178,0,0,1,.059.223q.114.911.227,1.823c.058-.27.12-.526.184-.766.021-.08.043-.158.065-.234q.066-.228.134-.433t.138-.383a4.656,4.656,0,0,1,.279-.6c.023-.04.046-.078.069-.113a1.131,1.131,0,0,1,.2-.242c.025-.021.049-.04.074-.058a1.073,1.073,0,0,1,.327-.157l.01,0a.739.739,0,0,1,.095-.011.928.928,0,0,1,.094-.011.957.957,0,0,1,.329.06.918.918,0,0,1,.135.062l.017.01a.882.882,0,0,1,.209.18.931.931,0,0,1,.064.086c.017.026.031.05.042.069H95.6c.031,0,.066,0,.1,0a1.234,1.234,0,0,1,.378.09,1.453,1.453,0,0,1,.417.285.431.431,0,0,1,.054.068,5.138,5.138,0,0,1,.187,2.629c-.021.2-.047.41-.079.626l.183-.354.183-.354a.877.877,0,0,1,.677-.468h.008c.021,0,.042,0,.063,0s.042,0,.063,0a1.164,1.164,0,0,1,.486.109l.062.031c.037.02.065.037.083.048l.046.031a1.353,1.353,0,0,1,.381.418,1.489,1.489,0,0,1,.075.147,1.6,1.6,0,0,1,.095.293,1.626,1.626,0,0,1,.032.213,1.878,1.878,0,0,1-.015.43q-.016.107-.042.212-.186.747-.405,1.521-.109.387-.228.78-.355,1.178-.794,2.407-.294.818-.628,1.656c-.04.1-.085.2-.134.31-.1.212-.208.431-.322.645-.17.322-.346.635-.487.9-.094.176-.173.33-.226.45a.437.437,0,0,0-.036.145.452.452,0,0,0,.014.149l.325,1.22.325,1.22a1.318,1.318,0,0,1,.03.145,1.368,1.368,0,0,1,.013.146,1.264,1.264,0,0,1-.268.815c-.061.078-.13.16-.195.241-.194.241-.4.49-.631.749A20.675,20.675,0,0,0,98.785,26.2c-.226-.45-.465-.891-.722-1.321A20.763,20.763,0,0,0,85.873,15.54a20.542,20.542,0,0,1,3.692,1.439q.879.445,1.709.969a20.86,20.86,0,0,1,3.791,3.068q.341.349.666.714.649.73,1.229,1.519.29.394.561.8t.523.83q.387.646.728,1.321a20.613,20.613,0,0,1,.994,2.307q.306.853.539,1.739.116.443.213.893t.174.907a.68.68,0,0,1,.008.149.659.659,0,0,1-.778.614.645.645,0,0,1-.216-.081.658.658,0,0,1-.172-.149.675.675,0,0,1-.144-.318A19.246,19.246,0,0,0,98.352,28.5q-.115-.3-.24-.59-.374-.879-.831-1.712-.371-.677-.793-1.321A19.4,19.4,0,0,0,76.53,16.443q-.3.059-.6.127-.6.136-1.177.308t-1.147.379q-.565.207-1.114.448t-1.079.513q-.282.145-.558.3-.553.307-1.083.649a19.588,19.588,0,0,0-5.759,5.716c-.07.107-.136.217-.2.326-.2.326-.4.656-.588.995a19.38,19.38,0,0,0-2.109,6.061.682.682,0,0,1-.079.223.664.664,0,0,1-.341.294.652.652,0,0,1-.231.042.659.659,0,0,1-.657-.666A20.7,20.7,0,0,0,65.856,50.38a1.256,1.256,0,0,1-.137-1.4" transform="translate(-43.807 -11.435)" fill="#c9c9ff"/>
      <path id="Path_1437" data-name="Path 1437" d="M165.693,114.021q-.023-.535-.046-1.069c-.148-.26-.3-.546-.449-.857s-.3-.648-.434-1.009q-.093-.243-.173-.477c-.107-.312-.2-.612-.272-.9q-.057-.214-.1-.414c-.038-.086-.08-.175-.12-.263-.12-.263-.248-.531-.388-.808l-.029-.056c-.116.4-.246.813-.4,1.239-.188.532-.388,1.034-.593,1.505s-.416.911-.626,1.32l1.816.894,1.816.894" transform="translate(-119.249 -79.594)" fill="#c9c9ff"/>
      <path id="Path_1438" data-name="Path 1438" d="M115.3,126.125a8.173,8.173,0,0,0,.864.11c.145.011.29.017.436.021s.291,0,.436,0a8.254,8.254,0,0,0,1.724-.236,7.824,7.824,0,0,0,1.232-.414q.2-.086.392-.183a6.715,6.715,0,0,0,2.593-2.264l-1.128-.592-.064.071c-.081.089-.214.227-.4.391-.122.109-.265.23-.429.356-.082.063-.17.127-.262.191a6.28,6.28,0,0,1-3.683,1.152q-.185,0-.363-.016a6.078,6.078,0,0,1-.685-.089,6.176,6.176,0,0,1-.629-.153,6.321,6.321,0,0,1-.836-.318,6.728,6.728,0,0,1-1.369-.849c-.136-.108-.252-.21-.348-.3-.048-.044-.091-.086-.129-.123-.076-.074-.132-.133-.167-.171l-1.587.813a7.041,7.041,0,0,0,4.4,2.606" transform="translate(-81.603 -90.186)" fill="#c9c9ff"/>
      <path id="Path_1439" data-name="Path 1439" d="M118.687,129.192l-2.056-1.092-2.056-1.092c-.015.021-.038.054-.07.1a9.553,9.553,0,0,1-2.853,2.5q-.267.152-.558.292a8.563,8.563,0,0,1-.926.379,8.435,8.435,0,0,1-4.778.192,9.328,9.328,0,0,1-4.438-2.68c-.068-.073-.127-.14-.178-.2l-.07-.082c-.043-.05-.076-.092-.1-.124l-.031-.04c-.637.376-1.48.882-2.468,1.5a24.08,24.08,0,0,0,19.427,6.188c.12-.061.234-.124.352-.187q.352-.187.686-.381c.112-.065.226-.128.335-.195q-.054-1.268-.108-2.537t-.108-2.537" transform="translate(-72.187 -93.456)" fill="#c9c9ff"/>
    </g>
  </g>
  <g id="Group_3729" data-name="Group 3729">
    <g id="Group_3728" data-name="Group 3728" clip-path="url(#clip-path)">
      <path id="Path_1440" data-name="Path 1440" d="M234.655,107.295l-5.014,8.077-1.321,2.128-3.549,5.718-9.453,15.229-2.214,3.567.021.013.021.013c.08.05.156.1.229.156a4.3,4.3,0,0,1,.4.334,4.387,4.387,0,0,1,.727.889l1.544-2.487,1.544-2.487,3.588-5.781,3.588-5.781,3.551-5.72,1.321-2.128L237.3,106.7l-.025-.015a1.9,1.9,0,0,0-2.622.613" transform="translate(-156.807 -78.288)" fill="#ada6fd"/>
      <path id="Path_1441" data-name="Path 1441" d="M224.553,147.563q.12.076.231.157a4.329,4.329,0,0,1,.893.869q.07.09.132.18t.118.178l.964-1.553.964-1.553,1.5-2.411,1.217-1.961,1.217-1.96.984-1.586.985-1.586,1.586-2.555,1.321-2.128,12.067-19.44-3.284-2.039-8.783,14.149-1.321,2.128-3.552,5.722-5.711,9.2-3.433,5.531c.071.007.144.016.219.026a4.223,4.223,0,0,1,1.439.481q.125.069.251.15" transform="translate(-163.827 -81.07)" fill="#ada6fd"/>
      <path id="Path_1442" data-name="Path 1442" d="M244.019,153.475l3.557-5.731,1.321-2.128,1.894-3.051L262.8,123.215a1.9,1.9,0,0,0-.614-2.622l-.1-.063L248.9,141.778l-.935,1.506-.386.622L245.8,146.77l-1.778,2.864-2.4,3.862-2.35,3.786c.11.012.225.029.341.05a4.537,4.537,0,0,1,.6.15,4.365,4.365,0,0,1,.5.2,4.313,4.313,0,0,1,.51.282l.445-.717Z" transform="translate(-176.063 -88.689)" fill="#ada6fd"/>
      <path id="Path_1443" data-name="Path 1443" d="M337.678,57.694c-.7.959.361,2.911,2.36,4.36,1.9,1.374,3.957,1.8,4.757,1.02l-.013-.027c0-.009-.008-.019-.013-.028-.045-.081-.1-.167-.148-.251-.148-.251-.307-.511-.493-.782-.2-.295-.426-.6-.676-.9s-.525-.616-.827-.922q-.227-.23-.474-.456a12.638,12.638,0,0,0-3.327-2.2q-.272-.123-.541-.231a1.193,1.193,0,0,0-.606.42" transform="translate(-248.314 -42.144)" fill="#ada6fd"/>
      <path id="Path_1444" data-name="Path 1444" d="M153.126,49.969a3.474,3.474,0,0,1-1.136.429,7.531,7.531,0,0,1,.741.324,4.643,4.643,0,0,1,.95.623,1.6,1.6,0,0,1,.543-.5,1.575,1.575,0,0,1,.284-.122,1.642,1.642,0,0,1,.47-.082c-.133-.39-.284-.812-.464-1.239-.038-.09-.081-.18-.122-.269s-.079-.18-.122-.269a3.613,3.613,0,0,1-.429.539,3.415,3.415,0,0,1-.714.568" transform="translate(-111.838 -35.954)" fill="#ada6fd"/>
      <path id="Path_1445" data-name="Path 1445" d="M153.79,93.564a15.518,15.518,0,0,1-.777,1.44q-.136.223-.274.434c.008.237.01.489,0,.753a11.823,11.823,0,0,1-.267,2.2q-.052.239-.117.484c-.029.109-.062.21-.093.315-.093.315-.192.617-.3.894l.434.227.434.227a15.692,15.692,0,0,0,.955-6.976" transform="translate(-111.821 -68.847)" fill="#ada6fd"/>
      <path id="Path_1446" data-name="Path 1446" d="M96.964,96.39c-.11.2-.211.4-.3.611a3.725,3.725,0,0,0-.306,1.346c0,.07,0,.145,0,.225a3.685,3.685,0,0,0,.056.537,4.956,4.956,0,0,0,.738,1.8c.363-.212.732-.423,1.1-.634a3.928,3.928,0,0,1-.595-2.333c.117-1.271.934-1.811,1.517-3.224a7.3,7.3,0,0,0,.464-3.483l-.051-.092-.051-.091-.053.032a1.3,1.3,0,0,1-.18.091,1.384,1.384,0,0,1-.471.1c-.044,0-.083,0-.119,0,0,.068,0,.149-.008.24a8.366,8.366,0,0,1-.085.857q-.015.1-.034.207a7.892,7.892,0,0,1-.236.978,9.372,9.372,0,0,1-.858,1.9c-.186.327-.37.632-.535.936" transform="translate(-70.903 -66.996)" fill="#ada6fd"/>
      <path id="Path_1447" data-name="Path 1447" d="M84.775,96.88q.2-.158.422-.318t.453-.321L85.7,96.2l.054-.036a6.073,6.073,0,0,1-1.3-4.159c.141-1.295.772-1.934,1.653-4.145a24.371,24.371,0,0,0,1-3.113,3.385,3.385,0,0,1-.457-.612,3.627,3.627,0,0,1-.266-.56c-.042-.111-.073-.211-.1-.294-.035.135-.08.309-.136.514l-.059.216c-.034.12-.07.248-.109.383l-.061.208c-.227.764-.456,1.442-.68,2.051-1.074,2.922-2.035,4.254-2.145,5.893a4.763,4.763,0,0,0,0,.632,5.032,5.032,0,0,0,.077.6,5.343,5.343,0,0,0,.185.708c.057.168.124.343.2.524.072.161.154.327.248.5a8.038,8.038,0,0,0,.719,1.079q.111.141.232.285" transform="translate(-61.146 -61.283)" fill="#ada6fd"/>
      <path id="Path_1448" data-name="Path 1448" d="M102.732,61.659c-.065.132-.127.271-.184.416s-.116.308-.167.472-.1.335-.133.515c0,.016-.006.031-.009.047s-.005.031-.008.047a1.966,1.966,0,0,1,.584.189l0,0v0c.013-.035.027-.071.044-.109a2.27,2.27,0,0,1,.125-.248,4.923,4.923,0,0,1,.712-.9l.055-.058.055-.058c.059-.06.117-.113.175-.17a4.35,4.35,0,0,1-1.052-.512c-.069.12-.137.246-.2.378" transform="translate(-75.224 -45.092)" fill="#ada6fd"/>
      <path id="Path_1449" data-name="Path 1449" d="M95.611,55.7a1.9,1.9,0,0,1,.818-.631c.012-.1.034-.2.05-.305a6.464,6.464,0,0,1,.2-.882,7.153,7.153,0,0,1,.456-1.106q.088-.171.181-.333a3.246,3.246,0,0,1-.492-.774c-.017-.037-.036-.071-.051-.109a3.365,3.365,0,0,1-.249-1.212c0-.068,0-.134,0-.2-.037.063-.074.129-.113.2a6.366,6.366,0,0,0-.36.769q-.058.149-.112.312c-.013.04-.024.08-.036.12s-.025.08-.037.12a5.8,5.8,0,0,0-.176.9c-.01.083-.019.169-.027.259-.025.271-.041.575-.054.933,0,.038,0,.079,0,.117q-.006.193-.01.4c0,.281-.006.585,0,.911q0,.245.011.507" transform="translate(-70.343 -36.902)" fill="#ada6fd"/>
      <path id="Path_1450" data-name="Path 1450" d="M266.486,351.791c-1.758,1.728-2.075,5.947.062,8.779a6.617,6.617,0,0,0,.691.782,6.54,6.54,0,0,0,.589.5,7.739,7.739,0,0,0,7.247.934,6.1,6.1,0,0,0,1.626-.9,5.185,5.185,0,0,0,.566-.522c-.058-.1-.12-.19-.185-.282s-.134-.18-.206-.266a4.214,4.214,0,0,0-3.22-1.5h-3.716a.66.66,0,0,1-.66-.66v-3.716a4.254,4.254,0,0,0-2.138-3.668,2.876,2.876,0,0,0-.594.458l-.062.06" transform="translate(-195.034 -258.476)" fill="#ada6fd"/>
      <path id="Path_1451" data-name="Path 1451" d="M225.928,406.872a7.134,7.134,0,0,0-.632-1.159,6.654,6.654,0,0,0-.9-1.075c-.123-.119-.251-.23-.381-.337-.046-.037-.09-.076-.137-.112a7.639,7.639,0,0,0-8.945-.083,5.144,5.144,0,0,0-.621.585,4.222,4.222,0,0,0,3.636,2.085h3.717a.673.673,0,0,1,.66.66v3.716a4.222,4.222,0,0,0,2.061,3.621,2.851,2.851,0,0,0,.762-.575c1.476-1.451,1.935-4.659.78-7.327" transform="translate(-157.697 -296.318)" fill="#ada6fd"/>
    </g>
  </g>
  <g id="Group_3731" data-name="Group 3731">
    <g id="Group_3730" data-name="Group 3730" clip-path="url(#clip-path)">
      <path id="Path_1452" data-name="Path 1452" d="M277.948,89.1a3.55,3.55,0,0,1-.645-1.71,12.183,12.183,0,0,0-1.6.487v4.838Z" transform="translate(-202.87 -64.302)" fill="#9351f1"/>
      <path id="Path_1453" data-name="Path 1453" d="M204.185,282.487a4.643,4.643,0,0,0-.435-.306l-.06-.035a4.71,4.71,0,0,0-1.886-.64l-.026.64-.069,1.716-.069,1.717,1.789-.977,1.789-.977a4.835,4.835,0,0,0-.3-.411,4.688,4.688,0,0,0-.734-.727" transform="translate(-148.372 -207.139)" fill="#9351f1"/>
      <path id="Path_1454" data-name="Path 1454" d="M326.993,63.786l.567-.914.567-.914a1.52,1.52,0,0,0,.06-1.492c-.8.779-2.861.354-4.757-1.02-2-1.448-3.055-3.4-2.36-4.36a1.2,1.2,0,0,1,.606-.419q-.2-.082-.407-.156t-.4-.138c-.4-.131-.789-.237-1.166-.323s-.741-.152-1.088-.2c-.432-.061-.839-.1-1.211-.117a1.522,1.522,0,0,0-1.374.717l-1.134,1.827,6.049,3.755Z" transform="translate(-231.708 -39.536)" fill="#9351f1"/>
      <path id="Path_1455" data-name="Path 1455" d="M268.215,116.429l-.672,1.083.1.063a1.9,1.9,0,0,1,.613,2.622l-12.011,19.349-1.894,3.051-1.321,2.128-3.557,5.731-2.342,3.773-.445.717.091.06c.03.02.061.039.091.06.1.072.19.148.279.224a4.453,4.453,0,0,1,.872,1l1.453-2.342,3.559-5.733,1.321-2.128,4.292-6.914,12.452-20.06.4-.649-.706-.438Z" transform="translate(-181.519 -85.671)" fill="#9351f1"/>
      <path id="Path_1456" data-name="Path 1456" d="M224.4,103.851l-1.321,2.128-1.774,2.858-1.774,2.858-11.73,18.9-.91,1.467-.911,1.467a4.337,4.337,0,0,1,1.881.633h0l2.214-3.567,9.453-15.229,3.549-5.718,1.321-2.128,5.014-8.077a1.9,1.9,0,0,1,2.622-.614l.025.015.672-1.083-1.642-1.019-1.642-1.019-2.524,4.066Z" transform="translate(-151.565 -70.432)" fill="#9351f1"/>
      <rect id="Rectangle_3118" data-name="Rectangle 3118" width="1.275" height="3.866" transform="translate(81.617 29.105) rotate(-58.169)" fill="#9351f1"/>
      <path id="Path_1457" data-name="Path 1457" d="M90.294,197.392h22.452a1.854,1.854,0,0,0,1.854-1.854V194.2a1.854,1.854,0,0,0-1.854-1.854H90.294A1.854,1.854,0,0,0,88.44,194.2v1.337a1.854,1.854,0,0,0,1.854,1.854" transform="translate(-65.076 -141.533)" fill="#9351f1"/>
      <path id="Path_1458" data-name="Path 1458" d="M133.465,38.373c-.172.027-.32.059-.436.083q-.146.031-.291.071a5.565,5.565,0,0,0-1.4.6q-.271.163-.534.358c-.046.035-.089.073-.133.11a2.959,2.959,0,0,0-.583.624,2.6,2.6,0,0,0-.174.3c.025.029.054.062.087.1a3.273,3.273,0,0,0,.258.252c.052.046.109.093.171.14a3.506,3.506,0,0,0,1.363.62l.144.031c.512.1,1.019.206,1.513.316q.246.055.488.113a15.148,15.148,0,0,1,1.807.537,3.471,3.471,0,0,0,1.136-.428,3.426,3.426,0,0,0,.714-.569,3.631,3.631,0,0,0,.429-.539c-.1-.212-.214-.422-.335-.626-.04-.068-.082-.135-.124-.2q-.128-.2-.269-.386a4.336,4.336,0,0,0-.991-.97,3.355,3.355,0,0,0-.839-.421,3.528,3.528,0,0,0-.737-.16,4.718,4.718,0,0,0-1.265.043" transform="translate(-95.594 -28.186)" fill="#9351f1"/>
      <path id="Path_1459" data-name="Path 1459" d="M130.333,33.061a3.455,3.455,0,0,0-.464.2,4.264,4.264,0,0,0-.857.58,4.128,4.128,0,0,0-.949,1.171,2.694,2.694,0,0,0-.244.637,2.057,2.057,0,0,0-.038.21,6.594,6.594,0,0,1,1.443-1.371,5.653,5.653,0,0,1,.53-.323,5.594,5.594,0,0,1,.744-.332,5.955,5.955,0,0,1,1.192-.294q.206-.029.417-.046t.427-.021a8.16,8.16,0,0,1,.881.032q.225.02.454.052a1.649,1.649,0,0,0-.458-.323,3.137,3.137,0,0,0-.624-.226,4.405,4.405,0,0,0-.476-.092q-.123-.017-.249-.028a4.941,4.941,0,0,0-.509-.017c-.085,0-.17.005-.255.011a3.922,3.922,0,0,0-.966.184" transform="translate(-94.025 -24.183)" fill="#9351f1"/>
      <path id="Path_1460" data-name="Path 1460" d="M99.365,41.209c.015.038.034.072.052.109a3.235,3.235,0,0,0,.491.774,8.27,8.27,0,0,1,.508-.774A9.188,9.188,0,0,1,101.607,40c.056-.051.109-.1.158-.141l.1-.089c.1-.082.173-.142.218-.177a8.352,8.352,0,0,1,3.139-1.5c-.02-.152-.065-.483-.137-.833-.029-.14-.062-.283-.1-.419-.018-.068-.038-.134-.059-.2-.006-.018-.013-.038-.021-.06s-.019-.046-.032-.072a.67.67,0,0,0-.11-.159.616.616,0,0,0-.238-.151,1.352,1.352,0,0,0-.164-.05c-.06-.015-.127-.029-.2-.043a1.6,1.6,0,0,0-.216-.025,1.943,1.943,0,0,0-.7.106c-.086.029-.152.057-.192.075l-.04.018a7.978,7.978,0,0,0-2.189,1.446,10.04,10.04,0,0,0-1.367,1.531c-.094.132-.143.209-.143.209l-.049.078c-.048.078-.1.16-.153.251,0,.064,0,.131,0,.2a3.364,3.364,0,0,0,.249,1.212" transform="translate(-72.931 -26.55)" fill="#9351f1"/>
      <path id="Path_1461" data-name="Path 1461" d="M125.113,31.742a6.222,6.222,0,0,1,.357-.544q.094-.128.194-.248a5,5,0,0,1,.646-.651,4.749,4.749,0,0,1,.948-.617,5.554,5.554,0,0,1,1.52-.483q.209-.036.428-.061a4.32,4.32,0,0,0-.767-.148c-.078-.008-.153-.013-.225-.016s-.141,0-.206,0c-.131,0-.249.007-.352.017-.052,0-.1.01-.143.016l-.013,0-.1.021c-.049.011-.113.027-.188.048a5.516,5.516,0,0,0-.574.194,5.427,5.427,0,0,0-.935.482,4.849,4.849,0,0,0-.393.284,1.383,1.383,0,0,0-.319.347.934.934,0,0,0-.132.6,2.193,2.193,0,0,0,.255.759" transform="translate(-91.87 -21.315)" fill="#9351f1"/>
      <path id="Path_1462" data-name="Path 1462" d="M95.649,69.4h0q.011.374.032.778t.056.841c.049-.039.1-.08.165-.121s.128-.082.2-.123.146-.076.214-.106.133-.055.192-.077a6.419,6.419,0,0,1-.091-.964c0-.067,0-.135,0-.206s0-.142.007-.216.01-.148.017-.221.016-.145.025-.217a1.9,1.9,0,0,0-.818.631" transform="translate(-70.381 -50.601)" fill="#9351f1"/>
      <path id="Path_1463" data-name="Path 1463" d="M88.193,96.092a6.073,6.073,0,0,0,1.3,4.159c.21-.143.416-.275.618-.4.067-.042.136-.086.2-.126-.114-.166-.216-.327-.307-.484a4.815,4.815,0,0,1-.678-2,3.66,3.66,0,0,1-.006-.589,4.689,4.689,0,0,1,.7-2.035c.145-.256.3-.516.458-.791.079-.137.158-.278.236-.425.125-.234.248-.482.363-.748a8.133,8.133,0,0,0,.316-.862q.071-.233.131-.485c.04-.169.076-.344.108-.527.012-.067.022-.133.032-.2.019-.128.035-.25.047-.365s.022-.222.029-.321c0-.049.007-.1.009-.142.005-.09.008-.171.01-.241a3.366,3.366,0,0,1-.5-.314c-.058-.044-.117-.092-.176-.143-.084-.073-.161-.148-.234-.225a24.32,24.32,0,0,1-1,3.113c-.881,2.211-1.512,2.85-1.653,4.145" transform="translate(-64.875 -65.366)" fill="#9351f1"/>
      <path id="Path_1464" data-name="Path 1464" d="M101.857,70.152l.508.051a3.636,3.636,0,0,1-.04-.511,3.357,3.357,0,0,1,.023-.42,3.116,3.116,0,0,1,.169-.7,1.979,1.979,0,0,0-.584-.189,6.158,6.158,0,0,0-.075,1.773" transform="translate(-74.925 -50.315)" fill="#9351f1"/>
      <path id="Path_1465" data-name="Path 1465" d="M102.772,95.224c-.583,1.414-1.4,1.953-1.517,3.224a3.928,3.928,0,0,0,.595,2.333l.239-.138q1.106-.626,2.2-1.215t2.17-1.142l.054-2.694a13.759,13.759,0,0,1-1.693-1.609,12.6,12.6,0,0,1-1.137-1.495q-.176-.271-.341-.558c-.036-.063-.069-.126-.1-.189a7.3,7.3,0,0,1-.464,3.483" transform="translate(-74.495 -67.505)" fill="#9351f1"/>
      <path id="Path_1466" data-name="Path 1466" d="M158.933,55.8a1.6,1.6,0,0,0-.543.5,3.025,3.025,0,0,1,.625.728,2.736,2.736,0,0,1,.271.619c.027.091.052.189.073.295.012.059.023.12.032.184a3.811,3.811,0,0,1,.038.413q0,.111,0,.231a3.348,3.348,0,0,1,.519-.309c.072-.035.143-.065.211-.092s.133-.05.2-.071c-.015-.107-.033-.227-.054-.353-.043-.261-.1-.56-.179-.89-.039-.165-.084-.338-.135-.517s-.108-.365-.172-.557l-.051-.152-.051-.152-.028-.081a1.65,1.65,0,0,0-.47.081,1.575,1.575,0,0,0-.284.122" transform="translate(-116.547 -40.907)" fill="#9351f1"/>
      <path id="Path_1467" data-name="Path 1467" d="M109.1,47.288c-.229.09-.484.2-.756.341-.181.092-.371.2-.564.314q-.145.088-.293.187c-.127.085-.256.175-.384.272a8.113,8.113,0,0,0-.772.658c-.127.123-.254.254-.378.391l-.052.056a8.2,8.2,0,0,0-1.009,1.365,4.333,4.333,0,0,0,1.051.512c.306-.3.6-.55.882-.785.19-.156.376-.3.561-.453.277-.222.551-.445.828-.7.166-.151.333-.308.5-.486.035-.037.077-.081.123-.134a2.911,2.911,0,0,0,.305-.416,2.675,2.675,0,0,0,.148-.285c.03-.067.058-.136.083-.21s.049-.157.067-.231a2.672,2.672,0,0,0,.065-.4c.005-.058.008-.11.009-.157-.063.021-.129.044-.2.07s-.143.053-.219.083" transform="translate(-77.179 -34.683)" fill="#9351f1"/>
      <path id="Path_1468" data-name="Path 1468" d="M156.091,94.49q.119-.212.243-.447t.25-.495a17.6,17.6,0,0,0,1.365-3.914c-.105-.176-.211-.348-.316-.513a.886.886,0,0,1,.311-1.243l.042-.023a1.3,1.3,0,0,1,.2-.083c.023-.008.045-.016.069-.023q.023-.213.04-.42.034-.414.048-.8a17.427,17.427,0,0,0-.023-1.78c-.191.04-.4.076-.624.1q-.176.022-.341.034t-.317.017c-.029.1-.063.2-.095.3s-.06.2-.095.3a14.868,14.868,0,0,1-.642,1.578,15.682,15.682,0,0,1-.955,6.976l.418.22Z" transform="translate(-114.24 -62.358)" fill="#9351f1"/>
      <path id="Path_1469" data-name="Path 1469" d="M146.661,106.011c0,.07-.008.137-.011.2s0,.121-.006.176a5.511,5.511,0,0,0,.02.729c0,.029.007.055.011.08a1.076,1.076,0,0,0,.058.234.516.516,0,0,0,.077.136l.021.025a.759.759,0,0,0,.182.148.853.853,0,0,0,.088.045c.028.013.054.023.078.031a7,7,0,0,0,.488-1.544c.028-.148.051-.291.068-.43a6.983,6.983,0,0,0,.055-.766c0-.116,0-.226,0-.329l-1.086.8c-.02.167-.033.322-.042.462" transform="translate(-107.902 -77.075)" fill="#9351f1"/>
      <path id="Path_1470" data-name="Path 1470" d="M237.726,360.335a6.1,6.1,0,0,1-1.626.9,7.74,7.74,0,0,1-7.247-.934,6.417,6.417,0,0,1-1.28-1.284c-2.136-2.832-1.819-7.051-.062-8.779l.062-.06a2.872,2.872,0,0,1,.594-.458q-.142-.081-.291-.15t-.3-.128a4.193,4.193,0,0,0-1.492-.277h-1.168a4.226,4.226,0,0,0-2.88,1.143q-.155.145-.295.3t-.263.332a4.187,4.187,0,0,0-.786,2.445v3.717a.661.661,0,0,1-.66.66h-3.717a4.228,4.228,0,0,0-4.224,4.224v1.168a4.193,4.193,0,0,0,.588,2.139,5.162,5.162,0,0,1,.621-.585,7.639,7.639,0,0,1,8.945.083c.046.036.091.074.137.112.13.107.258.218.381.336a6.68,6.68,0,0,1,.9,1.075,7.167,7.167,0,0,1,.632,1.159c1.156,2.668.7,5.876-.78,7.327a2.84,2.84,0,0,1-.762.575q.118.071.242.135a4.234,4.234,0,0,0,.512.223,4.157,4.157,0,0,0,1.409.245h1.168a4.229,4.229,0,0,0,4.224-4.224v-3.716a.66.66,0,0,1,.66-.66h3.716a4.237,4.237,0,0,0,4.224-4.224v-1.168a4.193,4.193,0,0,0-.613-2.18,5.183,5.183,0,0,1-.566.522" transform="translate(-156.06 -256.927)" fill="#9351f1"/>
    </g>
  </g>
  <g id="Group_3733" data-name="Group 3733">
    <g id="Group_3732" data-name="Group 3732" clip-path="url(#clip-path)">
      <path id="Path_1471" data-name="Path 1471" d="M272.026,250.6v-2.926L270.7,249.8v22.208a6.817,6.817,0,0,1,1.321.439V250.6Z" transform="translate(-199.192 -182.243)" fill="#5dccda"/>
      <path id="Path_1472" data-name="Path 1472" d="M54.889,110.518H9.317a8,8,0,0,1-8-8V22.764a8,8,0,0,1,8-8h4.955q-.445,1.061-.789,2.17A24.03,24.03,0,1,0,60.474,24.03q0-.905-.066-1.794a23.9,23.9,0,0,0-.723-4.319q-.11-.418-.235-.831-.179-.593-.388-1.173t-.445-1.145h4.9q.207,0,.411.011l.064,0c.114.007.229.015.342.026l.037,0,.037,0,.163.021c.054.007.109.013.163.021l.043.008.043.008.154.028c.051.009.1.017.154.027l.077.018c.1.022.208.045.31.072l.067.019c.1.028.209.057.313.089l.063.021c.1.034.207.068.309.105l.014.006.014.006c.057.021.112.044.168.066s.113.043.168.066l.007,0q.176.075.348.158h0q.174.084.343.176l.007,0a8.033,8.033,0,0,1,1.119.741c.05.04.1.078.15.119h0q.147.122.288.25h0c.047.043.092.088.139.132s.093.087.138.132h0l.008.009c.044.044.085.09.128.134s.086.089.128.134h0q.128.142.251.29l0,.006,0,.006q.117.143.228.291h0q.114.153.221.311l0,0q.106.158.205.32l0,.008c.032.054.063.109.094.164s.064.108.094.163l.007.013.007.014c.056.1.111.21.162.317l.013.03.013.029c.023.049.044.1.067.147s.046.1.067.147c.01.022.017.045.027.068.02.049.039.1.058.148s.04.1.058.147c0,.012.008.024.012.036s.008.024.012.036c.035.1.07.2.1.3.005.016.009.032.014.048s.009.032.013.048c.028.094.056.188.08.283.01.039.018.079.027.118.021.089.044.178.062.268,0,.016.006.033.009.049s.006.033.009.049c.019.1.037.2.053.294.008.053.013.107.02.161s.01.08.015.119.011.079.015.119.005.063.007.095,0,.063.007.1c.006.072.013.143.016.215q.01.2.011.411v7.774l1.321-2.128V22.764a9.327,9.327,0,0,0-9.317-9.317h-5.5a24.023,24.023,0,0,0-43.14,0H9.317A9.327,9.327,0,0,0,0,22.764v79.759a9.315,9.315,0,0,0,9.317,9.316H56.29a6.895,6.895,0,0,1-1.4-1.321M15.718,14.768q.151-.336.311-.667t.332-.654a22.789,22.789,0,0,1,2.052-3.2q.231-.3.471-.594.481-.586,1-1.14.259-.276.527-.544A22.883,22.883,0,0,1,23.3,5.523q.309-.22.626-.431a22.681,22.681,0,0,1,32.6,8.355q.343.648.643,1.321.252.563.476,1.142t.415,1.172a22.717,22.717,0,1,1-42.344-2.314" fill="#5dccda"/>
      <path id="Path_1473" data-name="Path 1473" d="M61.214,30.661a.654.654,0,0,0,.231-.042.663.663,0,0,0,.341-.294.677.677,0,0,0,.079-.222,19.372,19.372,0,0,1,2.109-6.062c.185-.339.384-.669.588-1,.068-.108.134-.219.2-.326A19.581,19.581,0,0,1,70.526,17q.53-.342,1.083-.65.276-.154.558-.3.53-.273,1.079-.514t1.114-.448q.565-.207,1.147-.379t1.177-.308q.3-.068.6-.127A19.4,19.4,0,0,1,97.24,22.72q.422.644.793,1.321.456.832.831,1.711.125.293.24.591a19.237,19.237,0,0,1,1.038,3.759.675.675,0,0,0,.144.317.656.656,0,0,0,.388.231.662.662,0,0,0,.77-.764q-.076-.457-.174-.907t-.213-.893q-.232-.885-.539-1.739a20.59,20.59,0,0,0-.994-2.307q-.34-.675-.728-1.321-.252-.421-.523-.83t-.561-.8q-.579-.789-1.229-1.519-.325-.365-.665-.715a20.88,20.88,0,0,0-3.791-3.068q-.829-.523-1.709-.969a20.581,20.581,0,0,0-3.692-1.439h0l-.053-.015-.053-.015c-.243-.067-.488-.129-.734-.187l-.117-.027-.117-.027q-.328-.074-.66-.137c-.11-.021-.222-.04-.333-.059-.2-.034-.4-.067-.6-.1l-.213-.027-.213-.027-.268-.031c-.089-.01-.178-.022-.267-.03-.181-.018-.363-.029-.545-.042-.147-.01-.292-.023-.44-.03q-.465-.023-.936-.024h0l-.068,0h0c-.341,0-.679.01-1.016.026-.1,0-.192.014-.289.02-.12.007-.239.018-.358.027s-.239.015-.358.027l-.183.021-.182.021c-.1.012-.207.026-.311.039s-.208.024-.311.04c-.068.01-.135.021-.2.032l-.2.032c-.188.032-.376.064-.562.1-.145.028-.289.058-.432.089q-.257.056-.512.118-.23.056-.458.116c-.154.042-.306.086-.459.131s-.327.1-.489.148c-.131.042-.259.087-.389.131-.179.062-.359.123-.536.189-.087.032-.173.068-.259.1-.626.244-1.235.52-1.83.821-.4.2-.8.417-1.187.646l-.01.006-.01.006c-.119.071-.235.146-.352.22s-.236.144-.352.22l-.076.048q-.339.222-.668.457l-.083.059q-.33.237-.65.487l-.068.053q-.328.258-.645.528l-.03.027a20.9,20.9,0,0,0-3.487,3.839L64,21.5l-.052.072c-.061.088-.119.179-.178.269s-.12.179-.178.269-.117.181-.174.272c-.07.111-.136.225-.2.338-.028.047-.057.093-.084.14q-.108.183-.212.369-.117.21-.23.422c-.069.13-.136.259-.2.39-.014.027-.026.054-.04.081-.058.117-.116.233-.172.35-.048.1-.093.206-.139.309s-.094.2-.139.309l-.051.116c-.017.039-.034.077-.051.116q-.187.446-.355.9t-.3.891q-.142.45-.264.908-.244.917-.4,1.865a.417.417,0,0,0,0,.054c0,.018,0,.036,0,.054a.659.659,0,0,0,.657.666" transform="translate(-44.559 -9.273)" fill="#5dccda"/>
      <path id="Path_1474" data-name="Path 1474" d="M235.65,355.3a5.642,5.642,0,0,0-1.472-1.525q-.113-.079-.229-.153A5.489,5.489,0,0,0,231,352.77h-3.056v-3.056A5.493,5.493,0,0,0,227,346.63a5.606,5.606,0,0,0-1.788-1.686,5.582,5.582,0,0,0-2.813-.775h-1.168a5.2,5.2,0,0,0-.683.052c-.075.01-.15.017-.224.03q-.271.045-.532.115a5.509,5.509,0,0,0-1.464.634,5.58,5.58,0,0,0-1.921,1.992,5.506,5.506,0,0,0-.72,2.723v3.056h-3.056a5.551,5.551,0,0,0-5.545,5.544v1.168a5.552,5.552,0,0,0,5.545,5.545h3.056v3.056a5.551,5.551,0,0,0,5.544,5.545H222.4a5.551,5.551,0,0,0,5.545-5.545v-3.056H231a5.556,5.556,0,0,0,5.545-5.545v-1.168a5.49,5.49,0,0,0-.634-2.566q-.122-.23-.263-.448m-.424,4.182A4.237,4.237,0,0,1,231,363.706h-3.716a.661.661,0,0,0-.66.66v3.716a4.229,4.229,0,0,1-4.224,4.224h-1.168a4.164,4.164,0,0,1-1.409-.245,4.279,4.279,0,0,1-.512-.223q-.124-.064-.243-.135a4.221,4.221,0,0,1-2.061-3.621v-3.716a.658.658,0,0,0-.467-.628.651.651,0,0,0-.193-.032h-3.716A4.222,4.222,0,0,1,209,361.621h0a4.193,4.193,0,0,1-.588-2.139v-1.168a4.228,4.228,0,0,1,4.224-4.224h3.716a.66.66,0,0,0,.66-.66v-3.717a4.214,4.214,0,0,1,1.049-2.777q.139-.159.294-.3a4.226,4.226,0,0,1,2.88-1.143H222.4a4.2,4.2,0,0,1,1.493.277q.154.059.3.128t.291.15a4.254,4.254,0,0,1,2.138,3.668v3.717a.661.661,0,0,0,.66.66H231a4.214,4.214,0,0,1,3.219,1.5c.073.086.141.174.206.266s.127.185.185.282a4.191,4.191,0,0,1,.613,2.18Z" transform="translate(-152.381 -253.248)" fill="#5dccda"/>
      <path id="Path_1475" data-name="Path 1475" d="M77.377,290.335a5.707,5.707,0,0,0-3.033-1.165,2.75,2.75,0,0,0-.737.132,3,3,0,0,0-1.827,1.918c-.3.654-.506,1.066-1.061,1.286a1.573,1.573,0,0,1-.572.11,5.715,5.715,0,0,1-2.785-1.3c-1.3-.875-2.76-1.851-4.481-1.786a4.358,4.358,0,0,0-.754.1,4.448,4.448,0,0,0-2.68,1.891,2.856,2.856,0,0,1-1.911,1.352,2.7,2.7,0,0,1-.419.031,4.956,4.956,0,0,1-2.668-1.158c-.276-.185-.561-.376-.861-.56a6.531,6.531,0,0,0-3.408-1.092,7.793,7.793,0,0,0-5.167,2.116.661.661,0,0,0,.853,1.009,6.494,6.494,0,0,1,4.291-1.8,6.333,6.333,0,0,1,3.555,1.428c.143.1.286.192.431.286a7.321,7.321,0,0,0,1.762.9,4,4,0,0,0,1.223.194,3.911,3.911,0,0,0,3.349-1.878,3.228,3.228,0,0,1,1.927-1.426,2.947,2.947,0,0,1,.56-.065,4.094,4.094,0,0,1,1.878.477c.152.074.3.154.453.239.3.17.6.359.891.553.147.1.294.2.439.293A7.077,7.077,0,0,0,70,293.941a2.887,2.887,0,0,0,1.207-.206,3.27,3.27,0,0,0,1.777-1.968c.3-.655.492-1.035,1.026-1.206a1.429,1.429,0,0,1,.556-.065,5.557,5.557,0,0,1,2.129.971,13.232,13.232,0,0,0,5.143,2.064,11.443,11.443,0,0,0,1.628.125q.274,0,.549-.008a1.982,1.982,0,0,1-.451-.951,1.958,1.958,0,0,1-.03-.359,10.271,10.271,0,0,1-1.5-.113,11.946,11.946,0,0,1-4.658-1.888" transform="translate(-32.949 -212.777)" fill="#5dccda"/>
      <path id="Path_1476" data-name="Path 1476" d="M53.822,235.9c-.507.7-.843,1.138-1.36,1.179-.627.049-1.177-.508-1.816-1.153-.8-.809-1.707-1.722-3.06-1.61a3.835,3.835,0,0,0-2.676,1.768.66.66,0,0,0,1.061.787,2.62,2.62,0,0,1,1.727-1.239c.737-.065,1.326.533,2.01,1.223a3.942,3.942,0,0,0,2.669,1.548c.062,0,.126,0,.19-.008a2.234,2.234,0,0,0,.88-.255,4.04,4.04,0,0,0,1.3-1.264l.149-.206a3.428,3.428,0,0,1,1.61-1.475,2,2,0,0,1,.682-.091c1.039.035,2.305.787,3.777,2.247a.661.661,0,0,0,.93-.938c-1.778-1.764-3.4-2.645-4.83-2.63a3.249,3.249,0,0,0-.961.154c-.037.012-.07.029-.106.042a4.737,4.737,0,0,0-2.175,1.92" transform="translate(-32.95 -172.022)" fill="#5dccda"/>
      <path id="Path_1477" data-name="Path 1477" d="M137.863,233.772a2.958,2.958,0,0,0-1.4,2.214c-.157.612-.277,1.017-.5,1.082a.357.357,0,0,1-.085.012c-.449.012-1.22-.692-1.849-1.267-1-.916-2.134-1.946-3.442-1.915a2.425,2.425,0,0,0-.264.021c-1.307.174-2.366,1.4-3.147,3.648a.66.66,0,1,0,1.247.434c.6-1.712,1.312-2.671,2.074-2.773a1.033,1.033,0,0,1,.154-.008c.779.015,1.683.835,2.486,1.568l.332.3c.222.2.446.393.673.569a4.917,4.917,0,0,0,.688.454,2.662,2.662,0,0,0,.529.217,1.85,1.85,0,0,0,.541.072,1.683,1.683,0,0,0,.422-.064c.975-.276,1.223-1.245,1.423-2.024.181-.705.326-1.18.681-1.345a.915.915,0,0,1,.365-.076c.045,0,.094,0,.146,0a5.066,5.066,0,0,1,2.1.823c.255.151.532.327.833.532q.226.154.471.331c.327.236.678.5,1.057.806s.785.64,1.219,1.017c.013.011.027.019.041.029l.067-1.668c-2.645-2.19-4.586-3.231-5.976-3.193a2.2,2.2,0,0,0-.877.2" transform="translate(-93.549 -171.869)" fill="#5dccda"/>
      <path id="Path_1478" data-name="Path 1478" d="M48.8,348.909a.618.618,0,0,0-.25.042l-1.1.46.139-1.211a.548.548,0,0,0-.17-.419.52.52,0,0,0-.17-.1.568.568,0,0,0-.639.181.476.476,0,0,0-.053.1.592.592,0,0,0-.04.246l.125,1.211-1.1-.46a.618.618,0,0,0-.25-.042.5.5,0,0,0-.106.011.484.484,0,0,0-.1.032.536.536,0,0,0-.311.486.574.574,0,0,0,.056.244.52.52,0,0,0,.045.077.5.5,0,0,0,.33.207l1.183.208-.821.974a.462.462,0,0,0-.125.306.589.589,0,0,0,.571.556.3.3,0,0,0,.045,0,.407.407,0,0,0,.1-.031.635.635,0,0,0,.282-.272l.613-1.072.585,1.072a.711.711,0,0,0,.169.2.466.466,0,0,0,.227.1.361.361,0,0,0,.049,0,.46.46,0,0,0,.1-.012.59.59,0,0,0,.279-.157.553.553,0,0,0,.174-.388.489.489,0,0,0-.111-.306l-.835-.974,1.183-.208a.534.534,0,0,0-.084-1.058" transform="translate(-32.95 -255.805)" fill="#5dccda"/>
      <path id="Path_1479" data-name="Path 1479" d="M73,348.909a.618.618,0,0,0-.25.042l-1.1.46.139-1.211a.575.575,0,0,0-.1-.341.489.489,0,0,0-.069-.078.535.535,0,0,0-.358-.137.62.62,0,0,0-.1.009.568.568,0,0,0-.194.068.5.5,0,0,0-.245.479l.125,1.211-1.1-.46a.618.618,0,0,0-.25-.042.493.493,0,0,0-.2.044.51.51,0,0,0-.163.117.54.54,0,0,0-.148.369.569.569,0,0,0,.1.322.48.48,0,0,0,.059.071.508.508,0,0,0,.271.137l1.183.208-.821.974a.462.462,0,0,0-.125.306.589.589,0,0,0,.571.556.4.4,0,0,0,.2-.064.575.575,0,0,0,.116-.094.773.773,0,0,0,.11-.148l.613-1.072.585,1.072a.536.536,0,0,0,.445.306.46.46,0,0,0,.1-.012.59.59,0,0,0,.279-.157.553.553,0,0,0,.174-.388.49.49,0,0,0-.111-.306l-.835-.974,1.183-.208A.534.534,0,0,0,73,348.909" transform="translate(-50.76 -255.805)" fill="#5dccda"/>
      <path id="Path_1480" data-name="Path 1480" d="M97.21,348.909a.716.716,0,0,0-.178.018.457.457,0,0,0-.072.024l-1.1.46L96,348.2a.525.525,0,0,0-.528-.556.6.6,0,0,0-.3.077.48.48,0,0,0-.153.138.5.5,0,0,0-.084.21.642.642,0,0,0-.008.132l.125,1.211-1.1-.46a.448.448,0,0,0-.072-.024.6.6,0,0,0-.129-.017H93.7a.534.534,0,0,0-.084,1.058l1.183.208-.41.487-.411.487a.893.893,0,0,0-.061.087.39.39,0,0,0-.065.219.523.523,0,0,0,.1.3.613.613,0,0,0,.358.24.5.5,0,0,0,.109.012.3.3,0,0,0,.045,0,.567.567,0,0,0,.386-.3l.612-1.072.585,1.072a.484.484,0,0,0,.743.207.633.633,0,0,0,.155-.153.528.528,0,0,0,.1-.3.491.491,0,0,0-.006-.073.466.466,0,0,0-.053-.152.646.646,0,0,0-.052-.081l-.835-.974,1.183-.208a.534.534,0,0,0-.084-1.058" transform="translate(-68.571 -255.805)" fill="#5dccda"/>
      <path id="Path_1481" data-name="Path 1481" d="M121.747,349.034a.512.512,0,0,0-.127-.082.484.484,0,0,0-.1-.032.5.5,0,0,0-.106-.011h-.049c-.019,0-.039,0-.061,0a.516.516,0,0,0-.141.037l-1.1.46.139-1.211a.525.525,0,0,0-.529-.556.514.514,0,0,0-.543.556l.063.606.063.605-1.1-.46a.459.459,0,0,0-.072-.024.717.717,0,0,0-.178-.018.534.534,0,0,0-.084,1.058l1.183.208-.821.975a.462.462,0,0,0-.125.306.5.5,0,0,0,.048.21.616.616,0,0,0,.213.247.625.625,0,0,0,.1.053.471.471,0,0,0,.644-.26l.612-1.072.292.536.292.536a.773.773,0,0,0,.111.148.538.538,0,0,0,.175.124.4.4,0,0,0,.159.034.587.587,0,0,0,.556-.556.488.488,0,0,0-.111-.306l-.835-.975,1.183-.208a.5.5,0,0,0,.33-.207.537.537,0,0,0,.045-.078.577.577,0,0,0,.056-.244.535.535,0,0,0-.022-.152.543.543,0,0,0-.162-.252" transform="translate(-86.382 -255.805)" fill="#5dccda"/>
      <path id="Path_1482" data-name="Path 1482" d="M145.912,349a.5.5,0,0,0-.088-.05.5.5,0,0,0-.2-.044h-.049a.556.556,0,0,0-.2.041l-1.1.46.139-1.211a.547.547,0,0,0-.17-.419.517.517,0,0,0-.17-.1.536.536,0,0,0-.188-.034.613.613,0,0,0-.2.034.488.488,0,0,0-.3.277.587.587,0,0,0-.04.246l.063.605.063.605-1.1-.46a.618.618,0,0,0-.25-.042.534.534,0,0,0-.084,1.058l1.183.208-.821.975a.462.462,0,0,0-.125.306.5.5,0,0,0,.048.21.616.616,0,0,0,.213.247.6.6,0,0,0,.1.053.533.533,0,0,0,.213.046.3.3,0,0,0,.045,0,.408.408,0,0,0,.1-.031.637.637,0,0,0,.282-.272l.613-1.072.585,1.072a.814.814,0,0,0,.054.081.639.639,0,0,0,.115.12.557.557,0,0,0,.059.041.428.428,0,0,0,.217.064.46.46,0,0,0,.1-.012.516.516,0,0,0,.1-.034.588.588,0,0,0,.352-.51.489.489,0,0,0-.111-.306l-.418-.487-.417-.487,1.183-.208a.509.509,0,0,0,.271-.137.492.492,0,0,0,.059-.07.57.57,0,0,0,.1-.322.539.539,0,0,0-.224-.435" transform="translate(-104.193 -255.805)" fill="#5dccda"/>
      <path id="Path_1483" data-name="Path 1483" d="M328.647,87.511a.66.66,0,1,0,.7-1.122.674.674,0,0,0-.12-.059.659.659,0,0,0-.253-.04.668.668,0,0,0-.245.058.661.661,0,0,0-.209.148.676.676,0,0,0-.081.106.661.661,0,0,0,.213.91" transform="translate(-241.597 -63.494)" fill="#5dccda"/>
      <path id="Path_1484" data-name="Path 1484" d="M343.2,96.287a.66.66,0,0,0,.047.151.671.671,0,0,0,.063.111.661.661,0,1,0-.11-.262" transform="translate(-252.525 -70.277)" fill="#5dccda"/>
      <path id="Path_1485" data-name="Path 1485" d="M313.8,78.294a.657.657,0,0,0,.373.1.661.661,0,0,0,.429-1.139.668.668,0,0,0-.226-.141.661.661,0,0,0-.576,1.181" transform="translate(-230.67 -56.712)" fill="#5dccda"/>
      <path id="Path_1486" data-name="Path 1486" d="M221.325,60.952l-1.963,3.162L217.4,67.277,216.078,69.4,214.3,72.261l-1.773,2.857-6.643,10.7-6.643,10.7-1.025,1.651L197.2,99.823a.055.055,0,0,0,0,.01l0,.01a.592.592,0,0,0-.026.058c-.009.019-.019.038-.026.058s-.009.029-.013.044-.007.038-.01.057-.008.038-.01.057,0,.019-.005.029L197,102.5l-.094,2.357q-.13,3.255-.26,6.511l-.09,2.24-.09,2.239c0,.022,0,.044,0,.066a.661.661,0,0,0,.312.588.641.641,0,0,0,.331.095.734.734,0,0,0,.115-.008.718.718,0,0,0,.165-.047.5.5,0,0,0,.054-.022L202.065,114l4.622-2.523,3.559-1.943,1.049-.573c.006,0,.011-.009.017-.013a.644.644,0,0,0,.1-.075l.032-.031a.644.644,0,0,0,.074-.091c.005-.008.012-.013.017-.021l.979-1.578,3.56-5.735,1.321-2.128,2.958-4.765,2.958-4.765,5.586-9,5.586-9,1.18-1.9,0,0a2.2,2.2,0,0,0,.6.26,2.06,2.06,0,0,0,.519.067c.055,0,.108,0,.161-.006a2.385,2.385,0,0,0,.68-.153c.074-.028.14-.057.2-.085s.106-.054.145-.076.068-.04.087-.052l.019-.013a2.154,2.154,0,0,0,.577-.589,2.308,2.308,0,0,0,.119-.2,2.35,2.35,0,0,0,.138-.319,2.143,2.143,0,0,0,.1-.392,2.323,2.323,0,0,0-.011-.625,2.413,2.413,0,0,0-.1-.409,2.108,2.108,0,0,0-.411-.726,2.206,2.206,0,0,0-.5-.426l0,0,2.5-4.022,1.53-2.464a2.747,2.747,0,0,0,.407-1.636,2.787,2.787,0,0,0-.257-1,13.153,13.153,0,0,0-4.729-5.477h0c-.13-.084-.259-.162-.389-.239h0c-.084-.05-.168-.1-.252-.148s-.183-.1-.275-.152-.168-.09-.251-.133-.183-.091-.274-.134-.167-.08-.25-.118-.181-.08-.272-.119l-.124-.052-.124-.052-.135-.052-.135-.052-.122-.045-.122-.045-.133-.045-.133-.045-.12-.039-.12-.039-.131-.038-.131-.038c-.079-.022-.158-.045-.236-.066l-.128-.032-.128-.032-.115-.027-.115-.028c-.085-.019-.167-.035-.251-.052s-.149-.031-.222-.045-.164-.029-.246-.042-.143-.025-.214-.035-.16-.022-.239-.033l-.2-.027c-.08-.009-.157-.016-.235-.024l-.1-.01-.1-.01-.118-.008-.118-.008-.171-.012c-.081,0-.158-.007-.236-.01l-.151-.006-.24,0-.124,0c-.118,0-.231,0-.341,0a2.687,2.687,0,0,0-.752.127,2.746,2.746,0,0,0-1.071.644,2.779,2.779,0,0,0-.427.53l-.764,1.231-.764,1.231-2.5,4.022a2.215,2.215,0,0,0-.6-.259,2.087,2.087,0,0,0-.517-.066,2.421,2.421,0,0,0-1.286.385,2.151,2.151,0,0,0-.2.158,2.175,2.175,0,0,0-.43.518,2.363,2.363,0,0,0-.256.611,1.923,1.923,0,0,0-.044.215c0,.007,0,.024-.006.048a2.374,2.374,0,0,0,0,.408c0,.044.008.091.015.14a2.446,2.446,0,0,0,.062.312,2.137,2.137,0,0,0,.445.849,2.179,2.179,0,0,0,.231.23,2.229,2.229,0,0,0,.269.2Zm-21.7,52.873-1.789.977.069-1.717.069-1.717.026-.64a4.713,4.713,0,0,1,1.886.64l.06.035a4.614,4.614,0,0,1,.435.306,4.691,4.691,0,0,1,.735.727,4.831,4.831,0,0,1,.3.411Zm7.518-4.1-3.02,1.648-.772.422-.772.421a6.016,6.016,0,0,0-.468-.638c-.056-.068-.11-.139-.169-.2q-.14-.155-.291-.3a6.041,6.041,0,0,0-1.01-.787q-.152-.094-.308-.179a6.021,6.021,0,0,0-1.948-.659q-.166-.026-.334-.043l.181-4.544.082-2.05.082-2.05c.058,0,.119,0,.183,0s.131,0,.2.009.141.013.215.024a3.174,3.174,0,0,1,.464.1c.08.024.161.053.243.085a2.984,2.984,0,0,1,.495.253,3.026,3.026,0,0,1,.586.486,3.094,3.094,0,0,1,.392.521,3.246,3.246,0,0,1,.236.477c.028.072.051.138.07.2s.034.113.045.157a.66.66,0,0,0,.643.5.67.67,0,0,0,.129-.013,3.139,3.139,0,0,1,.595-.059,3.253,3.253,0,0,1,.791.09c.073.018.146.038.221.063a2.943,2.943,0,0,1,.454.191c.076.04.153.084.229.133a2.935,2.935,0,0,1,.287.205,2.972,2.972,0,0,1,.244.22,3.148,3.148,0,0,1,.376.46c.065.1.122.192.171.284a3.3,3.3,0,0,1,.215.49c.023.068.041.129.054.179a.661.661,0,0,0,.632.492.668.668,0,0,0,.125-.011,3.2,3.2,0,0,1,.507-.048c.091,0,.191,0,.3.007a3.36,3.36,0,0,1,.7.119,3.046,3.046,0,0,1,.953.46c.066.048.128.1.188.146s.115.1.168.153a3.146,3.146,0,0,1,.545.716c.043.078.082.154.116.227Zm-3.759-7.522,3.433-5.531,5.711-9.2,3.552-5.722,1.321-2.128,8.782-14.149.673-1.083,3.284,2.039-.672,1.083L217.4,86.946l-1.321,2.128-1.586,2.555-.984,1.586-.984,1.586-1.217,1.961-1.217,1.961-1.5,2.41-.964,1.553-.964,1.553q-.055-.088-.118-.178c-.041-.06-.085-.12-.132-.18a4.35,4.35,0,0,0-.486-.534,4.3,4.3,0,0,0-.408-.335q-.111-.08-.231-.157t-.251-.15a4.227,4.227,0,0,0-1.439-.481q-.111-.016-.219-.026m30.76-32.39L221.69,89.868,217.4,96.781l-1.321,2.128-3.559,5.733-1.454,2.342a4.453,4.453,0,0,0-.872-1c-.089-.076-.179-.152-.279-.224-.03-.022-.061-.04-.091-.06l-.091-.06a4.346,4.346,0,0,0-1.014-.481,4.5,4.5,0,0,0-.6-.15c-.117-.021-.231-.039-.341-.05l2.35-3.786,2.4-3.863,1.778-2.864,1.778-2.864.386-.622.935-1.506L230.588,68.2l.672-1.083,2.579,1.6.706.438Zm-5.256-18.533a1.523,1.523,0,0,1,1.374-.717c.372.019.779.056,1.211.117.347.049.711.115,1.088.2s.767.192,1.166.323q.2.065.4.139t.407.155q.269.108.541.231a12.64,12.64,0,0,1,3.327,2.2q.247.226.474.456c.3.306.577.615.827.922s.474.61.676.9c.185.271.345.53.493.782.049.084.1.17.148.251.005.009.009.018.013.028l.013.027a1.52,1.52,0,0,1-.06,1.492l-.567.914-.567.914L233.8,56.857,227.752,53.1Zm-2.972,4.788,1.141-1.839,2.594,1.61,9.5,5.9-1.141,1.839-1.141,1.839-9.5-5.9-2.595-1.61Zm-4.281,2.814a.852.852,0,0,1,.042-.134.864.864,0,0,1,.065-.128.9.9,0,0,1,.109-.141.87.87,0,0,1,.131-.114.889.889,0,0,1,.476-.162.879.879,0,0,1,.5.129l0,0,1.118.694.6.371.562.349.389.241,4.5,2.791,2.732,1.7,2.732,1.7.3.183.3.183,1.122.7h0l0,0a.884.884,0,0,1-.932,1.5l0,0h0l-.561-.348-.561-.348-.3-.183-.3-.183L233,66.643l-8.305-5.155-.951-.59-.3-.185-.3-.185-1.118-.694h0l0,0a.874.874,0,0,1-.164-.133.883.883,0,0,1-.206-.348.9.9,0,0,1-.038-.2.892.892,0,0,1,.019-.273m.814,2.772,1.642,1.019,1.642,1.019-.673,1.083L217.4,77.112l-1.321,2.128-3.551,5.72-3.588,5.781-3.589,5.781-1.544,2.487-1.544,2.487a4.4,4.4,0,0,0-.727-.889,4.3,4.3,0,0,0-.4-.334q-.11-.08-.229-.156l-.021-.013-.021-.013h0a4.332,4.332,0,0,0-1.881-.633l.911-1.467.91-1.467,11.73-18.9,1.774-2.858,1.774-2.858,1.321-2.128,2.524-4.066Z" transform="translate(-144.565 -36.362)" fill="#5dccda"/>
      <path id="Path_1487" data-name="Path 1487" d="M185.8,100.083a.617.617,0,0,0-.071-.065q-.161-.126-.329-.234t-.341-.2a5.948,5.948,0,0,0-1.451-.529c-.125-.029-.25-.055-.376-.079s-.251-.044-.378-.063c-.034,0-.068.007-.1.013s-.063.011-.092.019a.6.6,0,0,0-.157.061.373.373,0,0,0-.062.045.334.334,0,0,0-.089.127.426.426,0,0,0-.024.084c-.046.257.137.378.351.453.079.028.161.05.243.071a21.764,21.764,0,0,1,2.477.767c.039.015.078.033.118.048a.561.561,0,0,0,.12.035c.228.033.309-.092.283-.3a.433.433,0,0,0-.023-.093.469.469,0,0,0-.1-.159" transform="translate(-134.157 -72.783)" fill="#5dccda"/>
      <path id="Path_1488" data-name="Path 1488" d="M114.576,62.95a4.152,4.152,0,0,0-.673.123c-.111.03-.221.064-.327.1s-.21.08-.309.126a2.7,2.7,0,0,0-.507.3c-.049.038-.094.076-.136.115a1.3,1.3,0,0,0-.148.165l-.032.045q-.015.023-.029.047a.293.293,0,0,0-.014.315.321.321,0,0,0,.141.135.314.314,0,0,0,.115.027.475.475,0,0,0,.124-.011q.032-.007.063-.017c.12-.038.24-.077.359-.12s.236-.089.352-.139a3.369,3.369,0,0,1,.436-.156q.109-.031.22-.053a2.756,2.756,0,0,1,.446-.052,2.7,2.7,0,0,1,.685.066c.051.012.1.022.153.031l.146.027a.87.87,0,0,0,.287-.046.34.34,0,0,0,.2-.2.486.486,0,0,0,.035-.134.436.436,0,0,0-.12-.34c-.013-.015-.029-.028-.043-.043s-.027-.029-.043-.043-.034-.024-.051-.036a1.147,1.147,0,0,0-.162-.1,1.951,1.951,0,0,0-.837-.159c-.107,0-.216.006-.328.016" transform="translate(-82.677 -46.308)" fill="#5dccda"/>
      <path id="Path_1489" data-name="Path 1489" d="M141.345,67.886a1.423,1.423,0,0,0,.189.31,1.2,1.2,0,0,0,.541.392.844.844,0,0,0,.29.049,1.144,1.144,0,0,0,.878-.607c.027-.044.046-.08.053-.093a1.312,1.312,0,0,0,.139-.628c0-.04,0-.078-.007-.116a1.672,1.672,0,0,0-.036-.215,1.877,1.877,0,0,0-.054-.186c-.02-.056-.04-.106-.058-.148l-.027-.058c-.025-.052-.045-.085-.051-.1.055,0,.108,0,.159,0s.1.007.148.014a2.171,2.171,0,0,1,.511.149l.117.048.116.046.071.026a.368.368,0,0,0,.324,0,.322.322,0,0,0,.1-.114.525.525,0,0,0,.042-.123.344.344,0,0,0,.006-.04c0-.006,0-.014,0-.022a.288.288,0,0,0-.012-.064.32.32,0,0,0-.015-.04.646.646,0,0,0-.164-.214,2.585,2.585,0,0,0-.954-.558,2.322,2.322,0,0,0-.328-.081c-.04-.007-.072-.011-.094-.013l-.033,0c-.055,0-.125-.007-.207-.006-.041,0-.084,0-.13.005a1.857,1.857,0,0,0-.462.089,1.656,1.656,0,0,0-.338.157,1.742,1.742,0,0,0-.79,1.1,1.776,1.776,0,0,0-.041.285,1.881,1.881,0,0,0,.062.6,1.093,1.093,0,0,0,.054.152" transform="translate(-103.918 -48.192)" fill="#5dccda"/>
      <path id="Path_1490" data-name="Path 1490" d="M121.576,84.632a.5.5,0,0,0-.005-.067.262.262,0,0,0-.074-.162.287.287,0,0,0-.192-.068.574.574,0,0,0-.125.011.843.843,0,0,0-.134.037,1.03,1.03,0,0,0-.484.365l-.025.038-.028.045a.53.53,0,0,0-.085.4.286.286,0,0,0,.032.07.32.32,0,0,0,.062.072.466.466,0,0,0,.291.105.645.645,0,0,0,.159-.014c.08.062.187.141.319.229a5.933,5.933,0,0,0,1.564.74,5.62,5.62,0,0,0,1.445.24,5.694,5.694,0,0,0,1.908-.263c.2-.063.376-.131.526-.194.075-.032.143-.063.2-.091a.37.37,0,0,0,.139-.126.321.321,0,0,0,.041-.094.364.364,0,0,0,.008-.074.329.329,0,0,0-.058-.2.271.271,0,0,0-.045-.048.305.305,0,0,0-.187-.071.365.365,0,0,0-.1.01c-.063.02-.132.04-.205.06s-.152.04-.235.059c-.165.039-.349.074-.549.1q-.15.021-.312.035a6.117,6.117,0,0,1-.69.021c-.122,0-.247-.01-.375-.021q-.252-.022-.487-.063a6.15,6.15,0,0,1-1.239-.348,6.26,6.26,0,0,1-1.079-.555.872.872,0,0,0,.018-.178" transform="translate(-88.601 -62.056)" fill="#5dccda"/>
      <path id="Path_1491" data-name="Path 1491" d="M117.515,71.7a3.686,3.686,0,0,0-.521-.219,3.223,3.223,0,0,0-.86-.161,2.145,2.145,0,0,0-.409.045c-.045.01-.089.021-.133.034a1.457,1.457,0,0,0-.5.261.677.677,0,0,0-.3.626.519.519,0,0,0,.083.2.527.527,0,0,0,.071.086.506.506,0,0,0,.182.115.53.53,0,0,0,.22.029.627.627,0,0,0,.119-.021.8.8,0,0,0,.247-.121,1.326,1.326,0,0,1,.144-.09,1.222,1.222,0,0,1,.292-.113,1.429,1.429,0,0,1,.3-.04,2.661,2.661,0,0,1,.47.033,3,3,0,0,1,1.122.406.327.327,0,0,0,.179.05.287.287,0,0,0,.243-.173.233.233,0,0,0,.015-.1.44.44,0,0,0-.047-.155c-.008-.017-.017-.034-.026-.05a.616.616,0,0,0-.072-.1.564.564,0,0,0-.092-.086,5.615,5.615,0,0,0-.477-.319q-.122-.073-.248-.137" transform="translate(-84.461 -52.478)" fill="#5dccda"/>
      <path id="Path_1492" data-name="Path 1492" d="M131.907,79.993a.186.186,0,0,0,.08.038.249.249,0,0,0,.091,0,.6.6,0,0,0,.1-.029,2.108,2.108,0,0,1,.721-.219,1.116,1.116,0,0,1,.253.021c.234.045.417.149.585.161a.358.358,0,0,0,.219-.05.226.226,0,0,0,.106-.115c.055-.15-.111-.343-.211-.442l-.043-.041-.025-.022a1.066,1.066,0,0,0-.186-.128,1.471,1.471,0,0,0-1.368-.006.866.866,0,0,0-.174.134c-.038.038-.315.316-.236.565a.276.276,0,0,0,.085.133" transform="translate(-96.988 -58.127)" fill="#5dccda"/>
      <path id="Path_1493" data-name="Path 1493" d="M110.554,56.327a1.26,1.26,0,0,0,.268-.815,1.24,1.24,0,0,0-.013-.146,1.271,1.271,0,0,0-.03-.145L110.454,54l-.325-1.22a.459.459,0,0,1-.014-.149.451.451,0,0,1,.036-.145c.053-.12.132-.274.226-.45.141-.264.317-.576.487-.9.113-.215.225-.434.322-.645.049-.106.094-.21.134-.31q.335-.837.628-1.656.44-1.227.794-2.407.118-.393.228-.78.219-.774.4-1.521c.017-.07.032-.141.042-.212a1.863,1.863,0,0,0,.015-.43,1.621,1.621,0,0,0-.033-.213,1.583,1.583,0,0,0-.095-.294,1.381,1.381,0,0,0-.075-.147,1.311,1.311,0,0,0-.1-.143,1.344,1.344,0,0,0-.284-.275l-.046-.031c-.018-.011-.046-.029-.083-.048l-.062-.031a1.164,1.164,0,0,0-.486-.109c-.02,0-.042,0-.063,0s-.041,0-.063,0h-.008a.877.877,0,0,0-.677.468l-.183.354-.183.354c.032-.216.058-.425.079-.626a5.138,5.138,0,0,0-.187-2.629.415.415,0,0,0-.054-.068,1.453,1.453,0,0,0-.417-.285,1.234,1.234,0,0,0-.378-.09c-.036,0-.071,0-.1,0h-.079c-.011-.019-.024-.043-.042-.069a.9.9,0,0,0-.273-.266l-.017-.01a.912.912,0,0,0-.135-.062.957.957,0,0,0-.329-.06.923.923,0,0,0-.095.011.738.738,0,0,0-.095.011l-.01,0a1.073,1.073,0,0,0-.327.157c-.025.018-.049.037-.074.058a1.147,1.147,0,0,0-.2.242q-.034.053-.069.113a4.586,4.586,0,0,0-.279.6q-.07.179-.138.383c-.046.136-.091.281-.134.433-.022.076-.044.154-.065.234-.064.24-.126.5-.184.766l-.227-1.823a1.156,1.156,0,0,0-.059-.223,1.243,1.243,0,0,0-.222-.382,1.1,1.1,0,0,0-.579-.353,1.132,1.132,0,0,0-.139-.024,1.18,1.18,0,0,0-.131-.007,1.28,1.28,0,0,0-.283.032c-.038.008-.071.018-.1.026l-.061.021a1.208,1.208,0,0,0-.457.309,1.4,1.4,0,0,0-.294.488,1.555,1.555,0,0,0-.084.392l-.235,2.416-.235,2.417a2.658,2.658,0,0,0-1.067-.662h0q.039-.36.067-.746t.041-.8c.024-.723.007-1.393-.033-2l-.006,0-.006,0a4.37,4.37,0,0,0,.382-.632,3.805,3.805,0,0,0,.313-.9,3.382,3.382,0,0,0,.072-.726c0-.09,0-.194-.01-.306,0-.057-.01-.115-.017-.176-.01-.076-.023-.155-.041-.236a2.22,2.22,0,0,0-.178-.507,2.155,2.155,0,0,0-.153-.26c-.035-.051-.075-.1-.122-.161a2.239,2.239,0,0,0-.365-.346,2.515,2.515,0,0,0-.255-.169c-.015-.129-.033-.272-.055-.425q-.029-.2-.068-.435c-.026-.153-.056-.315-.09-.483-.069-.337-.155-.7-.264-1.091l-.074-.262c-.113-.4-.245-.845-.412-1.321A10.464,10.464,0,0,0,99.925,29q-.218-.243-.462-.476a9.98,9.98,0,0,0-3.989-2.283,7.319,7.319,0,0,0-.8-.179c-.179-.029-.357-.05-.535-.064a5.2,5.2,0,0,0-1.049.023,4.294,4.294,0,0,0-.753.165,3.866,3.866,0,0,0-.71.306c-.086.048-.169.1-.248.151A4.23,4.23,0,0,0,90.3,27.68c-.042.057-.081.113-.118.168a4.618,4.618,0,0,0-.554-.142,4.431,4.431,0,0,0-.723-.077,4.273,4.273,0,0,0-.558.024c-.033,0-.077.009-.132.017a3.732,3.732,0,0,0-.6.147,5.424,5.424,0,0,0-1.061.488c-.164.1-.335.207-.514.335q-.134.1-.272.2a9.953,9.953,0,0,0-2.848,3.719q-.13.308-.236.639t-.185.682c-.018.08-.032.163-.048.244a6.715,6.715,0,0,0-.11.751c-.005.063-.009.122-.012.179a5.185,5.185,0,0,0,0,.593c.008.138.02.278.031.438a16.85,16.85,0,0,1,.027,1.9s0,.218-.013.569c0,.117-.01.249-.018.392s-.017.3-.029.461c-.03.408-.075.869-.142,1.332-.013.092-.027.185-.043.278-.067.405-.151.8-.249,1.172a19.763,19.763,0,0,1-1.137,3.1c-.331.742-.667,1.449-.954,2.147q-.061.15-.12.3a7.719,7.719,0,0,0-.634,3.681c.019.181.047.379.091.592.015.071.031.143.049.218a6.428,6.428,0,0,0,.216.709,7.989,7.989,0,0,0,1.054,1.939q.219.3.483.614c-.055.054-.113.113-.173.177a4.905,4.905,0,0,0-.372.453c-.063.087-.126.179-.188.277s-.107.176-.153.262a1.256,1.256,0,0,0,.137,1.4,1.274,1.274,0,0,0,.092.105c.243.236.51.484.8.738s.6.515.943.777q.338.262.709.526t.774.523q.4.259.84.511c.436.251.9.5,1.385.728q.243.116.5.228a19.783,19.783,0,0,0,2.2.825q.726.224,1.439.384t1.4.267c.462.071.916.124,1.362.163a22.31,22.31,0,0,0,9.167-1.173c.31-.111.531-.2.653-.25q.335-.138.654-.282.639-.287,1.218-.594a18.821,18.821,0,0,0,5.4-4.22h0c.23-.26.436-.509.631-.749.065-.081.133-.163.194-.241m-8.127-18.745a.742.742,0,0,1,.29.172.9.9,0,0,1,.136.166,1.207,1.207,0,0,1,.1.187c.013.032.026.064.036.1a2.015,2.015,0,0,1,.1.557,1.792,1.792,0,0,1-.922,1.55,1.62,1.62,0,0,1-.388.167,1.516,1.516,0,0,1-.368.05c-.055,0-.107,0-.154,0s-.09-.009-.128-.015c0-.074.008-.151.012-.226s.009-.149.012-.226q.016-.4.017-.778a3.466,3.466,0,0,1,.825-.3.482.482,0,0,0,.1-.021l.041-.013.048-.013a.4.4,0,0,0,.048-.017.241.241,0,0,0,.163-.146.263.263,0,0,0,.012-.1.239.239,0,0,0-.012-.049.251.251,0,0,0-.012-.049.235.235,0,0,0-.048-.065.394.394,0,0,0-.122-.077l-.048-.018a.782.782,0,0,0-.265-.027,2.1,2.1,0,0,0-.251.025,3.66,3.66,0,0,0-.462.105c0-.027,0-.058,0-.091a.932.932,0,0,1,.046-.223.88.88,0,0,1,.053-.123.961.961,0,0,1,.239-.29,1.089,1.089,0,0,1,.333-.188,1,1,0,0,1,.247-.054.839.839,0,0,1,.329.034M85.269,41.218l.083.02a1.192,1.192,0,0,0,.177.025c.034,0,.072,0,.114,0,.115,0,.261,0,.43-.006.015.069.033.143.054.22s.048.158.078.242a3.42,3.42,0,0,0,.253.54,1.65,1.65,0,0,1-.2.071,1.407,1.407,0,0,1-.335.053c-.048,0-.092,0-.131,0a1.333,1.333,0,0,1-.157-.02,1.6,1.6,0,0,1-.814-.441,2.011,2.011,0,0,1-.208-.237,1.944,1.944,0,0,1-.33-.686,1.5,1.5,0,0,1-.043-.283c0-.017,0-.036,0-.057s0-.042,0-.065a.991.991,0,0,1,.012-.143.562.562,0,0,1,.133-.29.492.492,0,0,1,.071-.064.627.627,0,0,1,.263-.11,1.141,1.141,0,0,1,.523.039,1.123,1.123,0,0,1,.114.041,1.052,1.052,0,0,1,.325.219,1.153,1.153,0,0,1,.1.115c.028.036.05.068.066.094-.283.073-.545.084-.714.306-.151.2-.109.353.132.416m.562,3.48q.019-.106.034-.207a8.47,8.47,0,0,0,.085-.857c0-.091.007-.171.008-.24.035,0,.075,0,.119,0a1.4,1.4,0,0,0,.471-.1,1.3,1.3,0,0,0,.18-.092l.053-.032c.016.031.034.061.051.092l.051.092c.035.063.068.126.1.189q.165.287.341.558a12.634,12.634,0,0,0,1.137,1.495,13.763,13.763,0,0,0,1.693,1.61L90.1,49.9q-1.077.553-2.17,1.142t-2.2,1.215l-.239.138c-.37.211-.739.422-1.1.634a4.953,4.953,0,0,1-.738-1.8,3.714,3.714,0,0,1-.056-.537c0-.08,0-.155,0-.225a3.722,3.722,0,0,1,.306-1.346c.087-.207.188-.409.3-.611.165-.3.349-.609.535-.936a9.359,9.359,0,0,0,.858-1.9,7.888,7.888,0,0,0,.236-.978m5.251,4.926c.006-.179.024-.358.033-.537,0-.09.008-.179.006-.269,0-.066,0-.139,0-.221,0-.162,0-.355,0-.574q0-.164,0-.348.294.128.589.231a6.988,6.988,0,0,0,1.474.347q.3.035.594.043c.1,0,.2,0,.3,0s.2-.007.3-.015a6.465,6.465,0,0,0,1.514-.3c.005.14.012.276.018.41.013.267.026.524.032.776,0,.126,0,.251,0,.377a.973.973,0,0,0,.15.569.872.872,0,0,0,.192.2,1.321,1.321,0,0,0,.269.159c.081.037.161.076.241.118.12.062.241.13.368.2s.259.146.4.224c-.021.023-.053.056-.095.1s-.094.093-.157.15a5.71,5.71,0,0,1-1.211.849,5.188,5.188,0,0,1-2.484.6,5.121,5.121,0,0,1-1.1-.133,5.243,5.243,0,0,1-.636-.191,5.569,5.569,0,0,1-1.808-1.109c-.065-.061-.114-.109-.147-.142l.173-.1c.109-.064.208-.124.294-.179l.121-.078.113-.076.092-.065c.055-.04.1-.074.133-.1a.711.711,0,0,0,.081-.083c.01-.013.02-.026.028-.038s.016-.025.023-.038a.892.892,0,0,0,.1-.487c0-.09,0-.179,0-.268m6.948-2.508a6.981,6.981,0,0,1-.055.766q-.027.208-.069.43a6.977,6.977,0,0,1-.488,1.544.833.833,0,0,1-.078-.031.856.856,0,0,1-.088-.045.749.749,0,0,1-.182-.148l-.021-.025a.523.523,0,0,1-.077-.136,1.093,1.093,0,0,1-.058-.234c0-.025-.007-.052-.011-.08a5.5,5.5,0,0,1-.02-.729q0-.082.006-.176c0-.063.006-.129.011-.2.009-.14.023-.3.042-.462l1.085-.8c0,.1,0,.213,0,.329m-9,4.521c.035.037.091.1.167.171.038.037.081.078.129.123.1.089.212.19.348.3a6.728,6.728,0,0,0,1.369.849,6.284,6.284,0,0,0,.836.318,6.088,6.088,0,0,0,1.314.243q.178.013.363.016A6.282,6.282,0,0,0,97.236,52.5q.139-.1.262-.191c.164-.125.307-.246.429-.356.182-.164.315-.3.4-.391l.064-.071,1.128.591a6.715,6.715,0,0,1-2.593,2.264q-.193.1-.392.183a7.822,7.822,0,0,1-1.232.414,8.129,8.129,0,0,1-.855.164,8.316,8.316,0,0,1-.869.073q-.218.007-.436,0t-.436-.02a8.241,8.241,0,0,1-.864-.11,7.042,7.042,0,0,1-4.4-2.606l1.587-.813m10.131-.828-.434-.227-.434-.227c.106-.277.205-.58.3-.895.031-.1.064-.206.092-.315.043-.163.082-.325.117-.484a11.848,11.848,0,0,0,.267-2.2c.007-.265.006-.516,0-.753q.139-.211.274-.434a15.515,15.515,0,0,0,.777-1.439h0a14.876,14.876,0,0,0,.642-1.578c.034-.1.063-.2.095-.3s.066-.2.095-.3q.152,0,.317-.017t.341-.034c.224-.027.433-.063.624-.1a17.44,17.44,0,0,1,.024,1.78q-.014.39-.048.8-.017.207-.04.42c-.023.007-.046.015-.069.023a1.328,1.328,0,0,0-.2.083l-.042.023a.886.886,0,0,0-.311,1.243c.105.165.211.337.316.513a17.6,17.6,0,0,1-1.365,3.914q-.126.259-.25.495t-.243.447l-.419-.219Zm2.425-.373c.205-.471.4-.973.593-1.5.151-.426.281-.839.4-1.239h0l.029.057c.14.277.268.546.388.808.04.088.083.177.12.263q.047.2.1.414c.076.284.166.584.272.9q.08.234.173.477c.139.361.285.7.434,1.009s.3.6.449.858q.023.535.046,1.069l-1.816-.894-1.816-.894c.211-.409.421-.849.626-1.32M98.015,29.421a3.356,3.356,0,0,1,.839.421,4.336,4.336,0,0,1,.991.97q.141.187.269.386.063.1.124.2c.121.2.232.413.335.626.044.089.082.179.122.269s.085.179.123.269c.18.427.331.849.463,1.239l.028.082.051.152.051.152c.064.191.121.377.172.557s.1.352.135.517c.079.33.136.63.179.89.021.127.039.246.053.353-.062.02-.128.044-.2.07s-.138.058-.211.092a3.348,3.348,0,0,0-.519.309c0-.08,0-.156,0-.231a3.821,3.821,0,0,0-.038-.413c-.009-.064-.02-.125-.032-.184-.021-.106-.046-.2-.073-.295a2.734,2.734,0,0,0-.271-.619,3.023,3.023,0,0,0-.625-.728,4.648,4.648,0,0,0-.949-.623,7.694,7.694,0,0,0-.741-.324,15.162,15.162,0,0,0-1.807-.537q-.241-.058-.488-.113c-.493-.11-1-.213-1.513-.316l-.144-.031a3.507,3.507,0,0,1-1.364-.62c-.062-.047-.119-.094-.171-.14a3.273,3.273,0,0,1-.258-.252c-.034-.037-.063-.07-.087-.1a2.6,2.6,0,0,1,.174-.3,2.96,2.96,0,0,1,.582-.624c.044-.037.087-.075.133-.11q.263-.2.534-.358a5.565,5.565,0,0,1,1.4-.6q.145-.04.291-.071c.116-.025.264-.056.436-.083a4.718,4.718,0,0,1,1.265-.043,3.532,3.532,0,0,1,.737.16m-1.835-1.6c.084.007.167.016.249.028a4.285,4.285,0,0,1,.477.092,3.129,3.129,0,0,1,.624.225,1.658,1.658,0,0,1,.458.323q-.229-.032-.454-.052a8.158,8.158,0,0,0-.881-.032q-.216,0-.427.021t-.417.046a5.974,5.974,0,0,0-1.192.294,5.58,5.58,0,0,0-.744.332,5.653,5.653,0,0,0-.53.323A6.607,6.607,0,0,0,91.9,30.787a1.982,1.982,0,0,1,.038-.21,2.69,2.69,0,0,1,.244-.637,4.129,4.129,0,0,1,.949-1.171,4.265,4.265,0,0,1,.858-.58,3.487,3.487,0,0,1,.464-.2,3.922,3.922,0,0,1,.966-.184q.127-.009.255-.011a4.941,4.941,0,0,1,.509.017m-4.917.365a1.378,1.378,0,0,1,.319-.347,4.78,4.78,0,0,1,.393-.284,5.548,5.548,0,0,1,1.51-.677c.075-.021.139-.036.188-.048l.1-.021.013,0,.142-.016c.1-.009.221-.016.352-.017.066,0,.134,0,.206,0s.147.009.225.016a4.3,4.3,0,0,1,.767.148q-.219.024-.428.06a5.554,5.554,0,0,0-1.52.483,4.727,4.727,0,0,0-.947.617,5.038,5.038,0,0,0-.646.651c-.067.08-.131.163-.194.249a6.246,6.246,0,0,0-.357.544,2.2,2.2,0,0,1-.255-.759.933.933,0,0,1,.132-.6m.18,4.383c.054-.14.105-.283.154-.433.162.134.357.282.582.433a7.216,7.216,0,0,0,2.113.97c.191.053.374.095.546.128.258.05.491.081.692.1-.042.021-.078.041-.116.061l-.117.061c-.135.074-.251.142-.34.2-.054.033-.1.064-.147.094a2.184,2.184,0,0,0-.426.343l-.026.027a.826.826,0,0,0-.154.205.5.5,0,0,0,0,.5.54.54,0,0,0,.064.086.443.443,0,0,0,.325.155A.606.606,0,0,0,94.9,35.4a1.021,1.021,0,0,0,.11-.072c.094-.07.189-.137.286-.2a3.475,3.475,0,0,1,.609-.318,2.839,2.839,0,0,1,.333-.109,3.912,3.912,0,0,1,.9-.13,3.328,3.328,0,0,1,1.649.393,4.2,4.2,0,0,1,.749.511,1.218,1.218,0,0,1,.346.485,1.713,1.713,0,0,1,.062.184c.015.053.022.108.034.161a4.444,4.444,0,0,1,.071.492c.024.274.044.548.059.822a14.852,14.852,0,0,1-.051,2.466q-.062.557-.175,1.1a9.748,9.748,0,0,1-.924,2.587q-.13.246-.278.487c-.073.119-.148.236-.226.351a6.737,6.737,0,0,1-.785.962c-.13.131-.267.256-.41.374q-.164.136-.33.257a5.737,5.737,0,0,1-1.36.748,4.781,4.781,0,0,1-.7.206,4.606,4.606,0,0,1-1.081.1,5.708,5.708,0,0,1-2.257-.563,6.446,6.446,0,0,1-.836-.465,7.677,7.677,0,0,1-1.732-1.593q-.151-.185-.294-.379-.224-.3-.424-.615a10.946,10.946,0,0,1-1.431-3.347,11.739,11.739,0,0,1-.257-1.458,2.151,2.151,0,0,1,.669-1.9c.308-.281.618-.562.939-.828.067-.055.136-.108.2-.162s.134-.11.2-.161c.166-.124.327-.253.484-.385.315-.265.617-.544.918-.824.151-.14.3-.28.453-.419a3.262,3.262,0,0,0,.262-.273,4.358,4.358,0,0,0,.75-1.321m-.974-.839a2.671,2.671,0,0,1-.065.4c-.018.074-.04.151-.068.231s-.054.143-.083.21a2.692,2.692,0,0,1-.148.285,2.878,2.878,0,0,1-.305.417c-.046.053-.088.1-.123.134-.17.178-.337.335-.5.486-.277.25-.551.473-.828.7-.185.148-.371.3-.561.453-.285.234-.576.487-.882.785-.058.057-.115.109-.175.17l-.055.058-.055.058a4.915,4.915,0,0,0-.713.9,2.326,2.326,0,0,0-.125.248c-.016.038-.03.074-.044.109v.008a3.087,3.087,0,0,0-.169.7,3.356,3.356,0,0,0-.023.42,3.676,3.676,0,0,0,.04.511l-.508-.051a6.158,6.158,0,0,1,.075-1.773c0-.016.006-.031.009-.047s.005-.031.008-.047c.037-.18.082-.351.133-.515s.107-.321.167-.472.12-.284.184-.416.132-.258.2-.378a8.183,8.183,0,0,1,1.009-1.365c.017-.019.035-.037.052-.056q.187-.207.378-.391a8.144,8.144,0,0,1,.772-.658q.193-.145.385-.272.148-.1.294-.187c.194-.118.383-.222.564-.314.272-.139.528-.251.756-.341.076-.03.149-.058.219-.083s.136-.049.2-.07c0,.047,0,.1-.009.157M83.4,36.5q0-.21.01-.4c0-.039,0-.08,0-.117.012-.358.029-.663.054-.933.008-.09.017-.176.027-.26a5.806,5.806,0,0,1,.176-.9c.011-.04.024-.08.037-.12s.023-.08.036-.12q.054-.163.111-.312a6.367,6.367,0,0,1,.36-.769c.038-.069.076-.136.113-.2.054-.091.1-.174.153-.251l.048-.078s.049-.077.143-.209A10.052,10.052,0,0,1,86.039,30.3a7.98,7.98,0,0,1,2.189-1.446l.04-.018c.04-.018.106-.046.192-.076a1.944,1.944,0,0,1,.7-.105,1.59,1.59,0,0,1,.216.025c.073.014.14.027.2.043a1.5,1.5,0,0,1,.164.05.62.62,0,0,1,.237.151.67.67,0,0,1,.11.159c.013.025.023.05.031.072s.015.043.021.06c.021.063.04.129.059.2.037.136.07.279.1.419.072.35.117.681.137.833a8.352,8.352,0,0,0-3.139,1.5c-.045.035-.121.095-.218.177l-.1.089q-.074.064-.159.141a9.189,9.189,0,0,0-1.191,1.321,8.293,8.293,0,0,0-.508.774q-.094.162-.181.333a7.131,7.131,0,0,0-.456,1.106,6.416,6.416,0,0,0-.2.882c-.017.1-.038.2-.05.3h0c-.009.072-.017.144-.025.217s-.013.146-.017.221-.006.146-.007.216,0,.139,0,.205a6.455,6.455,0,0,0,.091.964c-.06.021-.124.046-.193.077s-.14.065-.214.106-.14.082-.2.123-.116.082-.165.121q-.035-.435-.057-.84t-.032-.778q-.008-.262-.011-.507c0-.327,0-.631,0-.911M80.82,53.349c-.094-.171-.176-.337-.248-.5-.081-.181-.148-.356-.2-.524a5.343,5.343,0,0,1-.185-.708,5.085,5.085,0,0,1-.077-.6,4.767,4.767,0,0,1,0-.633c.11-1.638,1.071-2.97,2.145-5.892.224-.609.453-1.287.68-2.051q.032-.106.061-.208.059-.2.109-.384c.021-.075.041-.147.059-.215.056-.205.1-.379.136-.514.024.083.056.183.1.294a3.688,3.688,0,0,0,.266.56,3.4,3.4,0,0,0,.457.612c.072.076.15.152.234.225.059.051.118.1.176.143a3.378,3.378,0,0,0,.5.314c0,.071-.005.151-.01.241,0,.045-.006.092-.009.142-.007.1-.017.206-.029.321s-.028.237-.047.365q-.014.1-.032.2c-.031.183-.068.358-.108.527s-.084.33-.131.485a8.152,8.152,0,0,1-.317.862c-.115.266-.238.514-.363.748-.078.146-.157.287-.236.425-.157.275-.314.535-.458.791a4.692,4.692,0,0,0-.7,2.035,3.72,3.72,0,0,0,.006.589,4.82,4.82,0,0,0,.679,2q.136.235.307.484c-.066.04-.135.084-.2.126-.2.127-.408.259-.618.4l-.054.036-.054.036q-.234.161-.453.321t-.422.318q-.122-.144-.232-.285a8.064,8.064,0,0,1-.719-1.079m23.7,6.773q-.334.195-.686.381c-.117.062-.232.126-.352.187-.1.049-.2.1-.3.145-.3.145-.6.287-.919.421-.13.055-.353.146-.659.259l-.244.088c-.346.121-.772.259-1.267.4a21.524,21.524,0,0,1-5.432.782q-.373.005-.757,0a19.563,19.563,0,0,1-2.391-.2q-.33-.049-.664-.11a18.6,18.6,0,0,1-4.136-1.274q-.444-.2-.86-.406a19.057,19.057,0,0,1-2.906-1.807A19.627,19.627,0,0,1,81.317,57.6a.5.5,0,0,1-.1-.606l.032-.054.032-.054a5.411,5.411,0,0,1,1.747-1.722q.191-.13.4-.265t.442-.281l.092-.058.092-.058c.988-.62,1.831-1.126,2.468-1.5l.031.04c.025.032.059.074.1.124l.07.082c.051.059.11.125.178.2a9.327,9.327,0,0,0,4.438,2.68,8.434,8.434,0,0,0,4.778-.192,8.54,8.54,0,0,0,.926-.379c.194-.093.38-.191.558-.292a9.546,9.546,0,0,0,2.853-2.5c.031-.043.055-.075.069-.1l2.056,1.092,2.056,1.092q.054,1.268.108,2.537t.108,2.537c-.109.066-.223.13-.335.195m5.4-9.338c-.275.523-.647,1.137-.832,1.544a1.1,1.1,0,0,0-.064.181,1.069,1.069,0,0,0,.008.565l.743,2.566-.175.216q-.177.215-.363.43c-.187.215-.383.431-.594.649-.14.145-.287.291-.441.439-.232.221-.481.446-.752.676-.339.287-.713.582-1.131.889q-.209.153-.434.31-.115-1.742-.229-3.484t-.229-3.484q-.1-.2-.2-.417-.2-.428-.393-.9-.1-.235-.191-.48c-.2-.532-.378-1.043-.526-1.528q-.074-.243-.139-.476-.061-.162-.124-.313t-.125-.291c-.084-.186-.168-.358-.251-.515a8.684,8.684,0,0,0-.46-.779l-.053-.079-.053-.079q-.05-.075-.1-.153c-.022-.034-.044-.068-.065-.1l-.029-.049-.026-.045-.026-.045-.013-.026-.013-.026-.02-.041-.02-.041-.02-.049c0-.013-.008-.025-.012-.038s-.009-.025-.012-.038-.008-.03-.011-.044a.353.353,0,0,1-.005-.069c0-.011,0-.022,0-.032a.2.2,0,0,1,.015-.04.144.144,0,0,1,.015-.04c.069-.09.234-.095.284-.1h.017a.388.388,0,0,1,.062.008c.02,0,.042,0,.062.008a.759.759,0,0,1,.086.027.956.956,0,0,1,.189.1l.049.032a4.23,4.23,0,0,1,.726.67c.08.089.152.174.216.249l.091.1q.057.064.111.128c.072.086.143.171.22.254a2.233,2.233,0,0,0,.26.242,2.184,2.184,0,0,0,.575.32,3.754,3.754,0,0,1,1.252.844,4.951,4.951,0,0,0,.591.475c.018.013.037.025.056.036a.564.564,0,0,0,.059.029.33.33,0,0,0,.125.027.247.247,0,0,0,.085-.015.29.29,0,0,0,.085-.048.387.387,0,0,0,.089-.1.349.349,0,0,0,.042-.232.639.639,0,0,0-.032-.128,1.812,1.812,0,0,0-.109-.249,1.971,1.971,0,0,0-.142-.226,2.6,2.6,0,0,0-.361-.4,2.716,2.716,0,0,0-.213-.176,3.7,3.7,0,0,0-.742-.4,2.789,2.789,0,0,1-.386-.215c-.069-.046-.141-.1-.217-.162a3.676,3.676,0,0,1-.279-.256c-.039-.04-.074-.077-.106-.112s-.059-.067-.083-.1c.095-.6.14-1.091.164-1.4.008-.108.016-.212.024-.314.023-.307.043-.6.063-.9.013-.2.025-.411.037-.635s.024-.466.035-.733c.01-.226.021-.5.032-.805.006-.154.011-.318.017-.49,0-.086.006-.175.008-.265s.005-.183.008-.278a.464.464,0,0,1,.013-.118.393.393,0,0,1,.106-.189.321.321,0,0,1,.086-.059.305.305,0,0,1,.071-.023.343.343,0,0,1,.066-.006.376.376,0,0,1,.114.018.353.353,0,0,1,.074.032.406.406,0,0,1,.11.1.548.548,0,0,1,.083.15.437.437,0,0,1,.015.048l.083.656c.093.736.172,1.364.231,1.842s.1.8.108.937a.662.662,0,0,0,.024.141.446.446,0,0,0,.04.095.37.37,0,0,0,.07.09.377.377,0,0,0,.156.086.458.458,0,0,0,.068.013.406.406,0,0,0,.048,0h.017a.4.4,0,0,0,.22-.084.455.455,0,0,0,.086-.087.5.5,0,0,0,.063-.111c.036-.125.073-.25.109-.375s.072-.25.109-.375q.209-.711.426-1.408t.438-1.381a.215.215,0,0,1,.157-.188l.028,0a.18.18,0,0,1,.085.023l.029.018.016.013a.231.231,0,0,1,.051.062.286.286,0,0,1,.03.078.391.391,0,0,1-.007.186c-.123.838-.257,1.683-.4,2.53-.046.282-.091.564-.139.847l-.04.231-.039.231a.489.489,0,0,0,.1.218.325.325,0,0,0,.085.073.282.282,0,0,0,.076.029.15.15,0,0,0,.032.007h.011a.216.216,0,0,0,.093-.022.37.37,0,0,0,.122-.1.317.317,0,0,0,.022-.03q.146-.674.286-1.361t.273-1.387c.038-.2.073-.392.109-.588s.074-.393.109-.587a.249.249,0,0,1,.005-.029.281.281,0,0,1,.047-.106.213.213,0,0,1,.053-.051.232.232,0,0,1,.089-.035l.025,0,.026,0a.219.219,0,0,1,.079.014.34.34,0,0,1,.164.171.715.715,0,0,1,.061.151.838.838,0,0,1,.027.155,1.522,1.522,0,0,1-.012.314c-.073.587-.123,1.176-.185,1.764-.046.441-.1.881-.174,1.319q-.037.219-.082.436a1.607,1.607,0,0,0-.032.336.516.516,0,0,0,.18.39.447.447,0,0,0,.127.075.563.563,0,0,0,.1.029.473.473,0,0,0,.093.009.433.433,0,0,0,.095-.01.487.487,0,0,0,.248-.148c.019-.021.034-.041.051-.062a1.356,1.356,0,0,0,.124-.173c.02-.034.035-.063.046-.087s.018-.04.021-.048c.025-.068.066-.164.122-.286.112-.244.282-.591.5-1.022.109-.216.23-.453.361-.709a.384.384,0,0,1,.137-.151.345.345,0,0,1,.183-.055l.029,0,.029,0a.326.326,0,0,1,.175.1.392.392,0,0,1,.043.055.385.385,0,0,1,.052.284q-.224.831-.483,1.688-.389,1.285-.865,2.624T110.16,50.3c-.03.071-.065.148-.1.229s-.082.165-.128.252" transform="translate(-58.142 -19.116)" fill="#5dccda"/>
    </g>
  </g>
</svg>
